<svg id="Слой_1" xmlns="http://www.w3.org/2000/svg" xmlns:xlink="http://www.w3.org/1999/xlink" viewBox="0 0 160.5 31.3"><style>.st0{fill:#FFFFFF;} .st1{fill:url(#SVGID_1_);stroke:#060606;} .st2{clip-path:url(#SVGID_3_);} .st3{fill:#060606;} .st4{fill:url(#SVGID_4_);} .st5{fill:#62111D;} .st6{fill:url(#SVGID_5_);} .st7{opacity:0.4;fill:#CE2742;}</style><path class="st0" d="M50.6 23.7c2.4 0 4.8-1.5 4.8-4.6 0-3.3-3.1-4.4-5.8-4.4-1.3 0-1.6-.9-1.6-1.4 0-.4.2-1.4 1.6-1.4 2.5 0 5.1-.9 5.1-4 0-2.4-2-4-4.2-4-1.6 0-2.9.7-3.8 2-.3.5-.8.8-1.3.8-.8 0-1.5-.6-1.5-1.5 0-.4.2-.8.5-1.3C45.9 2 48 1.1 50.6 1.1c4 0 7.4 2.3 7.4 6.5 0 2.7-1.8 4.8-4.2 5.4v.1c2.8.6 4.9 2.8 4.9 5.9 0 4.8-3.9 7.3-8 7.3-3.1 0-5.7-1.2-7.2-3.5-.3-.5-.4-.9-.4-1.2 0-.9.7-1.5 1.6-1.5.5 0 .9.2 1.5 1 .9 1.7 2.4 2.6 4.4 2.6zM75.7 26.1c-.5 0-1.6-.2-1.6-1.7v-1.1H74c-1.2 1.9-3.5 3-5.8 3-4.9 0-8.1-3.8-8.1-8.5s3.2-8.4 8.1-8.4c2.6 0 4.6 1.3 5.7 2.8h.1V1.8C74 .3 75.1 0 75.6 0s1.6.3 1.6 1.8v22.7c.1 1.4-1 1.6-1.5 1.6zm-6.8-2.5c3.2 0 5.4-2.7 5.4-5.8S72.1 12 68.9 12c-3.5 0-5.3 2.8-5.3 5.8s1.8 5.8 5.3 5.8zM87.7 26.3c-4.9 0-8.6-3.6-8.6-8.5s3.7-8.4 8.6-8.4 8.7 3.5 8.7 8.4-3.8 8.5-8.7 8.5zm0-14.3c-3.4 0-5.3 2.7-5.3 5.8 0 3 1.9 5.8 5.3 5.8 3.5 0 5.3-2.8 5.3-5.8S91.1 12 87.7 12zM110.5 22.1c.8 0 1.3.6 1.3 1.3 0 .4-.1.9-.7 1.4-1.3 1-3 1.6-4.8 1.6-5 0-8.6-3.4-8.6-8.5 0-5 3.7-8.5 8.6-8.5 1.7 0 3.5.5 4.7 1.5.6.5.8 1 .8 1.4 0 .8-.6 1.4-1.4 1.4-.3 0-.6-.1-1.3-.6-.6-.5-1.6-1-2.8-1-3.3 0-5.2 2.7-5.2 5.8 0 3 1.9 5.8 5.2 5.8 1.3 0 2.3-.4 3.1-1 .4-.5.7-.6 1.1-.6zM115.6 18.8c.1 2.7 2.4 4.9 5.2 4.9 1.9 0 3.1-.8 4.1-1.7.4-.4.8-.5 1.1-.5.7 0 1.4.5 1.4 1.3 0 .3-.1.7-.5 1.2-1.6 1.6-3.6 2.4-6.1 2.4-4.9 0-8.5-3.4-8.5-8.4s3.6-8.5 8.3-8.5c4 0 7 2.3 7.6 6.7.1.5.1.7.1 1 0 1.1-.6 1.6-1.7 1.6h-11zm9.5-2.4c-.1-2.5-1.6-4.5-4.5-4.5-2.7 0-4.8 2-5 4.5h9.5zM140.7 23.6h-.1c-1.2 1.7-3 2.7-5.4 2.7-2.5 0-5.8-1.3-5.8-4.9 0-4.8 5.8-5.4 11.2-5.4v-.4c0-2.4-1.6-3.5-4-3.5-1.4 0-2.6.4-3.8 1.3-.3.2-.7.3-.9.3-.7 0-1.2-.5-1.2-1.3 0-.4.2-.9.7-1.3 1.4-1 3.3-1.7 5.5-1.7 4.6 0 6.7 2.7 6.7 6.3v8.8c0 1.4-1 1.6-1.4 1.6-.5 0-1.5-.2-1.5-1.6v-.9zm-.9-5.4c-3.1 0-7.1.3-7.1 3 0 1.9 1.7 2.5 3.3 2.5 3 0 4.6-2 4.6-4.7v-.8h-.8zM149.2 12.5h.1c.8-1.7 2.9-3.1 5.2-3.1 4.1 0 6 2.9 6 6.5v8.5c0 1.5-1 1.8-1.6 1.8-.5 0-1.6-.3-1.6-1.8V17c0-2.6-.7-4.9-3.7-4.9-2.5 0-4.3 2.1-4.3 5.3v7c0 1.5-1 1.8-1.6 1.8s-1.6-.3-1.6-1.8V11.2c0-1.5 1-1.7 1.5-1.7s1.5.2 1.5 1.7v1.3z"/><radialGradient id="SVGID_1_" cx="10.636" cy="12.175" r="23.071" gradientUnits="userSpaceOnUse"><stop offset="0" stop-color="#373638"/><stop offset="1" stop-color="#060606"/></radialGradient><path class="st1" d="M.5 28.7c0 1.2.9 2.1 2.1 2.1h25.9c1.2 0 2.1-.9 2.1-2.1V2.9c0-1.2-.9-2.1-2.1-2.1H2.6C1.4.8.5 1.7.5 2.9v25.8z"/><g><defs><path id="SVGID_2_" d="M.8 29.2c0 1.2.9 2.1 2.1 2.1h50.2c1.2 0 2.1-.9 2.1-2.1V3.3c0-1.2-.9-2.1-2.1-2.1H2.9C1.7 1.2.8 2.1.8 3.3v25.9z"/></defs><clipPath id="SVGID_3_"><use xlink:href="#SVGID_2_" overflow="visible"/></clipPath><g class="st2"><path class="st3" d="M36.5 28.3c-.3.1-.6.1-.9.2-4.5.8-9.9 1.4-14.8.7C7.3 27-1.9 21-7.2 10.8c-1.6-3.1-2.1-7.3-1.3-11 .2-1.4.8-2.8 1.8-4.2 1-1.4 2.2-2.6 3.6-3.3.3-.1.5-.2.8-.3 1.1-.6 2.3-1 3.4-1.3.4-.1.7-.1 1.1-.2 9.2-.9 17.2 2.5 24.7 10.7 2.7 3 4.6 6.8 6.1 10.2.9 2 1.1 3.1.6 4-.2.5-.7.8-1.2.9-.8.2-1.8-.2-3.4-1.2-.4-.2-.8-.7-1.5-1.5-.5-.6-1.4-1.7-2-2.1-.4.4-.9.8-1.4.9-1.2.3-2-.8-2.3-1.3-.4-.4-1.6-.9-2.8-1.4.8.6 1.5 1.5 1.8 3.4.6 1 5.3 4.2 6.8 4.6.8 0 1.8.1 2.4.8.7.8.5 1.7.4 2.6v.2c.8.3 2.9.6 3.9.7 1.3.2 2.1.3 2.5.5 1.8.8 3.7 1.9 3.5 3.5-.2 1.4-2 2-3.8 2.3z"/><linearGradient id="SVGID_4_" gradientUnits="userSpaceOnUse" x1="-7.359" y1="3.342" x2="32.608" y2="3.342"><stop offset="0" stop-color="#6A1523"/><stop offset=".445" stop-color="#721825"/><stop offset="1" stop-color="#801D29"/></linearGradient><path class="st4" d="M22.7 10.3c1 1.5 1.4.8 2.5-.1.9-.8 3.8 3.4 4.5 3.9 3.3 2.1 3.5.8 2.2-2.2C30.3 8.4 28.5 4.8 26 2 19.6-4.9 12-9.3 2.3-8.2c-4.7.4-10.2 4.7-9.6 9.8.5 4.8 5.2 6 9.3 6.3C4.8 8 7.2 6 9.9 6.4c2.8.4 2.9 2.3 5.7 1.1.9-.4 6.1 1.8 7.1 2.8"/><path class="st5" d="M15.5-6.2l1 13.8-2.3.5h-1.8L-.3-7.4z"/><linearGradient id="SVGID_5_" gradientUnits="userSpaceOnUse" x1="15.707" y1="2.511" x2="15.707" y2="26.371"><stop offset="0" stop-color="#D22743"/><stop offset=".171" stop-color="#CD2642"/><stop offset=".354" stop-color="#C0253F"/><stop offset=".543" stop-color="#AC233A"/><stop offset=".736" stop-color="#921F32"/><stop offset=".93" stop-color="#731727"/><stop offset="1" stop-color="#671323"/></linearGradient><path class="st6" d="M27.5 18.8c2.3 0 1.8 1 1.6 2.7-.2 1.5 6.2 1.6 7.2 2.1 4.5 2 3.2 3.1-.8 3.8-4.7.8-9.7 1.4-14.4.7-11.7-2-21.6-7-27.2-17.8C-8.9 5-8.2-3.7-2.5-6.6c5.3-2.8 9.9 1.3 13 5.4 2.2 2.9 1.8 6.8 4 9.3 2.4 2.7 4.4 1.4 5.1 5.3.3 1.1 6.2 5.1 7.9 5.4"/><path class="st7" d="M36.5 25.7c-4.7.8-9.7 1.4-14.4.7C10.4 24.5.6 19.5-5.1 8.7-7 4.9-7.2-.5-5.2-4.4-8.3-.6-8.4 6-6.1 10.3-.5 21.1 9.4 26.1 21.1 28c4.7.7 9.7.1 14.4-.7 2.7-.5 4.2-1.1 3.4-2.2-.6.3-1.4.4-2.4.6z"/></g></g></svg>