<svg id="Слой_1" xmlns="http://www.w3.org/2000/svg" xmlns:xlink="http://www.w3.org/1999/xlink" viewBox="0 0 160.4 30.6"><style>.st0{fill:#FFFFFF;} .st1{fill:url(#SVGID_1_);stroke:#060606;} .st2{clip-path:url(#SVGID_2_);} .st3{fill:#060606;} .st4{fill:url(#SVGID_3_);} .st5{opacity:0.42;fill:url(#SVGID_4_);} .st6{opacity:0.17;fill:#FFFFFF;}</style><path class="st0" d="M38.9 20.2c-2.3 0-3.6-1.3-3.6-3.9v-11c0-1.1.8-1.4 1.2-1.4.4 0 1.2.2 1.2 1.4v2.4h2.4c1 0 1.1.7 1.1 1 0 .3-.2 1-1.1 1h-2.4v6.4c0 1.5.6 2.1 1.5 2.1.2 0 .3 0 .5-.1s.3-.1.4-.1c.6 0 1 .4 1 1 0 .4-.2.7-.7 1-.3.1-.9.2-1.5.2zM51.1 13.2c0-2-.5-3.8-2.8-3.8-1.9 0-3.3 1.6-3.3 4.1v5.4c0 1.1-.8 1.4-1.2 1.4-.4 0-1.2-.2-1.2-1.4V1.5c0-1.1.8-1.4 1.2-1.4.4 0 1.2.2 1.2 1.4v8.1c.6-1.2 2.1-2.2 3.9-2.2 3.2 0 4.6 2.3 4.6 5v6.5c0 1.1-.8 1.4-1.2 1.4-.4 0-1.2-.2-1.2-1.4v-5.7zM57.3 14.6c.1 2.1 1.9 3.8 4 3.8 1.5 0 2.4-.6 3.2-1.3.3-.3.6-.4.9-.4.6 0 1 .4 1 1 0 .2-.1.5-.4.9-1.2 1.2-2.7 1.9-4.7 1.9-3.8 0-6.5-2.6-6.5-6.5s2.8-6.5 6.4-6.5c3.1 0 5.4 1.8 5.9 5.2.1.4.1.5.1.8 0 .9-.4 1.3-1.3 1.3h-8.6zm7.4-1.8c-.1-2-1.2-3.5-3.5-3.5-2.1 0-3.7 1.6-3.9 3.5h7.4zM68.5 8.8c0-1.1.8-1.3 1.2-1.3.4 0 1.1.2 1.1 1.3v.9h.1c.6-1.3 2.1-2.4 3.9-2.4 1.6 0 3.1.7 3.8 2.5.8-1.6 2.4-2.5 4.2-2.5 3.2 0 4.6 2.3 4.6 5v6.5c0 1.1-.8 1.4-1.2 1.4-.4 0-1.2-.2-1.2-1.4v-5.7c0-2-.6-3.8-2.7-3.8-2.2 0-3.1 2-3.1 4v5.5c0 1.1-.8 1.4-1.2 1.4-.4 0-1.2-.2-1.2-1.4v-6.2c0-1.9-.7-3.3-2.6-3.3-1.8 0-3.2 1.6-3.2 4.1v5.4c0 1.1-.8 1.4-1.2 1.4s-1.2-.2-1.2-1.4v-10zM91.2 14.6c.1 2.1 1.9 3.8 4 3.8 1.5 0 2.4-.6 3.2-1.3.3-.3.6-.4.9-.4.6 0 1 .4 1 1 0 .2-.1.5-.4.9-1.2 1.2-2.7 1.9-4.7 1.9-3.8 0-6.5-2.6-6.5-6.5s2.8-6.5 6.4-6.5c3.1 0 5.4 1.8 5.9 5.2.1.4.1.5.1.8 0 .9-.4 1.3-1.3 1.3h-8.6zm7.3-1.8c-.1-2-1.2-3.5-3.5-3.5-2.1 0-3.7 1.6-3.9 3.5h7.4zM106.3 18.9c0 1.1-.8 1.4-1.2 1.4-.4 0-1.2-.2-1.2-1.4V9.7h-1.5c-1 0-1.1-.7-1.1-1 0-.3.2-1 1.1-1h1.5V5.1c0-2.9 1.3-5.1 4.5-5.1 1.4 0 1.7.5 1.7 1.1 0 .5-.3 1-1.2 1h-.4c-1.8 0-2.2 1.2-2.2 3v2.6h2c1 0 1.1.7 1.1 1 0 .3-.2 1-1.1 1h-2v9.2zM115.8 20.4c-3.8 0-6.7-2.7-6.7-6.5s2.9-6.5 6.7-6.5c3.8 0 6.7 2.7 6.7 6.5-.1 3.7-3 6.5-6.7 6.5zm0-11c-2.6 0-4.1 2.1-4.1 4.5 0 2.3 1.5 4.5 4.1 4.5 2.7 0 4.1-2.1 4.1-4.5s-1.5-4.5-4.1-4.5zM126.1 9.8c.7-1.4 2.1-2.4 3.7-2.4.8 0 1.4.3 1.4 1.1 0 .9-.7 1.2-1.5 1.2h-.2c-1.9 0-3.3 1.4-3.3 4.1V19c0 1.1-.8 1.4-1.2 1.4s-1.2-.2-1.2-1.4V8.8c0-1.1.8-1.3 1.2-1.3.4 0 1.1.2 1.1 1.3v1zM132.8 14.6c.1 2.1 1.9 3.8 4 3.8 1.5 0 2.4-.6 3.2-1.3.3-.3.6-.4.9-.4.6 0 1 .4 1 1 0 .2-.1.5-.4.9-1.2 1.2-2.7 1.9-4.7 1.9-3.8 0-6.5-2.6-6.5-6.5s2.8-6.5 6.4-6.5c3.1 0 5.4 1.8 5.9 5.2.1.4.1.5.1.8 0 .9-.4 1.3-1.3 1.3h-8.6zm7.4-1.8c-.1-2-1.2-3.5-3.5-3.5-2.1 0-3.7 1.6-3.9 3.5h7.4zM148.3 9.3c-1.1 0-2.3.4-2.3 1.6 0 1 .9 1.4 2.8 1.9 2.3.5 4.1 1.5 4.1 3.7 0 2.9-2.4 4-4.9 4-1.5 0-3-.5-4.1-1.4-.4-.4-.5-.8-.5-1 0-.6.4-1.1 1.1-1.1.3 0 .6.1.9.4.8.7 1.6 1.1 2.7 1.1 1.2 0 2.5-.4 2.5-1.8 0-1.1-1.1-1.6-3.2-2.1-1.6-.4-3.6-1.1-3.6-3.4 0-2.7 2.3-3.8 4.7-3.8 1.3 0 2.7.4 3.6 1.2.5.4.6.8.6 1 0 .6-.4 1.1-1.1 1.1-.2 0-.5-.1-.8-.4-.8-.8-1.6-1-2.5-1zM158.1 20.2c-2.3 0-3.6-1.3-3.6-3.9v-11c0-1.1.8-1.4 1.2-1.4.4 0 1.2.2 1.2 1.4v2.4h2.4c1 0 1.1.7 1.1 1 0 .3-.2 1-1.1 1h-2.4v6.4c0 1.5.6 2.1 1.5 2.1.2 0 .3 0 .5-.1s.3-.1.4-.1c.6 0 1 .4 1 1 0 .4-.2.7-.7 1-.3.1-.9.2-1.5.2z"/><radialGradient id="SVGID_1_" cx="8.317" cy="9.472" r="17.793" gradientUnits="userSpaceOnUse"><stop offset="0" stop-color="#373638"/><stop offset="1" stop-color="#060606"/></radialGradient><path class="st1" d="M.5 22.2c0 .9.7 1.6 1.6 1.6H22c.9 0 1.6-.7 1.6-1.6V2.3c0-.9-.7-1.6-1.6-1.6H2.1C1.2.7.5 1.4.5 2.3v19.9z"/><g><defs><path id="SVGID_5_" d="M33.8 12.8c-.8-6-7.9-4.3-3.9-2.5 3.8 1.7-5.3 3.5-6.3 3.7V2.7c0-1.1-.7-2-1.6-2H2.1c-.9 0-1.6.9-1.6 2v25.2c0 1.1.7 2 1.6 2H22c.3 0 .6-.1.8-.3 2.5.5 6.6 1.2 7.9.9 2-.4 3.6-3.8 3.6-4s.3-7.7-.5-13.7z"/></defs><clipPath id="SVGID_2_"><use xlink:href="#SVGID_5_" overflow="visible"/></clipPath><g class="st2"><path class="st0" d="M29.5 15.2s1.4.1 1.6.6c.2.5-1.2.9-1.2.9l-.4-1.5z"/><path class="st3" d="M31.8 15.6c-.3-.8-1.5-1-2.2-1.1l-.8.9.4 1.6 1 .5c.5-.2 1.3-.5 1.6-1.1.1-.3.1-.6 0-.8zm-1.9 1.2l-.4-1.6s1.4.1 1.6.6c.2.5-1.2 1-1.2 1z"/><path class="st0" d="M29.1 18.5s1.1.1 1.3.5c.2.4-1 .8-1 .8l-.3-1.3z"/><path class="st3" d="M30.9 18.8c-.3-.7-1.2-.9-1.8-.9l-.7.8.3 1.3.8.4c.4-.1 1.1-.4 1.3-.9.2-.2.2-.5.1-.7zm-1.5 1l-.3-1.3s1.1.1 1.3.5c.1.4-1 .8-1 .8z"/><path class="st0" d="M28.5 21s.9.1 1.1.4c.1.3-.8.6-.8.6l-.3-1z"/><path class="st3" d="M30 21.3c-.2-.6-1-.7-1.5-.7l-.5.6.3 1.1.6.4c.3-.1.9-.3 1.1-.7.1-.3.1-.5 0-.7zm-1.3.8l-.2-1.1s.9.1 1.1.4c0 .4-.9.7-.9.7z"/><path class="st3" d="M29.4 23.1c-.2-.6-1-.7-1.5-.7l-.6.6.3 1.1.6.4c.3-.1.9-.3 1.1-.7.1-.3.1-.5.1-.7zm-1.3.8l-.3-1.1s.9.1 1.1.4c.1.4-.8.7-.8.7z"/><linearGradient id="SVGID_3_" gradientUnits="userSpaceOnUse" x1="9.296" y1="15.109" x2="29.658" y2="15.109"><stop offset="0" stop-color="#B68451"/><stop offset=".199" stop-color="#A47341"/><stop offset=".495" stop-color="#906131"/><stop offset=".769" stop-color="#845729"/><stop offset="1" stop-color="#805327"/></linearGradient><path class="st4" d="M21.6 14.9s6-1.1 7.4.4-.1 2.2-.1 2.2.9 1.6-.5 3c0 0 .6 1.2-.4 2.1 0 0 .3 1.3-4 2.1S7.6 27.9 9.5 18.4s12-13.6 14.1-13.6v9.7l.9.2-2.9.2z"/><radialGradient id="SVGID_4_" cx="22.44" cy="5.741" r="7.978" gradientUnits="userSpaceOnUse"><stop offset="0" stop-color="#121212"/><stop offset="1"/></radialGradient><path class="st5" d="M20.9 4.8l2 9.5 1.2-.2S27-.2 20.9 4.8z"/><path class="st3" d="M29.7 14.5c-.6-.6-1.5-.9-2.9-.9-.5 0-1.1 0-1.8.1V4.8l-1.5-1.5C20.6 3.3 10 7.9 8 18.1c-.5 2.6-.1 4.7 1.1 6.2 1.4 1.7 3.9 2.6 7.3 2.6 2.6 0 5.4-.5 7.2-.8l.7-.1c2.6-.4 3.8-1 4.5-2.1.1-.2.2-.8.2-1 .6-.8.7-1.6.6-2.3.4-.7.6-1.3.5-1.8 0-.3-.2-.6 0-.8.2-.3.5-.6.5-1.1 0-.7.1-1.4-.9-2.4zm-.8 2.9s.9 1.6-.5 3c0 0 .6 1.2-.4 2.1 0 0 .3 1.3-4 2.1S7.6 27.9 9.5 18.4s12-13.6 14.1-13.6v9.7l-2 .4c2.8-.5 6.6-.4 7.2.3 1.4 1.5.1 2.2.1 2.2z"/><path class="st3" d="M23.8 14.6s-4.6.5-8.4 1.6c0 0 2.7-1.5 9.3-2.4l-.9.8z"/><path class="st3" d="M21 14.6s-3.4-.6-4.9-.1l3.4.6 1.5-.5zM28.4 22.5h-1.6l2.2-.6zM28.6 20.4l-2.1.3 2.5.2zM29.3 17.8l-2.6-.2 3.2-.5z"/><path class="st6" d="M28.1 22.5l-.2-.2s-3.7 1.9-12.5 2.2c-6.8.3-5.8-6.3-5-9.3-.4 1-.7 2-1 3.1-1.9 9.5 10.2 6.9 14.6 6.1 3.7-.5 4.1-1.6 4.1-1.9z"/></g></g></svg>