<svg id="Слой_1" xmlns="http://www.w3.org/2000/svg" xmlns:xlink="http://www.w3.org/1999/xlink" viewBox="0 0 160 37.9"><style>.st0{fill:url(#SVGID_1_);stroke:#060606;} .st1{clip-path:url(#SVGID_2_);} .st2{fill:url(#SVGID_3_);} .st3{fill:#060606;} .st4{fill:url(#SVGID_4_);stroke:#060606;stroke-width:3;} .st5{opacity:0.33;fill:url(#SVGID_5_);} .st6{fill:#FFFFFF;}</style><radialGradient id="SVGID_1_" cx="20.844" cy="9.889" r="16.936" gradientUnits="userSpaceOnUse"><stop offset="0" stop-color="#373638"/><stop offset="1" stop-color="#060606"/></radialGradient><path class="st0" d="M13.4 22c0 .8.7 1.5 1.5 1.5h19c.9 0 1.5-.7 1.5-1.5V3c0-.8-.7-1.5-1.5-1.5h-19c-.9 0-1.5.7-1.5 1.5v19z"/><defs><path id="SVGID_6_" d="M0 35.3c0 1.4 1.1 2.5 2.5 2.5H33c1.4 0 2.5-1.1 2.5-2.5V4.1c0-1.4-1.1-2.5-2.5-2.5H2.5C1.1 1.5 0 2.7 0 4.1v31.2z"/></defs><clipPath id="SVGID_2_"><use xlink:href="#SVGID_6_" overflow="visible"/></clipPath><g class="st1"><linearGradient id="SVGID_3_" gradientUnits="userSpaceOnUse" x1="-1978.369" y1="238.257" x2="-1972.114" y2="238.257" gradientTransform="matrix(-1 .13 .13 1 -1962.89 16.61)"><stop offset="0" stop-color="#015F9D"/><stop offset=".022" stop-color="#0C66A3"/><stop offset=".085" stop-color="#1877B3"/><stop offset=".151" stop-color="#1E88C2"/><stop offset=".222" stop-color="#2296CE"/><stop offset=".298" stop-color="#26A0D8"/><stop offset=".385" stop-color="#28A6DE"/><stop offset=".505" stop-color="#28A8E0"/><stop offset=".588" stop-color="#31A9E0"/><stop offset=".661" stop-color="#45ADE2"/><stop offset=".731" stop-color="#5EB3E4"/><stop offset=".799" stop-color="#7ABDE8"/><stop offset=".865" stop-color="#9CCCED"/><stop offset=".93" stop-color="#C6DFF4"/><stop offset=".994" stop-color="#F7FAFD"/><stop offset="1" stop-color="#FFF"/></linearGradient><path class="st2" d="M29.2 1.9l-5.8 1.5.2 1.2-.2 1.4.2 1.4.2 1.2.3 1c0 .2 5.3-1.8 5.1-7.7z"/><path class="st3" d="M22.3 6.1v.1l.2 1.4.2 1.2V9l.3 1 .3 1.1 1.1-.4c2.1-.8 6-3.7 5.8-8.9V.5l-1.3.3-5.8 1.5-.9.2.1.9.1 1.1V6l-.1.1zm1.1 0l.2-1.4-.2-1.2L29.2 2c.2 5.8-5.1 7.9-5.1 7.9l-.3-1-.2-1.2-.2-1.6z"/><linearGradient id="SVGID_4_" gradientUnits="userSpaceOnUse" x1="4.4" y1="16.787" x2="42.766" y2="16.787"><stop offset="0" stop-color="#28A8E0"/><stop offset=".196" stop-color="#28A5DD"/><stop offset=".37" stop-color="#259ED7"/><stop offset=".537" stop-color="#2193CC"/><stop offset=".698" stop-color="#1C83BE"/><stop offset=".855" stop-color="#1571AD"/><stop offset="1" stop-color="#015F9D"/></linearGradient><path class="st4" d="M32.4-.4S25 2.5 21.1 13.2s-8.3 12.2-16.7 8.2c0 0-.4 6.7 9.3 5.9 0 0-.5 5.2 2.1 8.2 0 0 2-2.3 3.7-10.4 0 0 11.8-4.4 14.8-12.7 3-8.3 8.5-7.9 8.5-7.9S38-5.7 32.4-.4z"/><radialGradient id="SVGID_5_" cx="31.989" cy="1.469" r="8.695" gradientUnits="userSpaceOnUse"><stop offset="0" stop-color="#121212"/><stop offset="1"/></radialGradient><path class="st5" d="M31.4.1c-.7.4-1.6 1-2.7 1.9 1.7-.1 6.6.1 7 7.4.5-1 1.1-1.7 1.7-2.4.3-3.9-.7-9.1-6-6.9z"/><path class="st3" d="M32 2.3s.1 12 2.7 6.3c0 0-1.8 2.1-2.7-6.3z"/><path class="st6" d="M17.2 22.8s1.4 5.3-1.2 10.4c0 0-1.8-3.5-1.2-7.2 0 0-6.2.9-8-1.9 0 0 7.3 3.1 10.4-1.3zM28.3 3.6s-5.1 3.9-8 15c0 0 5.2-13 8-15z"/></g><g><path class="st6" d="M40.6 22.3c0-.6.4-1.1 1.1-1.1.3 0 .5.1.9.3 1.1.9 2.3 1.4 3.6 1.4 3.1 0 4.1-1.9 4.1-4.3V17c-.9 1.3-2.5 2-4.1 2-3.6 0-5.9-2.7-5.9-6.1 0-3.4 2.3-6.1 5.9-6.1 1.7 0 3.4.7 4.2 2.2v-.8c0-1.1.8-1.2 1.1-1.2.3 0 1.1.2 1.1 1.2v10.1c0 3.4-1.6 6.6-6.5 6.6-1.8 0-3.7-.6-4.9-1.6-.4-.4-.6-.7-.6-1zm5.9-5.2c2.4 0 4-1.8 4-4.1 0-2.2-1.6-4.1-4-4.1-2.5 0-3.9 1.9-3.9 4.1 0 2.1 1.5 4.1 3.9 4.1zM56.9 9.2c.6-1.3 2-2.3 3.5-2.3.7 0 1.4.3 1.4 1 0 .8-.6 1.1-1.4 1.1h-.2c-1.8 0-3.2 1.4-3.2 3.9v4.9c0 1.1-.8 1.3-1.2 1.3-.4 0-1.2-.2-1.2-1.3V8.2c0-1.1.7-1.2 1.1-1.2.3 0 1.1.2 1.1 1.2v1zM69.8 17.3c-.9 1.3-2.3 2-4 2-1.9 0-4.3-.9-4.3-3.6 0-3.6 4.2-4 8.2-4v-.3c0-1.7-1.2-2.6-2.9-2.6-1 0-1.9.3-2.8.9-.2.2-.5.2-.7.2-.5 0-.9-.4-.9-.9 0-.3.1-.6.5-.9 1-.7 2.5-1.2 4.1-1.2 3.4 0 4.9 2 4.9 4.6V18c0 1-.7 1.2-1 1.2-.3 0-1.1-.2-1.1-1.2v-.7zm-.7-3.9c-2.3 0-5.2.2-5.2 2.2 0 1.4 1.2 1.8 2.4 1.8 2.2 0 3.4-1.5 3.4-3.5v-.6h-.6zM80.4 19.3c-1.7 0-3.3-.8-4.1-2.1h-.1v6.6c0 1.1-.8 1.3-1.2 1.3-.4 0-1.2-.2-1.2-1.3V8.3c.1-1.1.8-1.3 1.2-1.3.4 0 1.1.2 1.1 1.3V9h.1c.8-1.2 2.3-2.2 4.2-2.2 3.5 0 5.9 2.7 5.9 6.2s-2.3 6.3-5.9 6.3zM80 8.8c-2.4 0-4 2-4 4.3s1.6 4.2 4 4.2c2.6 0 3.9-2.1 3.9-4.3S82.6 8.8 80 8.8zM95.8 12.5c0-1.9-.5-3.6-2.7-3.6-1.8 0-3.2 1.5-3.2 3.9v5.1c0 1.1-.8 1.3-1.2 1.3-.4 0-1.2-.2-1.2-1.3V1.3c0-1.1.8-1.3 1.2-1.3.5 0 1.3.2 1.3 1.3V9c.5-1.2 2-2.1 3.7-2.1 3 0 4.4 2.2 4.4 4.8v6.2c0 1.1-.8 1.3-1.2 1.3-.4 0-1.2-.2-1.2-1.3v-5.4zM101.3 4.4c-.8 0-1.5-.7-1.5-1.5s.7-1.5 1.5-1.5 1.6.6 1.6 1.5-.7 1.5-1.6 1.5zm1.2 13.5c0 1.1-.8 1.3-1.2 1.3-.4 0-1.2-.2-1.2-1.3V8.3c0-1.1.8-1.3 1.2-1.3.4 0 1.2.2 1.2 1.3v9.6zM113.2 16.2c.6 0 1 .4 1 .9 0 .3-.1.6-.5 1-.9.8-2.2 1.1-3.5 1.1-3.7 0-6.3-2.5-6.3-6.2s2.7-6.2 6.3-6.2c1.2 0 2.5.3 3.5 1.1.4.3.6.7.6 1 0 .6-.4 1-1 1-.2 0-.5-.1-.9-.4-.4-.4-1.2-.7-2.1-.7-2.4 0-3.8 2-3.8 4.2s1.4 4.2 3.8 4.2c.9 0 1.7-.3 2.3-.8.1-.1.3-.2.6-.2zM118.1 9.2c.6-1.3 2-2.3 3.5-2.3.7 0 1.4.3 1.4 1 0 .8-.6 1.1-1.4 1.1h-.2c-1.8 0-3.2 1.4-3.2 3.9v4.9c0 1.1-.8 1.3-1.2 1.3-.4 0-1.2-.2-1.2-1.3V8.2c0-1.1.7-1.2 1.1-1.2.3 0 1.1.2 1.1 1.2v1zM125.5 4.4c-.8 0-1.5-.7-1.5-1.5s.7-1.5 1.5-1.5 1.5.7 1.5 1.6c0 .8-.7 1.4-1.5 1.4zm1.1 13.5c0 1.1-.8 1.3-1.2 1.3-.4 0-1.2-.2-1.2-1.3V8.3c0-1.1.8-1.3 1.2-1.3.4 0 1.2.2 1.2 1.3v9.6zM133.9 19.2c-.5 0-1.3-.2-1.7-1.3l-3.8-9.1c-.1-.3-.1-.5-.1-.7 0-.6.5-1.1 1.2-1.1.4 0 .9.1 1.2.9l3.4 8.5 3.4-8.5c.3-.8.8-.9 1.2-.9.6 0 1.1.5 1.1 1.1 0 .1 0 .3-.1.6l-3.9 9.1c-.6 1.2-1.4 1.4-1.9 1.4zM142.3 13.8c.1 2 1.8 3.6 3.8 3.6 1.4 0 2.3-.6 3-1.3.3-.3.6-.4.8-.4.5 0 1 .4 1 1 0 .2-.1.5-.4.8-1.1 1.2-2.6 1.8-4.5 1.8-3.6 0-6.2-2.5-6.2-6.2s2.6-6.2 6.1-6.2c3 0 5.1 1.7 5.6 4.9v.8c0 .8-.4 1.2-1.2 1.2h-8zm7-1.8c0-1.9-1.1-3.3-3.3-3.3-2 0-3.6 1.5-3.7 3.3h7zM155.1 9.2c.6-1.3 2-2.3 3.5-2.3.7 0 1.4.3 1.4 1 0 .8-.6 1.1-1.4 1.1h-.2c-1.8 0-3.2 1.4-3.2 3.9v4.9c0 1.1-.8 1.3-1.2 1.3-.4 0-1.2-.2-1.2-1.3V8.2c0-1.1.7-1.2 1.1-1.2.3 0 1.1.2 1.1 1.2v1z"/></g></svg>