<svg id="Слой_1" xmlns="http://www.w3.org/2000/svg" xmlns:xlink="http://www.w3.org/1999/xlink" viewBox="0 0 160.5 30"><style>.st0{fill:#FFFFFF;} .st1{fill:url(#SVGID_1_);stroke:#060606;} .st2{clip-path:url(#SVGID_2_);} .st3{fill:url(#SVGID_4_);} .st4{fill:#231F20;} .st5{fill:#060606;}</style><path class="st0" d="M41.5 19.4c-1 1.4-2.5 2.2-4.5 2.2-2.1 0-4.8-1-4.8-4.1 0-4 4.7-4.5 9.2-4.5v-.4c0-2-1.3-2.9-3.3-2.9-1.1 0-2.1.4-3.1 1-.3.2-.6.3-.8.3-.6 0-1-.4-1-1 0-.4.1-.7.6-1 1.1-.8 2.8-1.4 4.6-1.4 3.8 0 5.5 2.3 5.5 5.2v7.3c0 1.1-.8 1.3-1.2 1.3-.4 0-1.2-.2-1.2-1.3v-.7zm-.8-4.4c-2.6 0-5.9.3-5.9 2.5 0 1.6 1.4 2.1 2.7 2.1 2.5 0 3.8-1.6 3.8-3.9V15h-.6zM54.8 19.2c-.7 1.4-2.5 2.5-4.4 2.5-3.4 0-4.9-2.4-4.9-5.4v-7c0-1.2.9-1.5 1.3-1.5s1.3.2 1.3 1.5v6.1c0 2.1.6 4 3 4 2.1 0 3.5-1.7 3.5-4.4V9.3c0-1.2.9-1.5 1.3-1.5s1.3.2 1.3 1.5v10.8c0 1.2-.8 1.4-1.2 1.4-.4 0-1.3-.2-1.3-1.4v-.9zM71.5 21.6c-.4 0-1.3-.2-1.3-1.4v-.9h-.1c-1 1.6-2.9 2.5-4.8 2.5-4.1 0-6.7-3.1-6.7-7s2.7-7 6.6-7c2.1 0 3.8 1.1 4.7 2.3h.1V1.5C70.1.2 71 0 71.4 0c.4 0 1.3.2 1.3 1.5v18.7c0 1.2-.8 1.4-1.2 1.4zm-5.7-2.1c2.7 0 4.5-2.2 4.5-4.8s-1.8-4.8-4.5-4.8c-2.9 0-4.4 2.3-4.4 4.8s1.5 4.8 4.4 4.8zM76.3 5c-.9 0-1.7-.8-1.7-1.7 0-.9.8-1.7 1.7-1.7.9 0 1.8.7 1.8 1.7S77.3 5 76.3 5zm1.3 15.1c0 1.2-.9 1.5-1.3 1.5s-1.3-.2-1.3-1.5V9.3c0-1.2.9-1.5 1.3-1.5s1.3.2 1.3 1.5v10.8zM86.7 21.7c-4 0-7.1-2.9-7.1-7s3.1-7 7.1-7c4 0 7.1 2.9 7.1 7 .1 4.1-3 7-7.1 7zm0-11.8c-2.8 0-4.4 2.3-4.4 4.8s1.6 4.8 4.4 4.8c2.8 0 4.4-2.3 4.4-4.8s-1.5-4.8-4.4-4.8zM95.9 9.3c0-1.2.9-1.5 1.3-1.5s1.3.2 1.3 1.5V23c0 2.7-.8 5-4.2 5-1.1 0-1.7-.4-1.7-1.2 0-.6.4-1.1 1.1-1.1h.3c1.5 0 1.8-1.1 1.8-2.7V9.3zM97.2 5c-1 0-1.8-.8-1.8-1.7 0-.9.8-1.7 1.8-1.7.9 0 1.8.7 1.8 1.7-.1 1-.9 1.7-1.8 1.7zM109.5 19.2c-.7 1.4-2.5 2.5-4.4 2.5-3.4 0-4.9-2.4-4.9-5.4v-7c0-1.2.9-1.5 1.3-1.5s1.3.2 1.3 1.5v6.1c0 2.1.6 4 3 4 2.1 0 3.5-1.7 3.5-4.4V9.3c0-1.2.9-1.5 1.3-1.5s1.3.2 1.3 1.5v10.8c0 1.2-.8 1.4-1.2 1.4-.4 0-1.3-.2-1.3-1.4v-.9zM116.2 10.3c.7-1.4 2.5-2.5 4.4-2.5 3.4 0 4.9 2.4 4.9 5.4v7c0 1.2-.9 1.5-1.3 1.5s-1.3-.2-1.3-1.5V14c0-2.1-.6-4-3-4-2.1 0-3.5 1.7-3.5 4.4v5.8c0 1.2-.9 1.5-1.3 1.5s-1.3-.2-1.3-1.5V9.3c0-1.2.8-1.4 1.3-1.4.4 0 1.2.2 1.2 1.4v1zM127.4 25c0-.6.5-1.2 1.2-1.2.3 0 .6.1 1 .4 1.3 1 2.6 1.5 4 1.5 3.5 0 4.7-2.1 4.7-4.9v-1.7h-.1c-1 1.5-2.8 2.3-4.7 2.3-4 0-6.7-3-6.7-6.8s2.6-6.9 6.6-6.9c1.9 0 3.8.8 4.8 2.5h.1v-.9c0-1.2.9-1.4 1.3-1.4s1.3.2 1.3 1.4v11.4c0 3.9-1.8 7.4-7.3 7.4-2 0-4.1-.7-5.6-1.8-.5-.5-.6-.9-.6-1.3zm6.6-5.8c2.7 0 4.5-2 4.5-4.7 0-2.5-1.8-4.7-4.5-4.7-2.8 0-4.4 2.1-4.4 4.7 0 2.5 1.6 4.7 4.4 4.7zM143.2 1.5c0-1.2.9-1.5 1.3-1.5s1.3.2 1.3 1.5v18.6c0 1.2-.9 1.5-1.3 1.5s-1.3-.2-1.3-1.5V1.5zM150 15.5c.1 2.3 2 4 4.3 4 1.6 0 2.6-.7 3.4-1.4.4-.3.6-.4.9-.4.6 0 1.1.4 1.1 1.1 0 .2-.1.6-.4.9-1.3 1.3-2.9 2-5 2-4 0-7-2.8-7-7 0-4.1 3-7 6.8-7 3.3 0 5.8 1.9 6.3 5.6.1.4.1.6.1.9 0 .9-.5 1.3-1.4 1.3H150zm7.9-2c-.1-2.1-1.3-3.7-3.7-3.7-2.3 0-4 1.7-4.2 3.7h7.9z"/><radialGradient id="SVGID_1_" cx="8.863" cy="11.078" r="19.036" gradientUnits="userSpaceOnUse"><stop offset="0" stop-color="#373638"/><stop offset="1" stop-color="#060606"/></radialGradient><path class="st1" d="M.5 24.7c0 1 .8 1.7 1.7 1.7h21.3c1 0 1.7-.8 1.7-1.7V3.4c0-1-.8-1.7-1.7-1.7H2.2c-1 0-1.7.8-1.7 1.7v21.3z"/><g><defs><path id="SVGID_3_" d="M29.3 28.1c0 1.1-.9 2-2 2H2.8c-1.1 0-2-.9-2-2V3.8c0-1.1.9-2 2-2h24.4c1.1 0 2 .9 2 2v24.3z"/></defs><clipPath id="SVGID_2_"><use xlink:href="#SVGID_3_" overflow="visible"/></clipPath><g class="st2"><path class="st0" d="M25 22h-2.8l1.3 4z"/><linearGradient id="SVGID_4_" gradientUnits="userSpaceOnUse" x1="21.834" y1="10.121" x2="1.267" y2="22.763"><stop offset="0" stop-color="#B0D04E"/><stop offset=".995" stop-color="#5C8F41"/></linearGradient><path class="st3" d="M16.6-2.3c1.3-.2 2.5.7 2.7 2 .2 1.3-.7 2.5-2 2.7-7 1.1-11.7 7.7-10.6 14.6.4 2.3 1.6 4.3 3.5 5.7 1.9 1.4 4.2 1.9 6.5 1.5 2.5-.4 4.8-2.9 4.8-5.4 0-2.9-2.8-4.5-5.5-4.5-.7 0-1.5.1-2.2.4-.7.2-1.5.2-1.7-.7-.2-.8.5-1.5 1-2l.2-.2c.9-.8 2.1-1.4 3.4-1.6 2.2-.3 4.4.2 6.1 1.5 1.8 1.3 3 3.2 3.3 5.4.4 2.8-.2 5.5-1.9 7.8-1.6 2.3-4.1 3.7-6.8 4.2-3.6.6-7.1-.3-10-2.4-2.9-2.1-4.8-5.2-5.4-8.8C.5 8.3 7.1-.7 16.6-2.3z"/><path class="st4" d="M7.1 27.1c-3-2.2-5-5.4-5.6-9.1-.2-1-.2-1.9-.2-2.8 0-8.7 6.4-16.5 15.3-17.9h.5c1.4 0 2.6 1 2.9 2.5v.5c0 1.4-1 2.6-2.5 2.9-6 1-10.4 6.2-10.4 12.1 0 .6 0 1.3.2 1.9.3 2.2 1.5 4 3.3 5.3 1.4 1 3.1 1.6 4.8 1.6.4 0 .9 0 1.3-.1 1.1-.2 2.2-.8 3-1.8.8-.9 1.3-2.1 1.3-3.2v-.1c0-1.3-.6-2.2-1.5-2.9-.9-.7-2.2-1-3.4-1-.7 0-1.4.1-2 .3-.3.1-.5.1-.8.1-.3 0-.7-.1-1-.3-.3-.2-.5-.5-.6-1v-.4c0-1 .7-1.7 1.2-2.1l.2-.2c1-.9 2.2-1.5 3.6-1.7.3-.1.8-.1 1.3-.1 1.8 0 3.6.6 5.1 1.7 1.9 1.4 3.1 3.4 3.5 5.7.1.6.1 1.2.1 1.7 0 2.3-.7 4.5-2.1 6.4-1.7 2.4-4.3 3.9-7.2 4.4-.7.1-1.5.2-2.2.2-2.8 0-5.7-.9-8.1-2.6zm9.6-28.8C8.3-.4 2.3 6.9 2.3 15.1c0 .9.1 1.8.2 2.7.5 3.4 2.4 6.4 5.2 8.4 2.2 1.6 4.9 2.5 7.6 2.5.7 0 1.4-.1 2.1-.2 2.6-.4 4.9-1.8 6.5-4 1.2-1.7 1.9-3.7 1.9-5.8 0-.5 0-1.1-.1-1.6-.3-2-1.4-3.8-3.1-5.1-1.3-1-2.9-1.5-4.5-1.5-.4 0-.8 0-1.2.1-1.2.2-2.2.7-3.1 1.5l-.2.2c-.4.4-.9 1-.9 1.4v.1c0 .2.1.3.2.3.1.1.2.1.4.1.1 0 .3 0 .5-.1.8-.3 1.5-.4 2.3-.4 1.4 0 2.9.4 4 1.2 1.1.8 2 2.1 2 3.7v.1c0 1.4-.6 2.8-1.6 3.9s-2.2 1.9-3.7 2.1c-.5.1-1 .1-1.5.1-1.9 0-3.8-.6-5.4-1.8-2-1.4-3.3-3.6-3.7-6-.1-.7-.2-1.4-.2-2.1C6.1 8.7 10.8 3 17.3 2c.9-.1 1.6-.9 1.6-1.8v-.3c-.1-.9-.9-1.6-1.8-1.6-.2-.1-.3-.1-.4 0l-.1-.5.1.5z"/><circle class="st0" cx="16.6" cy="12.2" r="1"/><path class="st0" d="M22.3 24.2l.3 1 .3.9.7-.7.7-.7-1-.3zM18.3 26.9l-.3 1-.4.9 1-.2 1-.2-.6-.7zM13 27.1l-.7.7-.6.8.9.2 1 .2-.3-1zM8.3 24.9l-.9.3-1 .3.8.7.8.7.1-1zM4.9 21.1l-1-.1-1-.1.5.9.4.9.6-.8z"/><g><path class="st5" d="M7.1 27.1c-3-2.2-5-5.4-5.6-9.1-.2-1-.2-1.9-.2-2.8 0-8.7 6.4-16.5 15.3-17.9h.5c1.4 0 2.6 1 2.9 2.5v.5c0 1.4-1 2.6-2.5 2.9-6 1-10.4 6.2-10.4 12.1 0 .6 0 1.3.2 1.9.3 2.2 1.5 4 3.3 5.3 1.4 1 3.1 1.6 4.8 1.6.4 0 .9 0 1.3-.1 1.1-.2 2.2-.8 3-1.8.8-.9 1.3-2.1 1.3-3.2v-.1c0-1.3-.6-2.2-1.5-2.9-.9-.7-2.2-1-3.4-1-.7 0-1.4.1-2 .3-.3.1-.5.1-.8.1-.3 0-.7-.1-1-.3-.3-.2-.5-.5-.6-1v-.4c0-1 .7-1.7 1.2-2.1l.2-.2c1-.9 2.2-1.5 3.6-1.7.3-.1.8-.1 1.3-.1 1.8 0 3.6.6 5.1 1.7 1.9 1.4 3.1 3.4 3.5 5.7.1.6.1 1.2.1 1.7 0 2.3-.7 4.5-2.1 6.4-1.7 2.4-4.3 3.9-7.2 4.4-.7.1-1.5.2-2.2.2-2.8 0-5.7-.9-8.1-2.6zm9.6-28.8C8.3-.4 2.3 6.9 2.3 15.1c0 .9.1 1.8.2 2.7.5 3.4 2.4 6.4 5.2 8.4 2.2 1.6 4.9 2.5 7.6 2.5.7 0 1.4-.1 2.1-.2 2.6-.4 4.9-1.8 6.5-4 1.2-1.7 1.9-3.7 1.9-5.8 0-.5 0-1.1-.1-1.6-.3-2-1.4-3.8-3.1-5.1-1.3-1-2.9-1.5-4.5-1.5-.4 0-.8 0-1.2.1-1.2.2-2.2.7-3.1 1.5l-.2.2c-.4.4-.9 1-.9 1.4v.1c0 .2.1.3.2.3.1.1.2.1.4.1.1 0 .3 0 .5-.1.8-.3 1.5-.4 2.3-.4 1.4 0 2.9.4 4 1.2 1.1.8 2 2.1 2 3.7v.1c0 1.4-.6 2.8-1.6 3.9s-2.2 1.9-3.7 2.1c-.5.1-1 .1-1.5.1-1.9 0-3.8-.6-5.4-1.8-2-1.4-3.3-3.6-3.7-6-.1-.7-.2-1.4-.2-2.1C6.1 8.7 10.8 3 17.3 2c.9-.1 1.6-.9 1.6-1.8v-.3c-.1-.9-.9-1.6-1.8-1.6-.2-.1-.3-.1-.4 0l-.1-.5.1.5z"/></g></g></g></svg>