<svg id="Слой_1" xmlns="http://www.w3.org/2000/svg" viewBox="0 0 160 35.1"><style>.st0{fill:#FFFFFF;} .st1{fill:url(#SVGID_1_);stroke:#060606;} .st2{fill:#090909;} .st3{fill:#060606;} .st4{fill:url(#SVGID_2_);} .st5{fill:#194F52;} .st6{opacity:0.97;fill:url(#SVGID_3_);} .st7{opacity:0.97;fill:url(#SVGID_4_);} .st8{opacity:0.47;} .st9{fill:#231F20;}</style><path class="st0" d="M45 24c-1.9 0-3.7-.9-4.6-2.3h-.1v7.4c0 1.2-.9 1.4-1.3 1.4s-1.3-.2-1.3-1.4V11.6c0-1.2.9-1.4 1.3-1.4s1.3.2 1.3 1.4v.9h.1c.9-1.4 2.6-2.4 4.7-2.4 3.9 0 6.6 3 6.6 6.9-.1 3.9-2.7 7-6.7 7zm-.5-11.7c-2.7 0-4.4 2.2-4.4 4.8s1.8 4.7 4.4 4.7c2.9 0 4.4-2.3 4.4-4.8s-1.5-4.7-4.4-4.7zM62.2 16.3c0-2.1-.6-4-3-4-2.1 0-3.6 1.7-3.6 4.3v5.7c0 1.2-.9 1.4-1.3 1.4s-1.3-.2-1.3-1.4V3.8c0-1.2.9-1.4 1.3-1.4s1.3.2 1.3 1.4v8.6h.1c.6-1.3 2.3-2.4 4.2-2.4 3.4 0 4.9 2.4 4.9 5.4v6.9c0 1.2-.9 1.4-1.3 1.4s-1.3-.2-1.3-1.4v-6zM73.2 24c-4 0-7.1-2.9-7.1-7s3.1-6.9 7.1-6.9c4 0 7.1 2.9 7.1 6.9 0 4.1-3 7-7.1 7zm0-11.7c-2.8 0-4.4 2.2-4.4 4.7s1.6 4.8 4.4 4.8c2.8 0 4.4-2.3 4.4-4.8s-1.5-4.7-4.4-4.7zM86 23.8c-2.5 0-3.8-1.4-3.8-4.1V7.9c0-1.2.9-1.4 1.3-1.4s1.3.2 1.3 1.4v2.6h2.5c1 0 1.2.7 1.2 1.1 0 .3-.2 1.1-1.2 1.1h-2.5v6.9c0 1.6.6 2.2 1.6 2.2.2 0 .4 0 .6-.1.2-.1.4-.1.5-.1.6 0 1 .5 1 1 0 .4-.2.8-.7 1-.5.1-1.2.2-1.8.2zM96 24c-4 0-7.1-2.9-7.1-7s3.1-6.9 7.1-6.9c4 0 7.1 2.9 7.1 6.9 0 4.1-3.1 7-7.1 7zm0-11.7c-2.8 0-4.4 2.2-4.4 4.7s1.6 4.8 4.4 4.8c2.8 0 4.4-2.3 4.4-4.8s-1.6-4.7-4.4-4.7zM116.9 23.8c-.4 0-1.3-.2-1.3-1.4v-.9h-.1c-1 1.6-2.9 2.4-4.7 2.4-4.1 0-6.6-3.1-6.6-7s2.7-6.9 6.6-6.9c2.1 0 3.8 1.1 4.7 2.3h.1V3.8c0-1.2.9-1.4 1.3-1.4s1.3.2 1.3 1.4v18.6c-.1 1.2-1 1.4-1.3 1.4zm-5.7-2c2.7 0 4.4-2.2 4.4-4.7s-1.8-4.8-4.4-4.8c-2.9 0-4.4 2.3-4.4 4.7.1 2.5 1.6 4.8 4.4 4.8zM129.6 21.4c-.7 1.4-2.5 2.5-4.4 2.5-3.4 0-4.9-2.4-4.9-5.4v-6.9c0-1.2.9-1.4 1.3-1.4s1.3.2 1.3 1.4v6.1c0 2.1.6 4 3 4 2.1 0 3.5-1.7 3.5-4.3v-5.8c0-1.2.9-1.4 1.3-1.4s1.3.2 1.3 1.4v10.8c0 1.2-.8 1.4-1.2 1.4-.4 0-1.2-.2-1.2-1.4v-1zM136.3 12.6c.7-1.4 2.5-2.5 4.4-2.5 3.4 0 4.9 2.4 4.9 5.4v6.9c0 1.2-.9 1.4-1.3 1.4s-1.3-.2-1.3-1.4v-6.1c0-2.1-.6-4-3-4-2.1 0-3.5 1.7-3.5 4.3v5.8c0 1.2-.9 1.4-1.3 1.4s-1.3-.2-1.3-1.4V11.6c0-1.2.8-1.4 1.2-1.4.4 0 1.2.2 1.2 1.4v1zM149.6 17.8c.1 2.2 2 4 4.3 4 1.6 0 2.6-.7 3.4-1.4.4-.3.6-.4.9-.4.6 0 1.1.4 1.1 1.1 0 .2-.1.6-.4.9-1.3 1.3-2.9 2-5 2-4 0-6.9-2.8-6.9-6.9 0-4.1 2.9-7 6.8-7 3.3 0 5.7 1.9 6.2 5.5.1.4.1.6.1.9 0 .9-.5 1.3-1.4 1.3h-9.1zm7.8-1.9c-.1-2.1-1.3-3.7-3.7-3.7-2.2 0-4 1.7-4.1 3.7h7.8z"/><radialGradient id="SVGID_1_" cx="-66.051" cy="-4.53" r="61.789" gradientTransform="matrix(.4 0 0 .4 48.03 10.54)" gradientUnits="userSpaceOnUse"><stop offset="0" stop-color="#373638"/><stop offset="1" stop-color="#060606"/></radialGradient><path class="st1" d="M4.9 26.9c0 1 .8 1.7 1.7 1.7h21.2c1 0 1.7-.8 1.7-1.7V5.7c0-1-.8-1.7-1.7-1.7H6.6c-1 0-1.7.8-1.7 1.7v21.2z"/><g><path class="st2" d="M26.1 24.9c-.8 4.3.2 3.9.2 3.9l1-5-2-4.6-.8 1.5M32.9 9.5c-1 .5-2.6 2.5-2.6 2.5-.9-.3-3.7.1-3.7.1l.2 1.2 3.6-.6c3.2-3.2 2.5-3.2 2.5-3.2zM22.5 18.7l.6 1.3-2.4 3.1-1.1 4.4-4.7 5.5c-4.2 1.4-3.7 2.1-3.7 2.1.6-.5 3.2-1.1 3.9-1.5.7-.4 5.7-5.7 5.7-5.7l2.3-7.8 1.2 2.8M18.9 3.1v3.6h1.2S20 3.9 19.6 3c0 0 1.8-2 2-3 .1.1 0-.7-2.7 3.1zm-7 7.9l1.3-1-4.9-1.2-4.7 1.9s-.3 1 3.9-.5m3.5 1.4l2.9.9-7.6 3S1.5 21 1.2 21.7c-.3.7-.7 3.4-1.2 4 0 0 .8.4 1.8-3.9l5-5.1 4.3-1.5 2.8-2.7 1.4.4"/><g><path class="st3" d="M26.7 11.3s1-2.3-1.1-4.3c-.1 0-.1-.1-.2-.1l-.1-.1c-2.4-1.7-4.5-.3-4.5-.3C-1 9.2 7.6 23.1 7.6 23.1c.7 1.8 1.2 2.6 1.4 2.9 0 0 0 .1.1.1.1.1.2.1.2.1.4.2 1.2.5 3.1.9.1.1 15.2 6.3 14.3-15.8z"/><path class="st3" d="M26.2 7c1.7 1.9 1.1 4 .9 4.4.3 7.1-1.1 11.4-3.2 13.9-4.3 5-11 2.5-11.6 2.3-1.8-.4-2.6-.7-3.1-.9-.1 0-.2-.1-.3-.2-.1-.1-.2-.2-.2-.3-.3-.4-.8-1.2-1.4-2.9-.3-.6-3.9-6.7.3-11.8C9.7 9 13.6 6.9 20.7 6c.4-.3 2.3-1.2 4.5.2m-.1.9c-1.6-1.2-3-.8-3.7-.5-.2.1-.3.2-.3.2h-.2c-7 .9-10.8 2.9-12.7 5.2-3 3.5-1.6 7.8-.7 9.8.3.7.5 1 .5 1 .7 1.8 1.1 2.5 1.4 2.8l.1.1h.1c.3.2 1.1.5 3 .9 0 0 .4.2 1.1.3.7.2 1.7.4 2.7.4 2.2.1 4.8-.4 6.8-2.8 1.9-2.3 3.3-6.3 3-13.4h.4l.4.2-.4-.2h-.4v-.2s0-.1.1-.3c.1-.2.1-.5.1-.9 0-.7-.2-1.7-1.2-2.6l-.1-.1v.1z"/><path class="st3" d="M20.5 6.1s3.2 4.1 6.6 5.6l-.1.6s-2.2-1.2-3.8-1.7c-1.6-.5-1.7-2.5-3.1-4.2l.4-.3z"/><radialGradient id="SVGID_2_" cx="-81.488" cy="-5.86" r="41.511" gradientTransform="matrix(.4 0 0 .4 48.03 10.54)" gradientUnits="userSpaceOnUse"><stop offset="0" stop-color="#76CAD0"/><stop offset=".724" stop-color="#118594"/><stop offset="1" stop-color="#13647A"/></radialGradient><path class="st4" d="M25.5 12.8c-.6-1.4-3-1.1-5.8-.1 1-2.5 1.3-4.5-.2-4.9 0 0-16 1-11.9 13.1.1.3.2.7.4 1.1.1.2.1.3.2.5l.4.4c1.5 1.9 4.2 3.5 4.2 3.5 14.6 3.7 12.7-13.6 12.7-13.6z"/><path class="st5" d="M27.8 7.4s.5 1.4.1 2.6c0 0 1-.2.8-1.2-.1-1.1-.1-1.5-.9-1.4zM24 4.8s-1.5-.2-2.5.4c0 0 0-1 1-1.1.9 0 1.4-.1 1.5.7z"/><path class="st3" d="M21.5 7.5c.8 0 2-1.2.7-1.2-.8 0-2 1.2-.7 1.2z"/><path class="st3" d="M21 6.4c.1.1.2.1.3.2.5.5 2.3-.2 1.8-.8-.2-.2-.3-.3-.5-.4-.4-.2-1-.1-1.4.2-.3.2-.6.6-.2.8z"/><path class="st3" d="M15.9 8s.7 7.8 9.9 7.6c0 0 2.1-11.2-9.9-7.6z"/><linearGradient id="SVGID_3_" gradientUnits="userSpaceOnUse" x1="18.971" y1="7.551" x2="24.033" y2="14.544"><stop offset="0" stop-color="#7ECBC4"/><stop offset=".758" stop-color="#118594"/><stop offset="1" stop-color="#0F748A"/></linearGradient><path class="st6" d="M16.9 8s.6 7 8.7 6.8c0 0 .6-3.5-2.1-5.5-1.3-.9-3.2-2.3-6.6-1.3z"/><linearGradient id="SVGID_4_" gradientUnits="userSpaceOnUse" x1="22.354" y1="5.172" x2="25.451" y2="10.567"><stop offset="0" stop-color="#62C3B2"/><stop offset=".758" stop-color="#118594"/><stop offset="1" stop-color="#0F748A"/></linearGradient><path class="st7" d="M21.3 6.5s2.2-1 3.8.6c1.6 1.6 1.7 2.4 1.4 3.6-.3 1.2.9-.4-5.2-4"/><g><path class="st8 st0" d="M15.3 10.2c-.3.1-.6.3-.8.5-.2.2-.5.4-.7.6l-1.4 1.2-1.5 1.2c-.5.4-1.1.8-1.8 1 .2-.7.5-1.3.9-1.9.4-.6.8-1.1 1.4-1.5l.9-.6c.2-.1.3-.2.5-.3l.2-.1h.1l.1-.1c.3-.1.7-.3 1.1-.3.2.1.7.1 1 .3z"/></g><g><path class="st9" d="M19.8 14.2l-9.6 11.1L18.3 13z"/></g></g></g></svg>