<svg id="Слой_1" xmlns="http://www.w3.org/2000/svg" xmlns:xlink="http://www.w3.org/1999/xlink" viewBox="0 0 160 25.6"><style>.st0{fill:#FFFFFF;} .st1{fill:url(#SVGID_1_);stroke:#060606;} .st2{clip-path:url(#SVGID_3_);fill:#FFFFFF;} .st3{clip-path:url(#SVGID_3_);fill:#E6E6E6;} .st4{clip-path:url(#SVGID_3_);fill:url(#SVGID_4_);} .st5{clip-path:url(#SVGID_3_);fill:#060606;} .st6{clip-path:url(#SVGID_3_);} .st7{fill:url(#SVGID_5_);} .st8{opacity:0.8;fill:#FFFFFF;} .st9{fill:#1472BC;} .st10{clip-path:url(#SVGID_3_);fill:#231F20;}</style><path class="st0" d="M43.5 16.6c.6 0 1 .5 1 1 0 .3-.1.7-.6 1-.9.8-2.3 1.2-3.6 1.2-3.8 0-6.5-2.5-6.5-6.4 0-3.8 2.8-6.4 6.5-6.4 1.3 0 2.6.4 3.5 1.1.5.4.6.7.6 1 0 .6-.5 1-1.1 1-.3 0-.5-.1-.9-.5-.5-.4-1.2-.7-2.1-.7-2.5 0-4 2-4 4.4 0 2.3 1.4 4.3 3.9 4.3 1 0 1.7-.3 2.3-.8.5-.1.7-.2 1-.2zM51.9 19.8c-3.7 0-6.5-2.7-6.5-6.4S48.2 7 51.9 7s6.5 2.6 6.5 6.4c.1 3.8-2.8 6.4-6.5 6.4zm0-10.7c-2.6 0-4 2.1-4 4.4 0 2.3 1.5 4.4 4 4.4 2.6 0 4-2.1 4-4.4.1-2.4-1.4-4.4-4-4.4zM71.2 19.7c-.4 0-1.2-.2-1.2-1.3v-.8c-.9 1.5-2.7 2.2-4.4 2.2-3.7 0-6.1-2.9-6.1-6.4C59.5 9.8 62 7 65.6 7c2 0 3.5 1 4.3 2.1h.1V1.3c0-1.1.8-1.3 1.2-1.3.4 0 1.2.2 1.2 1.3v17.1c-.1 1.1-.9 1.3-1.2 1.3zM66 17.8c2.5 0 4.1-2 4.1-4.4S68.5 9.1 66 9.1c-2.6 0-4 2.1-4 4.4 0 2.2 1.4 4.3 4 4.3zM76.2 14.2c.1 2.1 1.8 3.7 3.9 3.7 1.5 0 2.4-.6 3.1-1.3.3-.3.6-.4.8-.4.6 0 1 .4 1 1 0 .2-.1.5-.4.9-1.2 1.2-2.7 1.8-4.6 1.8-3.7 0-6.4-2.6-6.4-6.4 0-3.8 2.7-6.4 6.3-6.4 3 0 5.3 1.8 5.7 5.1.1.4.1.5.1.8 0 .8-.4 1.2-1.3 1.2h-8.2zm7.2-1.8c0-1.9-1.2-3.4-3.4-3.4-2.1 0-3.7 1.5-3.8 3.4h7.2zM96.5 16.6c.6 0 1 .5 1 1 0 .3-.1.7-.6 1-.9.8-2.3 1.2-3.6 1.2-3.8 0-6.5-2.5-6.5-6.4 0-3.8 2.8-6.4 6.5-6.4 1.3 0 2.6.4 3.5 1.1.5.4.6.7.6 1 0 .6-.5 1-1.1 1-.3 0-.5-.1-.9-.5-.5-.4-1.2-.7-2.1-.7-2.5 0-4 2-4 4.4 0 2.3 1.4 4.3 3.9 4.3 1 0 1.7-.3 2.3-.8.5-.1.7-.2 1-.2zM106.9 17.8c-.9 1.3-2.3 2-4.1 2-1.9 0-4.4-.9-4.4-3.7 0-3.6 4.3-4.1 8.4-4.1v-.3c0-1.8-1.2-2.7-3-2.7-1 0-1.9.3-2.9.9-.3.2-.5.3-.7.3-.5 0-.9-.4-.9-.9 0-.3.1-.7.5-.9 1-.8 2.5-1.3 4.2-1.3 3.5 0 5.1 2.1 5.1 4.7v6.7c0 1-.7 1.2-1.1 1.2-.4 0-1.1-.2-1.1-1.2v-.7zm-.7-4.1c-2.4 0-5.4.3-5.4 2.3 0 1.4 1.3 1.9 2.5 1.9 2.2 0 3.5-1.5 3.5-3.5v-.6h-.6zM113.3 9.4c.7-1.3 2.3-2.3 4-2.3 3.1 0 4.5 2.2 4.5 4.9v6.4c0 1.1-.8 1.3-1.2 1.3-.4 0-1.2-.2-1.2-1.3v-5.6c0-2-.5-3.7-2.8-3.7-1.9 0-3.2 1.6-3.2 4v5.3c0 1.1-.8 1.3-1.2 1.3s-1.2-.2-1.2-1.3V8.5c0-1.1.8-1.3 1.1-1.3.4 0 1.1.2 1.1 1.3v.9zM129 22.4c-.9 2.2-1.9 3.3-4.2 3.3-.9 0-1.7-.4-1.7-1.1 0-.5.3-1 1-1h.6c.9 0 1.6-.4 2.2-2l.8-2L123 9c-.1-.3-.2-.5-.2-.7 0-.7.5-1.1 1.2-1.1.4 0 .9.2 1.2.9l3.6 8.7h.1l3.2-8.7c.3-.8.8-1 1.2-1 .7 0 1.2.5 1.2 1.1 0 .2 0 .3-.2.7L129 22.4zM141.4 19.8c-3.7 0-6.5-2.7-6.5-6.4s2.8-6.4 6.5-6.4 6.5 2.6 6.5 6.4c0 3.8-2.8 6.4-6.5 6.4zm0-10.7c-2.6 0-4 2.1-4 4.4 0 2.3 1.5 4.4 4 4.4 2.6 0 4-2.1 4-4.4 0-2.4-1.4-4.4-4-4.4zM151.5 9.4c.7-1.3 2.3-2.3 4-2.3 3.1 0 4.5 2.2 4.5 4.9v6.4c0 1.1-.8 1.3-1.2 1.3-.4 0-1.2-.2-1.2-1.3v-5.6c0-2-.5-3.7-2.8-3.7-1.9 0-3.2 1.6-3.2 4v5.3c0 1.1-.8 1.3-1.2 1.3-.4 0-1.2-.2-1.2-1.3V8.5c0-1.1.8-1.3 1.1-1.3.4 0 1.1.2 1.1 1.3v.9z"/><radialGradient id="SVGID_1_" cx="10.229" cy="10.129" r="17.405" gradientUnits="userSpaceOnUse"><stop offset="0" stop-color="#373638"/><stop offset="1" stop-color="#060606"/></radialGradient><path class="st1" d="M2.6 22.6c0 .9.7 1.6 1.6 1.6h19.5c.9 0 1.6-.7 1.6-1.6V3.1c0-.9-.7-1.6-1.6-1.6H4.2c-.9 0-1.6.7-1.6 1.6v19.5z"/><g><defs><path id="SVGID_2_" d="M3.7 1.9c-.2 0-.5.1-.8.2v4.4C1.5 7.8-.8 9.3.2 10.2c.5.5 1 1.1 2.7 1.2v11.2s-.1 1.2 1 1.2h19.6l.5-.4-.1-3.9s1.3-.8 2.4.5l4.5.8 1.3-8.1L33.6 2"/></defs><clipPath id="SVGID_3_"><use xlink:href="#SVGID_2_" overflow="visible"/></clipPath><path class="st2" d="M25.1 9.3c0-4.1-8.5-6.9-8.5-6.9S10.4.9 9.3.1c0 0 .7 1.8 1.8 2.3 0 0-4.9-.8-6-.8l3 2.3s-4.2 3.7-5 3.5c0 0 1.5.2 2.4-.4 0 0-3 3.7-3.8 3.8h1.9c-1 2-1.7 3.7-1.7 3.7s-7.3 13.3 1.7 12.3c4.4-.5 7.3-1 9.2-1.5.2.1.3.2.5.3 5.3 3.4 12.3-2.3 12.3-2.3l-2.7-7.1.6-1.6c.5-.2 4.6 1.4 4.6 1.4.5.8.1 2.3.1 2.3 5-4.6-3.1-9-3.1-9z"/><path class="st3" d="M22.3 16.5s2.1 4.9-3.6 9.6-9.3-1.7-9.3-1.7c1.9-1.4 2.6-4.6 2.6-4.6-8.4 6.2-8.4.7-8.4.7l-.8.8L4.9 17c-.6 1.1-1.4 1.7-1.4 1.7l.4-4.2-.9 1.3.9-3-1.4.2c-.4 1-.7 1.6-.7 1.6S.5 17-.3 19.7c.9 2.6 2.7 5.4 4.3 7.2 4.1-.5 6.9-1 8.7-1.5.2.1.3.2.5.3 5.3 3.4 12.3-2.3 12.3-2.3L23.1 17c-.5-.3-.8-.5-.8-.5z"/><linearGradient id="SVGID_4_" gradientUnits="userSpaceOnUse" x1="18.409" y1="13.86" x2="29.805" y2="13.86"><stop offset="0" stop-color="#F1802B"/><stop offset="1" stop-color="#F7A927"/></linearGradient><path class="st4" d="M25.1 9.3c-.5-.1-1.2 0-1 .8.3 1.4.3 2.6-2.1 2.4-2.4-.2-3.6.9-3.6.9s3.9-.2 5 1.5c.5-.2 4.2 1.9 4.2 1.9.5.8.6 1.8.6 1.8 5-4.9-3.1-9.3-3.1-9.3z"/><path class="st5" d="M-.7 26.7c-.7-.5-.9-1.3-.9-2.1 0-1.5.8-3.1 1.7-4.7.8-1.4 1.8-2.7 2.5-3.6-.7-.9-1.2-1.4-1.2-1.4-.1-.1-.1-.3-.1-.5 0 0 .5-1.3 1.3-3 0 0 .3-.2-1.6-.5 0-.3 2.4-1.4 3.4-3.1L1.8 8c1.5-.7 5.8-4 5.8-4L4.7 1.6c-.2-.2 5.4.6 5.4.6C9.5 1.4 8.4 0 8.4 0c0-.2 2.2.5 2.2.5.6.3 2.1.6 2.9.8 1.6.4 8 2.2 10.6 4.8.8.8 1.4 1.8 1.5 2.9.4.3 1.3.8 2.2 1.6 1.2 1.1 2.3 2.7 2.3 4.7 0 0 0 .7-1 2.6l-.5 1c-.2.2-2-2.7-2.7-3-.8-.3-1.8-.6-2.2-.6l-.4 1 2.5 7.5s-4.2 3.5-8.8 3.5c-1.4 0-2.8-.3-4.1-1.1-.1-.1-.2-.1-.3-.2-1.9.5-4.8 1-9.1 1.5-.5.1-.9.1-1.3.1-1.3-.1-2.2-.3-2.9-.9zm3.4-10.6c.2.2-.8 2.8-1.7 4.3-.9 1.5-1.6 3.1-1.6 4.2 0 .6.2 1 .6 1.3.4.3 1.1.6 2.3.6.4 0 .8 0 1.2-.1 4.4-.5 7.3-1 9.2-1.5.1 0 .3 0 .4.1.2.1.3.2.5.3 1.1.7 2.3 1 3.5 1 3.1 0 6.1-1.8 7.5-2.8.2-.1.3-.2.4-.3l-2.6-6.7v-.4l.6-1.6c0-.1.1-.2.3-.3.1-.1.2-.1.3-.1.6 0 1.7.4 2.7.7 1 .4 2.4 2.6 2.4 3l.3-.9c.2-1 .3-1.3.3-1.9 0-2.1-2.4-4.2-3.8-5-.4-.3-.7-.4-.7-.4l.2-.4h.5-.5l-.2.4c-.2-.1-.3-.3-.3-.4 0-1.2-1-2.5-2.5-3.5-1.4-1-3.2-1.9-4.4-2.3-.7-.3-1.1-.4-1.3-.5C16 2.8 9.5.6 9.5.6l2 2.1L5 1.6l3.3 2.3-3.9 3.3c.1 0 2.1-.8 1.9-.2 0 0-1.6 2-4.2 3.7 0 0 1.7.2 1.6.3l.1.1c-.7 1.5-1.3 2.8-1.5 3.4.3.3.4 1.6.4 1.6z"/><g class="st6"><radialGradient id="SVGID_5_" cx="15.42" cy="9.714" r="1.48" gradientUnits="userSpaceOnUse"><stop offset="0" stop-color="#121212"/><stop offset=".508" stop-color="#0F0F0F"/><stop offset=".863" stop-color="#060606"/><stop offset="1"/></radialGradient><ellipse class="st7" cx="15.4" cy="9.7" rx="1.5" ry="1.4"/><ellipse cx="15.4" cy="9.7" rx=".9" ry=".8"/><ellipse class="st8" cx="15.2" cy="8.9" rx=".5" ry=".4"/><ellipse class="st9" cx="15.6" cy="9.9" rx=".3" ry=".3"/></g><path class="st5" d="M23.1 15.1s-2.2-1.8-4.7-1.7c0 0 .5-.8 5.5 1l-.8.7z"/><path class="st10" d="M27.2 16.3s-1.7-1.6-4.8-3.1c0 0 4.5 1.5 4.9 2.8l-.1.3z"/><path class="st2" d="M21.7 9.6c.1 0 .2.1.2.1s-6.5.3-10.6-2.1C7.5 5.2 20 9 21.7 9.6z"/><path class="st5" d="M25.2 9.5s-1 .3-.7 1.1c0 0-.4.9-2.3-.4 0 0 1.7.7 1.6.1-.1-.7.4-1.9 1.2-1.4l.2.9"/><path class="st10" d="M2.1 21.1s1.9-1.4 2.4-2.8c0 0-1.4 4-2 4.4l-.4-1.6z"/><path class="st10" d="M2.4 19l1.2-3.8-.9 6.2z"/></g></svg>