<svg id="Слой_1" xmlns="http://www.w3.org/2000/svg" xmlns:xlink="http://www.w3.org/1999/xlink" viewBox="0 0 160.5 36.7"><style>.st0{fill:#FFFFFF;} .st1{fill:url(#SVGID_1_);stroke:#060606;} .st2{clip-path:url(#SVGID_2_);} .st3{fill:url(#SVGID_3_);} .st4{fill:#060606;} .st5{fill:url(#SVGID_5_);}</style><path class="st0" d="M48.9 21.9c-1.2 1.6-2.9 2.5-5.1 2.5-2.4 0-5.4-1.2-5.4-4.6 0-4.5 5.3-5 10.4-5v-.4c0-2.2-1.5-3.3-3.7-3.3-1.3 0-2.4.4-3.5 1.2-.3.2-.6.3-.9.3-.6 0-1.1-.5-1.1-1.2 0-.4.2-.8.7-1.2 1.3-.9 3.1-1.5 5.2-1.5 4.3 0 6.2 2.5 6.2 5.8v8.2c0 1.3-.9 1.5-1.3 1.5S49 24 49 22.7v-.8zm-.9-5c-2.9 0-6.6.3-6.6 2.8 0 1.8 1.6 2.3 3 2.3 2.8 0 4.3-1.9 4.3-4.4v-.8H48zM64.9 20.5c.8 0 1.2.6 1.2 1.2 0 .4-.1.8-.7 1.3-1.2 1-2.8 1.4-4.5 1.4-4.6 0-7.9-3.1-7.9-7.9 0-4.7 3.4-7.9 7.9-7.9 1.6 0 3.2.4 4.4 1.4.6.4.8.9.8 1.3 0 .8-.6 1.3-1.3 1.3-.3 0-.6-.1-1.2-.6s-1.5-.9-2.6-.9c-3.1 0-4.9 2.5-4.9 5.4 0 2.8 1.7 5.3 4.8 5.3 1.2 0 2.1-.3 2.9-1 .5-.2.8-.3 1.1-.3zM73.2 24.3c-2.8 0-4.3-1.6-4.3-4.6V6.2c0-1.4 1-1.6 1.5-1.6s1.4.3 1.4 1.6v2.9h2.9c1.2 0 1.4.8 1.4 1.2 0 .4-.2 1.2-1.4 1.2h-2.9v7.8c0 1.8.7 2.5 1.8 2.5.2 0 .4 0 .7-.1.2-.1.4-.1.5-.1.7 0 1.2.5 1.2 1.2 0 .4-.3.9-.8 1.2-.6.1-1.3.3-2 .3zM79.6 5.6c-1.1 0-1.9-.8-1.9-1.9 0-1.1.9-1.9 1.9-1.9 1.1 0 2 .8 2 1.9-.1 1.1-1 1.9-2 1.9zm1.4 17c0 1.4-1 1.6-1.5 1.6s-1.5-.3-1.5-1.6V10.5c0-1.4 1-1.6 1.5-1.6s1.5.3 1.5 1.6v12.1zM89.7 24.3c-.7 0-1.6-.3-2.2-1.6l-4.9-11.5c-.2-.4-.2-.6-.2-.8 0-.8.7-1.4 1.5-1.4.5 0 1.1.2 1.5 1.2l4.2 10.7h.1L94 10.1c.4-1 1-1.2 1.5-1.2.8 0 1.4.6 1.4 1.4 0 .2 0 .4-.2.8l-4.9 11.6c-.5 1.3-1.4 1.6-2.1 1.6zM100.2 17.4c.1 2.5 2.2 4.5 4.8 4.5 1.8 0 2.9-.8 3.8-1.6.4-.4.7-.5 1-.5.7 0 1.3.5 1.3 1.2 0 .3-.1.7-.5 1.1-1.4 1.5-3.3 2.2-5.7 2.2-4.5 0-7.9-3.1-7.9-7.8 0-4.6 3.3-7.9 7.7-7.9 3.7 0 6.5 2.2 7.1 6.3.1.4.1.7.1 1 0 1-.5 1.5-1.6 1.5h-10.1zm8.9-2.2c-.1-2.4-1.4-4.2-4.2-4.2-2.5 0-4.5 1.9-4.7 4.2h8.9zM127.7 24.3c-.5 0-1.4-.2-1.4-1.6v-1h-.1c-1.1 1.8-3.3 2.8-5.4 2.8-4.6 0-7.5-3.5-7.5-7.9s3-7.8 7.5-7.8c2.4 0 4.3 1.2 5.3 2.6h.1V1.6c0-1.4 1-1.6 1.5-1.6s1.5.3 1.5 1.6v21c-.1 1.4-1.1 1.7-1.5 1.7zm-6.4-2.4c3 0 5-2.5 5-5.4s-2-5.4-5-5.4c-3.2 0-4.9 2.6-4.9 5.4s1.7 5.4 4.9 5.4zM133.8 17.4c.1 2.5 2.2 4.5 4.8 4.5 1.8 0 2.9-.8 3.8-1.6.4-.4.7-.5 1-.5.7 0 1.3.5 1.3 1.2 0 .3-.1.7-.5 1.1-1.4 1.5-3.3 2.2-5.7 2.2-4.5 0-7.9-3.1-7.9-7.8 0-4.6 3.3-7.9 7.7-7.9 3.7 0 6.5 2.2 7.1 6.3.1.4.1.7.1 1 0 1-.5 1.5-1.6 1.5h-10.1zm8.8-2.2c-.1-2.4-1.4-4.2-4.2-4.2-2.5 0-4.5 1.9-4.7 4.2h8.9zM150 11.6c.8-1.6 2.8-2.9 4.9-2.9 3.8 0 5.6 2.7 5.6 6.1v7.9c0 1.4-1 1.6-1.5 1.6s-1.5-.3-1.5-1.6v-6.9c0-2.4-.7-4.6-3.4-4.6-2.3 0-4 1.9-4 4.9v6.5c0 1.4-1 1.6-1.5 1.6s-1.5-.3-1.5-1.6V10.4c0-1.4.9-1.6 1.4-1.6.4 0 1.4.2 1.4 1.6v1.2z"/><radialGradient id="SVGID_1_" cx="-75.636" cy="2.733" r="47.381" gradientTransform="matrix(.45 0 0 .45 44.11 10.04)" gradientUnits="userSpaceOnUse"><stop offset="0" stop-color="#373638"/><stop offset="1" stop-color="#060606"/></radialGradient><path class="st1" d="M.5 26.6c0 1.1.9 1.9 1.9 1.9h24c1.1 0 1.9-.9 1.9-1.9v-24c0-1.1-.9-1.9-1.9-1.9h-24C1.3.7.5 1.6.5 2.6v24z"/><g><defs><path id="SVGID_4_" d="M36.8 34.2c0 1.4-1.1 2.5-2.5 2.5h-31c-1.4 0-2.5-1.1-2.5-2.5V3.4C.8 2 1.9.9 3.3.9h31c1.4 0 2.5 1.1 2.5 2.5v30.8z"/></defs><clipPath id="SVGID_2_"><use xlink:href="#SVGID_4_" overflow="visible"/></clipPath><g class="st2"><linearGradient id="SVGID_3_" gradientUnits="userSpaceOnUse" x1="-185.844" y1="187.688" x2="-201.944" y2="198.665" gradientTransform="rotate(-86.8 -181.94 -3.22)"><stop offset="0" stop-color="#F1802B"/><stop offset="1" stop-color="#F4952A"/></linearGradient><path class="st3" d="M-6.2 11.6c.8-1.2 5-6.4 12-.1 5.4 4.8.1 19.1 9.6 22.6 9.8 3.5 16.9-5.5 17.6-10.3-6.7 5.3-12.4 4.6-16.1-3.6-.6-1.4-1.2-2.7-1.8-3.9l-.9-1.8c-.4-.8-.8-1.5-1.2-2.2-2.9-4.6-5.7-6.8-10.4-7.5-6.9-1.1-10.8 3.8-11.5 5.8"/><path class="st4" d="M-5.4 12.1c.2-.2 1.6-2.3 4-2.7 2-.3 4.2.7 6.5 2.7 2 1.8 2.4 5.3 2.7 9 .5 5.4 1.1 11.5 7.2 13.7 5 1.8 9 .4 11.5-1.1 4.2-2.5 6.9-7 7.3-10 .1-.4-.1-.8-.5-1-.3-.2-.8-.2-1.1.1-3.3 2.6-6.1 3.6-8.6 3-2.4-.6-4.4-2.7-6-6.2-.7-1.6-1.3-2.8-1.8-3.9l-.9-1.8c-.4-.8-.9-1.5-1.3-2.2-3.1-5-6.1-7.3-11-8-7-1.1-11.6 3.7-12.5 6.5-.2.5.1 1.1.6 1.2.5.2 1.1-.1 1.2-.6.6-1.7 4.1-6.1 10.3-5.2 4.3.7 6.9 2.6 9.7 7.1.4.6.8 1.3 1.2 2.1.3.5.6 1.1.9 1.7.5 1.1 1.1 2.3 1.8 3.8 1.9 4.1 4.4 6.6 7.3 7.3 3.1.7 6.5-.4 10.3-3.4-.3.3-.8.3-1.1.1-.4-.2-.5-.6-.5-1-.4 2.5-2.7 6.4-6.4 8.6-2.1 1.3-5.6 2.5-9.9.9-4.9-1.8-5.4-6.8-5.9-12.1-.2-3.8-.6-7.7-3.2-10C3.6 8.2.9 7.1-1.7 7.5c-3.2.4-5.1 3-5.4 3.5-.3.5-.2 1.1.3 1.4.5.3 1.1.2 1.4-.3z"/><linearGradient id="SVGID_5_" gradientUnits="userSpaceOnUse" x1="-191.646" y1="191.592" x2="-199.241" y2="191.592" gradientTransform="rotate(-86.8 -181.94 -3.22)"><stop offset="0" stop-color="#F1802B"/><stop offset="1" stop-color="#F5A928"/></linearGradient><path class="st5" d="M-6.2 11.6c.8-1.2 5-6.4 12-.1 5.4 4.8.1 19.1 9.6 22.6 9.8 3.5 16.9-5.5 17.6-10.3-6.7 5.3-12.4 4.6-16.1-3.6-.6-1.4-1.2-2.7-1.8-3.9l-.9-1.8c-.4-.8-.8-1.5-1.2-2.2-2.9-4.6-5.7-6.8-10.4-7.5-6.9-1.1-10.8 3.8-11.5 5.8"/><path class="st0" d="M15.7 33.3c4.4 1.6 7.9.4 10.1-.9 2.9-1.7 5-4.5 5.9-6.8-.9.6-1.8 1-2.7 1.4-2 .8-3.9 1-5.6.6-2.2-.5-4-2-5.6-4.4-.1 2.5 1.5 5.3-2.5 4.5-4.1-.8-3.2 1.2-3 3.2.7 1 1.8 1.9 3.4 2.4z"/></g></g></svg>