<svg xmlns="http://www.w3.org/2000/svg" viewBox="0 0 1457.5209 386.05776" height="411794.948" width="1554688.97"><defs><clipPath id="a"><path d="M0 0h1285.436v1000H0V0z"/></clipPath></defs><path d="M601.663 98.404l49.412-43.648h-26.078l-23.334 43.648z" fill="#42a5f5"/><path d="M651.075 54.757L634.88 95.933l-33.216 2.472 49.41-43.648z" fill="#64b5f6"/><path d="M809.193 54.757l16.196 41.176 33.213 2.472-49.41-43.648z" fill="#42a5f5"/><path d="M723.545 51.738H659.86l-16.746 40.627h71.647l8.785-4.117v-36.51z" fill="#64b5f6"/><path d="M736.173 51.738h62.793-62.793z" fill="#2196f3"/><path d="M736.996 51.738h63.686l16.745 40.627H745.78l-8.784-4.117v-36.51z" fill="#42a5f5"/><path d="M858.604 98.404l-49.41-43.648h26.075l23.334 43.648z" fill="#64b5f6"/><g clip-path="url(#a)" transform="matrix(1.25 0 0 -1.25 -49.89 750.93)"><path d="M771.84 557.347c-2.447-2.148-4.35-4.55-5.515-7.215-3.287-7.528-.187-15.752-7.027-25.474-5.484-7.798-13.73-11.395-19.324-13.177l-.88-29.864c9.63-.18 22.865.71 37.773 5.27 4.952 1.515 20.78 6.706 37.773 19.325 5.858 4.35 13.127 9.827 20.424 19.106 9.57 12.174 14.02 24.314 16.194 32.104-13.238-.052-26.475-.068-39.71-.096-13.234-.03-26.472-.037-39.708.023M863.367 557.974l342.563 42.772c-4.287-7.142-10.364-15.47-18.926-23.482-22.96-21.484-49.46-27.296-62.038-29.152l-265.08-4.528M856.42 539.917l274.96-34.26c-4.835-5.49-11.314-11.664-19.652-17.028-22.362-14.386-44.162-13.98-54.318-12.976L850.677 527.76M844.502 520.036l203.817-83.84c-4.958-3.44-11.33-7.095-18.954-9.716-20.442-7.03-37.12-2.244-44.708.64l-147.31 84.286M831.4 504.112l127.062-96.85c-4.526-2.028-10.143-4.02-16.404-5.004-16.79-2.637-27.73 3.627-32.523 7.043l-85.627 88.954M816.28 492.845l70.673-88.13c-4.836-1.75-10.618-3.455-16.538-4.252-15.873-2.134-22.837 3.602-25.603 6.715l-37.6 80.535M796.338 479.17l-52.443-5.792c-4.168-25.392 8.773-49.292 31.838-60.162 15.093-7.113 35.11-8.92 50.35-5.177-10.098 23.075-14.118 49.044-28.99 69.81-.318.443-.566.884-.755 1.32" fill="#42a5f5"/><path d="M624.793 467.32l69.36 49.93h-138.72" fill="#64b5f6"/><path d="M556.68 516.717c-.4.153-.796.332-1.186.533l29.53-43 39.77-6.93-68.113 49.397zM576.97 484.42c.063 0 .063.1 0 .1-.065 0-.065-.1 0-.1M554.405 526.854h57.318L567.8 559.356" fill="#42a5f5"/><path d="M693.856 526.854h-57.318l43.922 32.502" fill="#64b5f6"/><path d="M553.44 572.165l32.74 23.074 38.035-22.8" fill="#42a5f5"/><path d="M586.18 595.238h74.872l-37.435-22.798" fill="#42a5f5"/><path d="M692.732 572.165l-32.74 23.074-38.034-22.8M528.158 497.473l41.708-21.22-23.232 30.438-18.476-9.217z" fill="#42a5f5"/><path d="M553.873 462.854l15.993 13.398-41.708 21.22" fill="#64b5f6"/><path d="M553.873 462.854l15.993 13.398-41.708 21.22" fill="#64b5f6"/><path d="M692.868 516.35c.402.155.8.334 1.187.536l-29.32-42.16-39.942-7.407 68.075 49.03zM521.244 514.995l25.41 1.725-18.48-19.294" fill="#42a5f5"/><path d="M546.653 516.72l-18.52-19.32 18.52 9.18M719.664 499.158l-41.708-21.22 23.23 30.438 18.478-9.218z" fill="#64b5f6"/><path d="M693.95 464.54l-15.994 13.398 41.708 21.22" fill="#64b5f6"/><path d="M693.95 464.54l-15.994 13.398 41.708 21.22" fill="#42a5f5"/><path d="M726.578 516.68l-25.41 1.725 18.48-19.294" fill="#64b5f6"/><path d="M701.17 518.405l18.518-19.32-18.52 9.18" fill="#42a5f5"/><path d="M625.002 460.218l-25.6-14.646h50.938" fill="#64b5f6"/><path d="M599.433 445.572c-.13-.687.174-1.295.705-2.115 3.956-6.105 14.193-14.306 27.216-13.114 12.328 1.127 24.262 10.405 22.986 15.23h-50.907z" fill="#64b5f6"/><path d="M588.238 464.486l37.06-4.36-25.807-15.23" fill="#42a5f5"/><path d="M661.56 464.486l-37.06-4.36 25.806-15.23M624.923 467.32l-25.6 14.644h50.938" fill="#42a5f5"/><path d="M599.015 476.48c-.13.687.174 1.295.705 2.114 3.956 6.106 14.193 14.307 27.216 13.115 12.328-1.127 24.262-10.406 22.986-15.23h-50.907zM569.81 476.303l-15.987-13.45 21.58 5.833" fill="#42a5f5"/><path d="M553.586 462.886l21.672 5.906 12.468-24.218M719.165 498.79l-41.708-21.22 23.232 30.44 18.475-9.22z" fill="#64b5f6"/><path d="M693.45 464.172l-15.993 13.4 41.708 21.22" fill="#64b5f6"/><path d="M693.45 464.172l-15.993 13.4 41.708 21.22" fill="#42a5f5"/><path d="M726.078 516.313l-25.408 1.725 18.478-19.294" fill="#64b5f6"/><path d="M700.67 518.038l18.52-19.32-18.52 9.18" fill="#42a5f5"/><path d="M677.514 477.62l15.986-13.448-21.58 5.83" fill="#64b5f6"/><path d="M693.736 464.203l-21.672 5.907-12.468-24.22M474.004 556.03c2.448-2.15 4.35-4.55 5.514-7.216 3.288-7.528.19-15.752 7.028-25.474 5.485-7.798 13.73-11.395 19.325-13.177l.88-29.866c-9.628-.18-22.865.71-37.773 5.27-4.952 1.515-20.78 6.707-37.772 19.326-5.86 4.35-13.127 9.826-20.424 19.105-9.57 12.174-14.02 24.314-16.194 32.104 13.24-.052 26.475-.068 39.71-.096 13.235-.03 26.472-.037 39.708.023M382.478 556.656L39.913 599.428c4.288-7.142 10.365-15.47 18.928-23.482 22.96-21.484 49.46-27.296 62.038-29.152l265.08-4.528M389.426 538.6l-274.962-34.26c4.836-5.49 11.314-11.665 19.653-17.03 22.36-14.384 44.16-13.976 54.317-12.974l206.734 52.107M401.342 518.718l-203.817-83.84c4.957-3.44 11.33-7.094 18.953-9.716 20.442-7.03 37.12-2.245 44.708.64l147.31 84.286M414.444 502.794l-127.062-96.85c4.526-2.028 10.143-4.02 16.404-5.004 16.79-2.637 27.73 3.628 32.523 7.044l85.626 88.952M429.565 491.527l-70.674-88.13c4.837-1.75 10.62-3.455 16.54-4.252 15.872-2.134 22.837 3.602 25.602 6.715l37.6 80.535M449.506 477.853l52.443-5.793c4.167-25.393-8.774-49.292-31.838-60.162-15.094-7.114-35.11-8.92-50.35-5.177 10.097 23.077 14.117 49.046 28.99 69.812.317.444.565.885.754 1.322" fill="#42a5f5"/></g><text transform="matrix(1.25 0 0 1.25 328.53 386.06)" style="-inkscape-font-specification:Normal" font-size="100" font-family="RR Beaver" fill="#64b5f6"><tspan x="0 74 94.099998 151.89999 172 229.8" y="0">W E B</tspan> <tspan x="270 327.79999 347.89999 368 388.10001 429.79999 449.89999 507.70001 527.79999 580.29999 600.40002" y="0">p i l o t s</tspan></text></svg>