<?xml version="1.0" encoding="utf-8"?>
<!-- Generator: Adobe Illustrator 19.0.1, SVG Export Plug-In . SVG Version: 6.00 Build 0)  -->
<svg version="1.1" id="Слой_1" xmlns="http://www.w3.org/2000/svg" xmlns:xlink="http://www.w3.org/1999/xlink" x="0px" y="0px"
	 viewBox="0 0 160.5 31.3" style="enable-background:new 0 0 160.5 31.3;" xml:space="preserve">
<style type="text/css">
	.st0{fill:#FFFFFF;}
	.st1{fill:url(#SVGID_1_);stroke:#060606;}
	.st2{clip-path:url(#SVGID_3_);}
	.st3{fill:#060606;}
	.st4{fill:url(#SVGID_4_);}
	.st5{fill:#62111D;}
	.st6{fill:url(#SVGID_5_);}
	.st7{opacity:0.4;fill:#CE2742;}
</style>
<g>
	<g>
		<path class="st0" d="M50.6,23.7c2.4,0,4.8-1.5,4.8-4.6c0-3.3-3.1-4.4-5.8-4.4c-1.3,0-1.6-0.9-1.6-1.4c0-0.4,0.2-1.4,1.6-1.4
			c2.5,0,5.1-0.9,5.1-4c0-2.4-2-4-4.2-4c-1.6,0-2.9,0.7-3.8,2c-0.3,0.5-0.8,0.8-1.3,0.8c-0.8,0-1.5-0.6-1.5-1.5
			c0-0.4,0.2-0.8,0.5-1.3c1.5-1.9,3.6-2.8,6.2-2.8c4,0,7.4,2.3,7.4,6.5c0,2.7-1.8,4.8-4.2,5.4v0.1c2.8,0.6,4.9,2.8,4.9,5.9
			c0,4.8-3.9,7.3-8,7.3c-3.1,0-5.7-1.2-7.2-3.5c-0.3-0.5-0.4-0.9-0.4-1.2c0-0.9,0.7-1.5,1.6-1.5c0.5,0,0.9,0.2,1.5,1
			C47.1,22.8,48.6,23.7,50.6,23.7z"/>
		<path class="st0" d="M75.7,26.1c-0.5,0-1.6-0.2-1.6-1.7v-1.1h-0.1c-1.2,1.9-3.5,3-5.8,3c-4.9,0-8.1-3.8-8.1-8.5
			c0-4.7,3.2-8.4,8.1-8.4c2.6,0,4.6,1.3,5.7,2.8h0.1V1.8c0-1.5,1.1-1.8,1.6-1.8c0.5,0,1.6,0.3,1.6,1.8v22.7
			C77.3,25.9,76.2,26.1,75.7,26.1z M68.9,23.6c3.2,0,5.4-2.7,5.4-5.8S72.1,12,68.9,12c-3.5,0-5.3,2.8-5.3,5.8
			C63.6,20.8,65.4,23.6,68.9,23.6z"/>
		<path class="st0" d="M87.7,26.3c-4.9,0-8.6-3.6-8.6-8.5c0-4.9,3.7-8.4,8.6-8.4s8.7,3.5,8.7,8.4C96.4,22.7,92.6,26.3,87.7,26.3z
			 M87.7,12c-3.4,0-5.3,2.7-5.3,5.8c0,3,1.9,5.8,5.3,5.8c3.5,0,5.3-2.8,5.3-5.8C93,14.8,91.1,12,87.7,12z"/>
		<path class="st0" d="M110.5,22.1c0.8,0,1.3,0.6,1.3,1.3c0,0.4-0.1,0.9-0.7,1.4c-1.3,1-3,1.6-4.8,1.6c-5,0-8.6-3.4-8.6-8.5
			c0-5,3.7-8.5,8.6-8.5c1.7,0,3.5,0.5,4.7,1.5c0.6,0.5,0.8,1,0.8,1.4c0,0.8-0.6,1.4-1.4,1.4c-0.3,0-0.6-0.1-1.3-0.6
			c-0.6-0.5-1.6-1-2.8-1c-3.3,0-5.2,2.7-5.2,5.8c0,3,1.9,5.8,5.2,5.8c1.3,0,2.3-0.4,3.1-1C109.8,22.2,110.1,22.1,110.5,22.1z"/>
		<path class="st0" d="M115.6,18.8c0.1,2.7,2.4,4.9,5.2,4.9c1.9,0,3.1-0.8,4.1-1.7c0.4-0.4,0.8-0.5,1.1-0.5c0.7,0,1.4,0.5,1.4,1.3
			c0,0.3-0.1,0.7-0.5,1.2c-1.6,1.6-3.6,2.4-6.1,2.4c-4.9,0-8.5-3.4-8.5-8.4c0-5,3.6-8.5,8.3-8.5c4,0,7,2.3,7.6,6.7
			c0.1,0.5,0.1,0.7,0.1,1c0,1.1-0.6,1.6-1.7,1.6H115.6z M125.1,16.4c-0.1-2.5-1.6-4.5-4.5-4.5c-2.7,0-4.8,2-5,4.5H125.1z"/>
		<path class="st0" d="M140.7,23.6h-0.1c-1.2,1.7-3,2.7-5.4,2.7c-2.5,0-5.8-1.3-5.8-4.9c0-4.8,5.8-5.4,11.2-5.4v-0.4
			c0-2.4-1.6-3.5-4-3.5c-1.4,0-2.6,0.4-3.8,1.3c-0.3,0.2-0.7,0.3-0.9,0.3c-0.7,0-1.2-0.5-1.2-1.3c0-0.4,0.2-0.9,0.7-1.3
			c1.4-1,3.3-1.7,5.5-1.7c4.6,0,6.7,2.7,6.7,6.3v8.8c0,1.4-1,1.6-1.4,1.6c-0.5,0-1.5-0.2-1.5-1.6V23.6z M139.8,18.2
			c-3.1,0-7.1,0.3-7.1,3c0,1.9,1.7,2.5,3.3,2.5c3,0,4.6-2,4.6-4.7v-0.8H139.8z"/>
		<path class="st0" d="M149.2,12.5h0.1c0.8-1.7,2.9-3.1,5.2-3.1c4.1,0,6,2.9,6,6.5v8.5c0,1.5-1,1.8-1.6,1.8c-0.5,0-1.6-0.3-1.6-1.8
			V17c0-2.6-0.7-4.9-3.7-4.9c-2.5,0-4.3,2.1-4.3,5.3v7c0,1.5-1,1.8-1.6,1.8s-1.6-0.3-1.6-1.8V11.2c0-1.5,1-1.7,1.5-1.7
			c0.5,0,1.5,0.2,1.5,1.7V12.5z"/>
	</g>
	<radialGradient id="SVGID_1_" cx="10.6361" cy="12.1751" r="23.0714" gradientUnits="userSpaceOnUse">
		<stop  offset="0" style="stop-color:#373638"/>
		<stop  offset="1" style="stop-color:#060606"/>
	</radialGradient>
	<path class="st1" d="M0.5,28.7c0,1.2,0.9,2.1,2.1,2.1h25.9c1.2,0,2.1-0.9,2.1-2.1V2.9c0-1.2-0.9-2.1-2.1-2.1H2.6
		c-1.2,0-2.1,0.9-2.1,2.1V28.7z"/>
	<g>
		<defs>
			<path id="SVGID_2_" d="M0.8,29.2c0,1.2,0.9,2.1,2.1,2.1h50.2c1.2,0,2.1-0.9,2.1-2.1V3.3c0-1.2-0.9-2.1-2.1-2.1H2.9
				c-1.2,0-2.1,0.9-2.1,2.1V29.2z"/>
		</defs>
		<clipPath id="SVGID_3_">
			<use xlink:href="#SVGID_2_"  style="overflow:visible;"/>
		</clipPath>
		<g class="st2">
			<path class="st3" d="M36.5,28.3c-0.3,0.1-0.6,0.1-0.9,0.2c-4.5,0.8-9.9,1.4-14.8,0.7C7.3,27-1.9,21-7.2,10.8
				c-1.6-3.1-2.1-7.3-1.3-11C-8.3-1.6-7.7-3-6.7-4.4c1-1.4,2.2-2.6,3.6-3.3C-2.8-7.8-2.6-7.9-2.3-8C-1.2-8.6,0-9,1.1-9.3
				c0.4-0.1,0.7-0.1,1.1-0.2c9.2-0.9,17.2,2.5,24.7,10.7c2.7,3,4.6,6.8,6.1,10.2c0.9,2,1.1,3.1,0.6,4c-0.2,0.5-0.7,0.8-1.2,0.9
				c-0.8,0.2-1.8-0.2-3.4-1.2c-0.4-0.2-0.8-0.7-1.5-1.5c-0.5-0.6-1.4-1.7-2-2.1c-0.4,0.4-0.9,0.8-1.4,0.9c-1.2,0.3-2-0.8-2.3-1.3
				c-0.4-0.4-1.6-0.9-2.8-1.4c0.8,0.6,1.5,1.5,1.8,3.4c0.6,1,5.3,4.2,6.8,4.6c0.8,0,1.8,0.1,2.4,0.8c0.7,0.8,0.5,1.7,0.4,2.6
				c0,0.1,0,0.1,0,0.2c0.8,0.3,2.9,0.6,3.9,0.7c1.3,0.2,2.1,0.3,2.5,0.5c1.8,0.8,3.7,1.9,3.5,3.5C40.1,27.4,38.3,28,36.5,28.3
				L36.5,28.3z"/>
			<linearGradient id="SVGID_4_" gradientUnits="userSpaceOnUse" x1="-7.3591" y1="3.3425" x2="32.6082" y2="3.3425">
				<stop  offset="0" style="stop-color:#6A1523"/>
				<stop  offset="0.4449" style="stop-color:#721825"/>
				<stop  offset="1" style="stop-color:#801D29"/>
			</linearGradient>
			<path class="st4" d="M22.7,10.3c1,1.5,1.4,0.8,2.5-0.1c0.9-0.8,3.8,3.4,4.5,3.9c3.3,2.1,3.5,0.8,2.2-2.2C30.3,8.4,28.5,4.8,26,2
				C19.6-4.9,12-9.3,2.3-8.2C-2.4-7.8-7.9-3.5-7.3,1.6c0.5,4.8,5.2,6,9.3,6.3C4.8,8,7.2,6,9.9,6.4c2.8,0.4,2.9,2.3,5.7,1.1
				C16.5,7.1,21.7,9.3,22.7,10.3"/>
			<polygon class="st5" points="15.5,-6.2 16.5,7.6 14.2,8.1 12.4,8.1 -0.3,-7.4 			"/>
			<linearGradient id="SVGID_5_" gradientUnits="userSpaceOnUse" x1="15.7065" y1="2.5114" x2="15.7065" y2="26.3712">
				<stop  offset="0" style="stop-color:#D22743"/>
				<stop  offset="0.1711" style="stop-color:#CD2642"/>
				<stop  offset="0.3542" style="stop-color:#C0253F"/>
				<stop  offset="0.543" style="stop-color:#AC233A"/>
				<stop  offset="0.7357" style="stop-color:#921F32"/>
				<stop  offset="0.9296" style="stop-color:#731727"/>
				<stop  offset="1" style="stop-color:#671323"/>
			</linearGradient>
			<path class="st6" d="M27.5,18.8c2.3,0,1.8,1,1.6,2.7c-0.2,1.5,6.2,1.6,7.2,2.1c4.5,2,3.2,3.1-0.8,3.8c-4.7,0.8-9.7,1.4-14.4,0.7
				C9.4,26.1-0.5,21.1-6.1,10.3C-8.9,5-8.2-3.7-2.5-6.6c5.3-2.8,9.9,1.3,13,5.4c2.2,2.9,1.8,6.8,4,9.3c2.4,2.7,4.4,1.4,5.1,5.3
				C19.9,14.5,25.8,18.5,27.5,18.8"/>
			<path class="st7" d="M36.5,25.7c-4.7,0.8-9.7,1.4-14.4,0.7C10.4,24.5,0.6,19.5-5.1,8.7C-7,4.9-7.2-0.5-5.2-4.4
				C-8.3-0.6-8.4,6-6.1,10.3C-0.5,21.1,9.4,26.1,21.1,28c4.7,0.7,9.7,0.1,14.4-0.7c2.7-0.5,4.2-1.1,3.4-2.2
				C38.3,25.4,37.5,25.5,36.5,25.7z"/>
		</g>
	</g>
</g>
</svg>
