<?xml version="1.0" encoding="utf-8"?>
<!-- Generator: Adobe Illustrator 19.0.1, SVG Export Plug-In . SVG Version: 6.00 Build 0)  -->
<svg version="1.1" id="Слой_1" xmlns="http://www.w3.org/2000/svg" xmlns:xlink="http://www.w3.org/1999/xlink" x="0px" y="0px"
	 viewBox="0 0 160 35.1" style="enable-background:new 0 0 160 35.1;" xml:space="preserve">
<style type="text/css">
	.st0{fill:#FFFFFF;}
	.st1{fill:url(#SVGID_1_);stroke:#060606;}
	.st2{fill:#090909;}
	.st3{fill:#060606;}
	.st4{fill:url(#SVGID_2_);}
	.st5{fill:#194F52;}
	.st6{opacity:0.97;fill:url(#SVGID_3_);}
	.st7{opacity:0.97;fill:url(#SVGID_4_);}
	.st8{opacity:0.47;}
	.st9{fill:#231F20;}
</style>
<g>
	<g>
		<path class="st0" d="M45,24c-1.9,0-3.7-0.9-4.6-2.3h-0.1v7.4c0,1.2-0.9,1.4-1.3,1.4s-1.3-0.2-1.3-1.4V11.6c0-1.2,0.9-1.4,1.3-1.4
			s1.3,0.2,1.3,1.4v0.9h0.1c0.9-1.4,2.6-2.4,4.7-2.4c3.9,0,6.6,3,6.6,6.9C51.6,20.9,49,24,45,24z M44.5,12.3c-2.7,0-4.4,2.2-4.4,4.8
			s1.8,4.7,4.4,4.7c2.9,0,4.4-2.3,4.4-4.8C48.9,14.5,47.4,12.3,44.5,12.3z"/>
		<path class="st0" d="M62.2,16.3c0-2.1-0.6-4-3-4c-2.1,0-3.6,1.7-3.6,4.3v5.7c0,1.2-0.9,1.4-1.3,1.4c-0.4,0-1.3-0.2-1.3-1.4V3.8
			c0-1.2,0.9-1.4,1.3-1.4c0.4,0,1.3,0.2,1.3,1.4v8.6h0.1c0.6-1.3,2.3-2.4,4.2-2.4c3.4,0,4.9,2.4,4.9,5.4v6.9c0,1.2-0.9,1.4-1.3,1.4
			c-0.4,0-1.3-0.2-1.3-1.4V16.3z"/>
		<path class="st0" d="M73.2,24c-4,0-7.1-2.9-7.1-7c0-4.1,3.1-6.9,7.1-6.9c4,0,7.1,2.9,7.1,6.9C80.3,21.1,77.3,24,73.2,24z
			 M73.2,12.3c-2.8,0-4.4,2.2-4.4,4.7c0,2.5,1.6,4.8,4.4,4.8c2.8,0,4.4-2.3,4.4-4.8C77.6,14.5,76.1,12.3,73.2,12.3z"/>
		<path class="st0" d="M86,23.8c-2.5,0-3.8-1.4-3.8-4.1V7.9c0-1.2,0.9-1.4,1.3-1.4c0.4,0,1.3,0.2,1.3,1.4v2.6h2.5
			c1,0,1.2,0.7,1.2,1.1c0,0.3-0.2,1.1-1.2,1.1h-2.5v6.9c0,1.6,0.6,2.2,1.6,2.2c0.2,0,0.4,0,0.6-0.1c0.2-0.1,0.4-0.1,0.5-0.1
			c0.6,0,1,0.5,1,1c0,0.4-0.2,0.8-0.7,1C87.3,23.7,86.6,23.8,86,23.8z"/>
		<path class="st0" d="M96,24c-4,0-7.1-2.9-7.1-7c0-4.1,3.1-6.9,7.1-6.9c4,0,7.1,2.9,7.1,6.9C103.1,21.1,100,24,96,24z M96,12.3
			c-2.8,0-4.4,2.2-4.4,4.7c0,2.5,1.6,4.8,4.4,4.8c2.8,0,4.4-2.3,4.4-4.8C100.4,14.5,98.8,12.3,96,12.3z"/>
		<path class="st0" d="M116.9,23.8c-0.4,0-1.3-0.2-1.3-1.4v-0.9h-0.1c-1,1.6-2.9,2.4-4.7,2.4c-4.1,0-6.6-3.1-6.6-7
			c0-3.9,2.7-6.9,6.6-6.9c2.1,0,3.8,1.1,4.7,2.3h0.1V3.8c0-1.2,0.9-1.4,1.3-1.4c0.4,0,1.3,0.2,1.3,1.4v18.6
			C118.1,23.6,117.2,23.8,116.9,23.8z M111.2,21.8c2.7,0,4.4-2.2,4.4-4.7s-1.8-4.8-4.4-4.8c-2.9,0-4.4,2.3-4.4,4.7
			C106.9,19.5,108.4,21.8,111.2,21.8z"/>
		<path class="st0" d="M129.6,21.4L129.6,21.4c-0.7,1.4-2.5,2.5-4.4,2.5c-3.4,0-4.9-2.4-4.9-5.4v-6.9c0-1.2,0.9-1.4,1.3-1.4
			c0.4,0,1.3,0.2,1.3,1.4v6.1c0,2.1,0.6,4,3,4c2.1,0,3.5-1.7,3.5-4.3v-5.8c0-1.2,0.9-1.4,1.3-1.4c0.4,0,1.3,0.2,1.3,1.4v10.8
			c0,1.2-0.8,1.4-1.2,1.4c-0.4,0-1.2-0.2-1.2-1.4V21.4z"/>
		<path class="st0" d="M136.3,12.6L136.3,12.6c0.7-1.4,2.5-2.5,4.4-2.5c3.4,0,4.9,2.4,4.9,5.4v6.9c0,1.2-0.9,1.4-1.3,1.4
			c-0.4,0-1.3-0.2-1.3-1.4v-6.1c0-2.1-0.6-4-3-4c-2.1,0-3.5,1.7-3.5,4.3v5.8c0,1.2-0.9,1.4-1.3,1.4s-1.3-0.2-1.3-1.4V11.6
			c0-1.2,0.8-1.4,1.2-1.4c0.4,0,1.2,0.2,1.2,1.4V12.6z"/>
		<path class="st0" d="M149.6,17.8c0.1,2.2,2,4,4.3,4c1.6,0,2.6-0.7,3.4-1.4c0.4-0.3,0.6-0.4,0.9-0.4c0.6,0,1.1,0.4,1.1,1.1
			c0,0.2-0.1,0.6-0.4,0.9c-1.3,1.3-2.9,2-5,2c-4,0-6.9-2.8-6.9-6.9c0-4.1,2.9-7,6.8-7c3.3,0,5.7,1.9,6.2,5.5
			c0.1,0.4,0.1,0.6,0.1,0.9c0,0.9-0.5,1.3-1.4,1.3H149.6z M157.4,15.9c-0.1-2.1-1.3-3.7-3.7-3.7c-2.2,0-4,1.7-4.1,3.7H157.4z"/>
	</g>
	
		<radialGradient id="SVGID_1_" cx="-66.051" cy="-4.5303" r="61.7887" gradientTransform="matrix(0.3996 0 0 0.3996 48.0309 10.5404)" gradientUnits="userSpaceOnUse">
		<stop  offset="0" style="stop-color:#373638"/>
		<stop  offset="1" style="stop-color:#060606"/>
	</radialGradient>
	<path class="st1" d="M4.9,26.9c0,1,0.8,1.7,1.7,1.7h21.2c1,0,1.7-0.8,1.7-1.7V5.7c0-1-0.8-1.7-1.7-1.7H6.6c-1,0-1.7,0.8-1.7,1.7
		V26.9z"/>
	<g>
		<g>
			<g>
				<path class="st2" d="M26.1,24.9c-0.8,4.3,0.2,3.9,0.2,3.9l1-5l-2-4.6l-0.8,1.5"/>
				<path class="st2" d="M32.9,9.5C31.9,10,30.3,12,30.3,12c-0.9-0.3-3.7,0.1-3.7,0.1l0.2,1.2l3.6-0.6C33.6,9.5,32.9,9.5,32.9,9.5z"
					/>
				<path class="st2" d="M22.5,18.7l0.6,1.3l-2.4,3.1l-1.1,4.4L14.9,33c-4.2,1.4-3.7,2.1-3.7,2.1c0.6-0.5,3.2-1.1,3.9-1.5
					c0.7-0.4,5.7-5.7,5.7-5.7l2.3-7.8l1.2,2.8"/>
			</g>
			<path class="st2" d="M18.9,3.1l0,3.6l1.2,0c0,0-0.1-2.8-0.5-3.7c0,0,1.8-2,2-3C21.7,0.1,21.6-0.7,18.9,3.1z M11.9,11l1.3-1
				L8.3,8.8l-4.7,1.9c0,0-0.3,1,3.9-0.5 M11,11.6l2.9,0.9l-7.6,3c0,0-4.8,5.5-5.1,6.2c-0.3,0.7-0.7,3.4-1.2,4c0,0,0.8,0.4,1.8-3.9
				l5-5.1l4.3-1.5l2.8-2.7l1.4,0.4"/>
		</g>
		<g>
			<g>
				<path class="st3" d="M26.7,11.3c0,0,1-2.3-1.1-4.3l0,0c-0.1,0-0.1-0.1-0.2-0.1c0,0-0.1-0.1-0.1-0.1l0,0
					c-2.4-1.7-4.5-0.3-4.5-0.3C-1,9.2,7.6,23.1,7.6,23.1c0.7,1.8,1.2,2.6,1.4,2.9l0,0c0,0,0,0.1,0.1,0.1c0.1,0.1,0.2,0.1,0.2,0.1
					l0,0c0.4,0.2,1.2,0.5,3.1,0.9C12.5,27.2,27.6,33.4,26.7,11.3z"/>
				<path class="st3" d="M26.2,7c1.7,1.9,1.1,4,0.9,4.4l0,0c0.3,7.1-1.1,11.4-3.2,13.9l0,0c-4.3,5-11,2.5-11.6,2.3l0,0
					c-1.8-0.4-2.6-0.7-3.1-0.9l0,0c-0.1,0-0.2-0.1-0.3-0.2l0,0c0,0,0,0,0,0l0,0c0,0,0,0,0,0l0,0c0,0,0,0,0,0l0,0
					c-0.1-0.1-0.2-0.2-0.2-0.3l0,0c-0.3-0.4-0.8-1.2-1.4-2.9l0,0c-0.3-0.6-3.9-6.7,0.3-11.8l0,0C9.7,9,13.6,6.9,20.7,6l0,0
					c0.4-0.3,2.3-1.2,4.5,0.2l0,0 M25.1,7.1c-1.6-1.2-3-0.8-3.7-0.5l0,0c-0.2,0.1-0.3,0.2-0.3,0.2l0,0L21,6.8l-0.1,0
					c-7,0.9-10.8,2.9-12.7,5.2l0,0c-3,3.5-1.6,7.8-0.7,9.8l0,0c0.3,0.7,0.5,1,0.5,1l0,0l0,0l0,0c0.7,1.8,1.1,2.5,1.4,2.8l0,0
					l0.1,0.1l0,0l0,0l0.1,0c0.3,0.2,1.1,0.5,3,0.9l0,0l0,0l0,0c0,0,0.4,0.2,1.1,0.3l0,0c0.7,0.2,1.7,0.4,2.7,0.4l0,0
					c2.2,0.1,4.8-0.4,6.8-2.8l0,0c1.9-2.3,3.3-6.3,3-13.4l0,0l0.4,0l0.4,0.2l-0.4-0.2l-0.4,0l0-0.1l0-0.1c0,0,0-0.1,0.1-0.3l0,0
					c0.1-0.2,0.1-0.5,0.1-0.9l0,0c0-0.7-0.2-1.7-1.2-2.6l0,0l-0.1-0.1c0,0,0,0,0,0l0,0c0,0,0,0,0,0l0,0L25.1,7.1L25.1,7.1z"/>
				<path class="st3" d="M20.5,6.1c0,0,3.2,4.1,6.6,5.6L27,12.3c0,0-2.2-1.2-3.8-1.7c-1.6-0.5-1.7-2.5-3.1-4.2L20.5,6.1z"/>
				
					<radialGradient id="SVGID_2_" cx="-81.4884" cy="-5.8599" r="41.5114" gradientTransform="matrix(0.3996 0 0 0.3996 48.0309 10.5404)" gradientUnits="userSpaceOnUse">
					<stop  offset="0" style="stop-color:#76CAD0"/>
					<stop  offset="0.7239" style="stop-color:#118594"/>
					<stop  offset="1" style="stop-color:#13647A"/>
				</radialGradient>
				<path class="st4" d="M25.5,12.8c-0.6-1.4-3-1.1-5.8-0.1c1-2.5,1.3-4.5-0.2-4.9c0,0-16,1-11.9,13.1c0.1,0.3,0.2,0.7,0.4,1.1
					c0.1,0.2,0.1,0.3,0.2,0.5c0,0,0.2,0.2,0.4,0.4c1.5,1.9,4.2,3.5,4.2,3.5C27.4,30.1,25.5,12.8,25.5,12.8z"/>
				<path class="st5" d="M27.8,7.4c0,0,0.5,1.4,0.1,2.6c0,0,1-0.2,0.8-1.2C28.6,7.7,28.6,7.3,27.8,7.4z"/>
				<path class="st5" d="M24,4.8c0,0-1.5-0.2-2.5,0.4c0,0,0-1,1-1.1C23.4,4.1,23.9,4,24,4.8z"/>
			</g>
			<g>
				<g>
					<path class="st3" d="M21.5,7.5c0.8,0,2-1.2,0.7-1.2C21.4,6.3,20.2,7.5,21.5,7.5L21.5,7.5z"/>
				</g>
			</g>
			<g>
				<g>
					<path class="st3" d="M21,6.4c0.1,0.1,0.2,0.1,0.3,0.2c0.5,0.5,2.3-0.2,1.8-0.8c-0.2-0.2-0.3-0.3-0.5-0.4
						c-0.4-0.2-1-0.1-1.4,0.2C20.9,5.8,20.6,6.2,21,6.4L21,6.4z"/>
				</g>
			</g>
			<path class="st3" d="M15.9,8c0,0,0.7,7.8,9.9,7.6C25.8,15.6,27.9,4.4,15.9,8z"/>
			<linearGradient id="SVGID_3_" gradientUnits="userSpaceOnUse" x1="18.9713" y1="7.5509" x2="24.0332" y2="14.5442">
				<stop  offset="0" style="stop-color:#7ECBC4"/>
				<stop  offset="0.7582" style="stop-color:#118594"/>
				<stop  offset="1" style="stop-color:#0F748A"/>
			</linearGradient>
			<path class="st6" d="M16.9,8c0,0,0.6,7,8.7,6.8c0,0,0.6-3.5-2.1-5.5C22.2,8.4,20.3,7,16.9,8z"/>
			<linearGradient id="SVGID_4_" gradientUnits="userSpaceOnUse" x1="22.3536" y1="5.1722" x2="25.4505" y2="10.5669">
				<stop  offset="0" style="stop-color:#62C3B2"/>
				<stop  offset="0.7582" style="stop-color:#118594"/>
				<stop  offset="1" style="stop-color:#0F748A"/>
			</linearGradient>
			<path class="st7" d="M21.3,6.5c0,0,2.2-1,3.8,0.6c1.6,1.6,1.7,2.4,1.4,3.6c-0.3,1.2,0.9-0.4-5.2-4"/>
			<g>
				<g class="st8">
					<path class="st0" d="M15.3,10.2c-0.3,0.1-0.6,0.3-0.8,0.5c-0.2,0.2-0.5,0.4-0.7,0.6l-1.4,1.2c-0.5,0.4-1,0.8-1.5,1.2
						c-0.5,0.4-1.1,0.8-1.8,1c0.2-0.7,0.5-1.3,0.9-1.9c0.4-0.6,0.8-1.1,1.4-1.5c0.3-0.2,0.6-0.4,0.9-0.6c0.2-0.1,0.3-0.2,0.5-0.3
						l0.2-0.1l0.1,0c0,0,0,0,0,0l0.1-0.1c0.3-0.1,0.7-0.3,1.1-0.3C14.5,10,15,10,15.3,10.2z"/>
				</g>
			</g>
			<g>
				<polygon class="st9" points="19.8,14.2 10.2,25.3 18.3,13 				"/>
			</g>
		</g>
	</g>
</g>
</svg>
