<?xml version="1.0" encoding="utf-8"?>
<!-- Generator: Adobe Illustrator 19.0.1, SVG Export Plug-In . SVG Version: 6.00 Build 0)  -->
<svg version="1.1" id="Слой_1" xmlns="http://www.w3.org/2000/svg" xmlns:xlink="http://www.w3.org/1999/xlink" x="0px" y="0px"
	 viewBox="0 0 160.5 30" style="enable-background:new 0 0 160.5 30;" xml:space="preserve">
<style type="text/css">
	.st0{fill:#FFFFFF;}
	.st1{fill:url(#SVGID_1_);stroke:#060606;}
	.st2{clip-path:url(#SVGID_2_);}
	.st3{fill:url(#SVGID_4_);}
	.st4{fill:#231F20;}
	.st5{fill:#060606;}
</style>
<g>
	<g>
		<path class="st0" d="M41.5,19.4L41.5,19.4c-1,1.4-2.5,2.2-4.5,2.2c-2.1,0-4.8-1-4.8-4.1c0-4,4.7-4.5,9.2-4.5v-0.4
			c0-2-1.3-2.9-3.3-2.9c-1.1,0-2.1,0.4-3.1,1c-0.3,0.2-0.6,0.3-0.8,0.3c-0.6,0-1-0.4-1-1c0-0.4,0.1-0.7,0.6-1
			c1.1-0.8,2.8-1.4,4.6-1.4c3.8,0,5.5,2.3,5.5,5.2v7.3c0,1.1-0.8,1.3-1.2,1.3c-0.4,0-1.2-0.2-1.2-1.3V19.4z M40.7,15
			c-2.6,0-5.9,0.3-5.9,2.5c0,1.6,1.4,2.1,2.7,2.1c2.5,0,3.8-1.6,3.8-3.9V15H40.7z"/>
		<path class="st0" d="M54.8,19.2L54.8,19.2c-0.7,1.4-2.5,2.5-4.4,2.5c-3.4,0-4.9-2.4-4.9-5.4v-7c0-1.2,0.9-1.5,1.3-1.5
			c0.4,0,1.3,0.2,1.3,1.5v6.1c0,2.1,0.6,4,3,4c2.1,0,3.5-1.7,3.5-4.4V9.3c0-1.2,0.9-1.5,1.3-1.5c0.4,0,1.3,0.2,1.3,1.5v10.8
			c0,1.2-0.8,1.4-1.2,1.4c-0.4,0-1.3-0.2-1.3-1.4V19.2z"/>
		<path class="st0" d="M71.5,21.6c-0.4,0-1.3-0.2-1.3-1.4v-0.9h-0.1c-1,1.6-2.9,2.5-4.8,2.5c-4.1,0-6.7-3.1-6.7-7c0-3.9,2.7-7,6.6-7
			c2.1,0,3.8,1.1,4.7,2.3h0.1V1.5C70.1,0.2,71,0,71.4,0c0.4,0,1.3,0.2,1.3,1.5v18.7C72.7,21.4,71.9,21.6,71.5,21.6z M65.8,19.5
			c2.7,0,4.5-2.2,4.5-4.8s-1.8-4.8-4.5-4.8c-2.9,0-4.4,2.3-4.4,4.8C61.4,17.2,62.9,19.5,65.8,19.5z"/>
		<path class="st0" d="M76.3,5c-0.9,0-1.7-0.8-1.7-1.7c0-0.9,0.8-1.7,1.7-1.7c0.9,0,1.8,0.7,1.8,1.7C78.1,4.3,77.3,5,76.3,5z
			 M77.6,20.1c0,1.2-0.9,1.5-1.3,1.5c-0.4,0-1.3-0.2-1.3-1.5V9.3c0-1.2,0.9-1.5,1.3-1.5c0.4,0,1.3,0.2,1.3,1.5V20.1z"/>
		<path class="st0" d="M86.7,21.7c-4,0-7.1-2.9-7.1-7c0-4.1,3.1-7,7.1-7c4,0,7.1,2.9,7.1,7C93.9,18.8,90.8,21.7,86.7,21.7z
			 M86.7,9.9c-2.8,0-4.4,2.3-4.4,4.8c0,2.5,1.6,4.8,4.4,4.8c2.8,0,4.4-2.3,4.4-4.8C91.1,12.2,89.6,9.9,86.7,9.9z"/>
		<path class="st0" d="M95.9,9.3c0-1.2,0.9-1.5,1.3-1.5c0.4,0,1.3,0.2,1.3,1.5V23c0,2.7-0.8,5-4.2,5c-1.1,0-1.7-0.4-1.7-1.2
			c0-0.6,0.4-1.1,1.1-1.1h0.3c1.5,0,1.8-1.1,1.8-2.7V9.3z M97.2,5c-1,0-1.8-0.8-1.8-1.7c0-0.9,0.8-1.7,1.8-1.7
			c0.9,0,1.8,0.7,1.8,1.7C98.9,4.3,98.1,5,97.2,5z"/>
		<path class="st0" d="M109.5,19.2L109.5,19.2c-0.7,1.4-2.5,2.5-4.4,2.5c-3.4,0-4.9-2.4-4.9-5.4v-7c0-1.2,0.9-1.5,1.3-1.5
			s1.3,0.2,1.3,1.5v6.1c0,2.1,0.6,4,3,4c2.1,0,3.5-1.7,3.5-4.4V9.3c0-1.2,0.9-1.5,1.3-1.5c0.4,0,1.3,0.2,1.3,1.5v10.8
			c0,1.2-0.8,1.4-1.2,1.4c-0.4,0-1.3-0.2-1.3-1.4V19.2z"/>
		<path class="st0" d="M116.2,10.3L116.2,10.3c0.7-1.4,2.5-2.5,4.4-2.5c3.4,0,4.9,2.4,4.9,5.4v7c0,1.2-0.9,1.5-1.3,1.5
			c-0.4,0-1.3-0.2-1.3-1.5V14c0-2.1-0.6-4-3-4c-2.1,0-3.5,1.7-3.5,4.4v5.8c0,1.2-0.9,1.5-1.3,1.5c-0.4,0-1.3-0.2-1.3-1.5V9.3
			c0-1.2,0.8-1.4,1.3-1.4c0.4,0,1.2,0.2,1.2,1.4V10.3z"/>
		<path class="st0" d="M127.4,25c0-0.6,0.5-1.2,1.2-1.2c0.3,0,0.6,0.1,1,0.4c1.3,1,2.6,1.5,4,1.5c3.5,0,4.7-2.1,4.7-4.9v-1.7h-0.1
			c-1,1.5-2.8,2.3-4.7,2.3c-4,0-6.7-3-6.7-6.8s2.6-6.9,6.6-6.9c1.9,0,3.8,0.8,4.8,2.5h0.1V9.3c0-1.2,0.9-1.4,1.3-1.4
			c0.4,0,1.3,0.2,1.3,1.4v11.4c0,3.9-1.8,7.4-7.3,7.4c-2,0-4.1-0.7-5.6-1.8C127.5,25.8,127.4,25.4,127.4,25z M134,19.2
			c2.7,0,4.5-2,4.5-4.7c0-2.5-1.8-4.7-4.5-4.7c-2.8,0-4.4,2.1-4.4,4.7C129.6,17,131.2,19.2,134,19.2z"/>
		<path class="st0" d="M143.2,1.5c0-1.2,0.9-1.5,1.3-1.5c0.4,0,1.3,0.2,1.3,1.5v18.6c0,1.2-0.9,1.5-1.3,1.5c-0.4,0-1.3-0.2-1.3-1.5
			V1.5z"/>
		<path class="st0" d="M150,15.5c0.1,2.3,2,4,4.3,4c1.6,0,2.6-0.7,3.4-1.4c0.4-0.3,0.6-0.4,0.9-0.4c0.6,0,1.1,0.4,1.1,1.1
			c0,0.2-0.1,0.6-0.4,0.9c-1.3,1.3-2.9,2-5,2c-4,0-7-2.8-7-7c0-4.1,3-7,6.8-7c3.3,0,5.8,1.9,6.3,5.6c0.1,0.4,0.1,0.6,0.1,0.9
			c0,0.9-0.5,1.3-1.4,1.3H150z M157.9,13.5c-0.1-2.1-1.3-3.7-3.7-3.7c-2.3,0-4,1.7-4.2,3.7H157.9z"/>
	</g>
	<radialGradient id="SVGID_1_" cx="8.8631" cy="11.0783" r="19.0356" gradientUnits="userSpaceOnUse">
		<stop  offset="0" style="stop-color:#373638"/>
		<stop  offset="1" style="stop-color:#060606"/>
	</radialGradient>
	<path class="st1" d="M0.5,24.7c0,1,0.8,1.7,1.7,1.7h21.3c1,0,1.7-0.8,1.7-1.7V3.4c0-1-0.8-1.7-1.7-1.7H2.2c-1,0-1.7,0.8-1.7,1.7
		V24.7z"/>
	<g>
		<defs>
			<path id="SVGID_3_" d="M29.3,28.1c0,1.1-0.9,2-2,2H2.8c-1.1,0-2-0.9-2-2V3.8c0-1.1,0.9-2,2-2h24.4c1.1,0,2,0.9,2,2V28.1z"/>
		</defs>
		<clipPath id="SVGID_2_">
			<use xlink:href="#SVGID_3_"  style="overflow:visible;"/>
		</clipPath>
		<g class="st2">
			<polygon class="st0" points="25,22 22.2,22 23.5,26 			"/>
			<g>
				<linearGradient id="SVGID_4_" gradientUnits="userSpaceOnUse" x1="21.8335" y1="10.1212" x2="1.2671" y2="22.7627">
					<stop  offset="0" style="stop-color:#B0D04E"/>
					<stop  offset="0.9945" style="stop-color:#5C8F41"/>
				</linearGradient>
				<path class="st3" d="M16.6-2.3c1.3-0.2,2.5,0.7,2.7,2c0.2,1.3-0.7,2.5-2,2.7c-7,1.1-11.7,7.7-10.6,14.6c0.4,2.3,1.6,4.3,3.5,5.7
					c1.9,1.4,4.2,1.9,6.5,1.5c2.5-0.4,4.8-2.9,4.8-5.4c0-2.9-2.8-4.5-5.5-4.5c-0.7,0-1.5,0.1-2.2,0.4c-0.7,0.2-1.5,0.2-1.7-0.7
					c-0.2-0.8,0.5-1.5,1-2c0.1-0.1,0.1-0.1,0.2-0.2c0.9-0.8,2.1-1.4,3.4-1.6c2.2-0.3,4.4,0.2,6.1,1.5c1.8,1.3,3,3.2,3.3,5.4
					c0.4,2.8-0.2,5.5-1.9,7.8c-1.6,2.3-4.1,3.7-6.8,4.2c-3.6,0.6-7.1-0.3-10-2.4c-2.9-2.1-4.8-5.2-5.4-8.8C0.5,8.3,7.1-0.7,16.6-2.3
					z"/>
				<path class="st4" d="M7.1,27.1c-3-2.2-5-5.4-5.6-9.1l0,0c-0.2-1-0.2-1.9-0.2-2.8l0,0c0-8.7,6.4-16.5,15.3-17.9l0,0v0
					c0.2,0,0.3,0,0.5,0l0,0c1.4,0,2.6,1,2.9,2.5l0,0c0,0.2,0,0.3,0,0.5l0,0c0,1.4-1,2.6-2.5,2.9l0,0c-6,1-10.4,6.2-10.4,12.1l0,0
					c0,0.6,0,1.3,0.2,1.9l0,0c0.3,2.2,1.5,4,3.3,5.3l0,0c1.4,1,3.1,1.6,4.8,1.6l0,0c0.4,0,0.9,0,1.3-0.1l0,0c1.1-0.2,2.2-0.8,3-1.8
					l0,0c0.8-0.9,1.3-2.1,1.3-3.2l0,0c0,0,0,0,0-0.1l0,0c0-1.3-0.6-2.2-1.5-2.9l0,0c-0.9-0.7-2.2-1-3.4-1l0,0c-0.7,0-1.4,0.1-2,0.3
					l0,0c-0.3,0.1-0.5,0.1-0.8,0.1l0,0c-0.3,0-0.7-0.1-1-0.3l0,0c-0.3-0.2-0.5-0.5-0.6-1l0,0c0-0.1,0-0.2,0-0.4l0,0
					c0-1,0.7-1.7,1.2-2.1l0,0c0.1-0.1,0.1-0.1,0.2-0.2l0,0l0,0l0,0c1-0.9,2.2-1.5,3.6-1.7l0,0C17,9.6,17.5,9.6,18,9.6l0,0
					c1.8,0,3.6,0.6,5.1,1.7l0,0c1.9,1.4,3.1,3.4,3.5,5.7l0,0c0.1,0.6,0.1,1.2,0.1,1.7l0,0c0,2.3-0.7,4.5-2.1,6.4l0,0
					c-1.7,2.4-4.3,3.9-7.2,4.4l0,0c-0.7,0.1-1.5,0.2-2.2,0.2l0,0C12.4,29.7,9.5,28.8,7.1,27.1L7.1,27.1z M16.7-1.7
					C8.3-0.4,2.3,6.9,2.3,15.1l0,0c0,0.9,0.1,1.8,0.2,2.7l0,0c0.5,3.4,2.4,6.4,5.2,8.4l0,0c2.2,1.6,4.9,2.5,7.6,2.5l0,0
					c0.7,0,1.4-0.1,2.1-0.2l0,0c2.6-0.4,4.9-1.8,6.5-4l0,0c1.2-1.7,1.9-3.7,1.9-5.8l0,0c0-0.5,0-1.1-0.1-1.6l0,0
					c-0.3-2-1.4-3.8-3.1-5.1l0,0c-1.3-1-2.9-1.5-4.5-1.5l0,0c-0.4,0-0.8,0-1.2,0.1l0,0c-1.2,0.2-2.2,0.7-3.1,1.5l0,0
					c-0.1,0.1-0.1,0.1-0.2,0.2l0,0c-0.4,0.4-0.9,1-0.9,1.4l0,0c0,0,0,0.1,0,0.1l0,0c0,0.2,0.1,0.3,0.2,0.3l0,0
					c0.1,0.1,0.2,0.1,0.4,0.1l0,0c0.1,0,0.3,0,0.5-0.1l0,0c0.8-0.3,1.5-0.4,2.3-0.4l0,0c1.4,0,2.9,0.4,4,1.2l0,0
					c1.1,0.8,2,2.1,2,3.7l0,0c0,0,0,0,0,0.1l0,0c0,1.4-0.6,2.8-1.6,3.9l0,0c-1,1.1-2.2,1.9-3.7,2.1l0,0c-0.5,0.1-1,0.1-1.5,0.1l0,0
					c-1.9,0-3.8-0.6-5.4-1.8l0,0c-2-1.4-3.3-3.6-3.7-6l0,0c-0.1-0.7-0.2-1.4-0.2-2.1l0,0C6.1,8.7,10.8,3,17.3,2l0,0
					c0.9-0.1,1.6-0.9,1.6-1.8l0,0c0-0.1,0-0.2,0-0.3l0,0c-0.1-0.9-0.9-1.6-1.8-1.6l0,0C16.9-1.8,16.8-1.8,16.7-1.7L16.7-1.7
					l-0.1-0.5L16.7-1.7L16.7-1.7z"/>
			</g>
			<circle class="st0" cx="16.6" cy="12.2" r="1"/>
			<polygon class="st0" points="22.3,24.2 22.6,25.2 22.9,26.1 23.6,25.4 24.3,24.7 23.3,24.4 			"/>
			<polygon class="st0" points="18.3,26.9 18,27.9 17.6,28.8 18.6,28.6 19.6,28.4 19,27.7 			"/>
			<polygon class="st0" points="13,27.1 12.3,27.8 11.7,28.6 12.6,28.8 13.6,29 13.3,28 			"/>
			<polygon class="st0" points="8.3,24.9 7.4,25.2 6.4,25.5 7.2,26.2 8,26.9 8.1,25.9 			"/>
			<polygon class="st0" points="4.9,21.1 3.9,21 2.9,20.9 3.4,21.8 3.8,22.7 4.4,21.9 			"/>
			<g>
				<path class="st5" d="M7.1,27.1c-3-2.2-5-5.4-5.6-9.1l0,0c-0.2-1-0.2-1.9-0.2-2.8l0,0c0-8.7,6.4-16.5,15.3-17.9l0,0v0
					c0.2,0,0.3,0,0.5,0l0,0c1.4,0,2.6,1,2.9,2.5l0,0c0,0.2,0,0.3,0,0.5l0,0c0,1.4-1,2.6-2.5,2.9l0,0c-6,1-10.4,6.2-10.4,12.1l0,0
					c0,0.6,0,1.3,0.2,1.9l0,0c0.3,2.2,1.5,4,3.3,5.3l0,0c1.4,1,3.1,1.6,4.8,1.6l0,0c0.4,0,0.9,0,1.3-0.1l0,0c1.1-0.2,2.2-0.8,3-1.8
					l0,0c0.8-0.9,1.3-2.1,1.3-3.2l0,0c0,0,0,0,0-0.1l0,0c0-1.3-0.6-2.2-1.5-2.9l0,0c-0.9-0.7-2.2-1-3.4-1l0,0c-0.7,0-1.4,0.1-2,0.3
					l0,0c-0.3,0.1-0.5,0.1-0.8,0.1l0,0c-0.3,0-0.7-0.1-1-0.3l0,0c-0.3-0.2-0.5-0.5-0.6-1l0,0c0-0.1,0-0.2,0-0.4l0,0
					c0-1,0.7-1.7,1.2-2.1l0,0c0.1-0.1,0.1-0.1,0.2-0.2l0,0l0,0l0,0c1-0.9,2.2-1.5,3.6-1.7l0,0C17,9.6,17.5,9.6,18,9.6l0,0
					c1.8,0,3.6,0.6,5.1,1.7l0,0c1.9,1.4,3.1,3.4,3.5,5.7l0,0c0.1,0.6,0.1,1.2,0.1,1.7l0,0c0,2.3-0.7,4.5-2.1,6.4l0,0
					c-1.7,2.4-4.3,3.9-7.2,4.4l0,0c-0.7,0.1-1.5,0.2-2.2,0.2l0,0C12.4,29.7,9.5,28.8,7.1,27.1L7.1,27.1z M16.7-1.7
					C8.3-0.4,2.3,6.9,2.3,15.1l0,0c0,0.9,0.1,1.8,0.2,2.7l0,0c0.5,3.4,2.4,6.4,5.2,8.4l0,0c2.2,1.6,4.9,2.5,7.6,2.5l0,0
					c0.7,0,1.4-0.1,2.1-0.2l0,0c2.6-0.4,4.9-1.8,6.5-4l0,0c1.2-1.7,1.9-3.7,1.9-5.8l0,0c0-0.5,0-1.1-0.1-1.6l0,0
					c-0.3-2-1.4-3.8-3.1-5.1l0,0c-1.3-1-2.9-1.5-4.5-1.5l0,0c-0.4,0-0.8,0-1.2,0.1l0,0c-1.2,0.2-2.2,0.7-3.1,1.5l0,0
					c-0.1,0.1-0.1,0.1-0.2,0.2l0,0c-0.4,0.4-0.9,1-0.9,1.4l0,0c0,0,0,0.1,0,0.1l0,0c0,0.2,0.1,0.3,0.2,0.3l0,0
					c0.1,0.1,0.2,0.1,0.4,0.1l0,0c0.1,0,0.3,0,0.5-0.1l0,0c0.8-0.3,1.5-0.4,2.3-0.4l0,0c1.4,0,2.9,0.4,4,1.2l0,0
					c1.1,0.8,2,2.1,2,3.7l0,0c0,0,0,0,0,0.1l0,0c0,1.4-0.6,2.8-1.6,3.9l0,0c-1,1.1-2.2,1.9-3.7,2.1l0,0c-0.5,0.1-1,0.1-1.5,0.1l0,0
					c-1.9,0-3.8-0.6-5.4-1.8l0,0c-2-1.4-3.3-3.6-3.7-6l0,0c-0.1-0.7-0.2-1.4-0.2-2.1l0,0C6.1,8.7,10.8,3,17.3,2l0,0
					c0.9-0.1,1.6-0.9,1.6-1.8l0,0c0-0.1,0-0.2,0-0.3l0,0c-0.1-0.9-0.9-1.6-1.8-1.6l0,0C16.9-1.8,16.8-1.8,16.7-1.7L16.7-1.7
					l-0.1-0.5L16.7-1.7L16.7-1.7z"/>
			</g>
		</g>
	</g>
</g>
</svg>
