<?xml version="1.0" encoding="utf-8"?>
<!-- Generator: Adobe Illustrator 19.0.1, SVG Export Plug-In . SVG Version: 6.00 Build 0)  -->
<svg version="1.1" id="Слой_1" xmlns="http://www.w3.org/2000/svg" xmlns:xlink="http://www.w3.org/1999/xlink" x="0px" y="0px"
	 viewBox="0 0 160 37.9" style="enable-background:new 0 0 160 37.9;" xml:space="preserve">
<style type="text/css">
	.st0{fill:url(#SVGID_1_);stroke:#060606;}
	.st1{clip-path:url(#SVGID_2_);}
	.st2{fill:url(#SVGID_3_);}
	.st3{fill:#060606;}
	.st4{fill:url(#SVGID_4_);stroke:#060606;stroke-width:3;}
	.st5{opacity:0.33;fill:url(#SVGID_5_);}
	.st6{fill:#FFFFFF;}
</style>
<g>
	<radialGradient id="SVGID_1_" cx="20.844" cy="9.889" r="16.9355" gradientUnits="userSpaceOnUse">
		<stop  offset="0" style="stop-color:#373638"/>
		<stop  offset="1" style="stop-color:#060606"/>
	</radialGradient>
	<path class="st0" d="M13.4,22c0,0.8,0.7,1.5,1.5,1.5h19c0.9,0,1.5-0.7,1.5-1.5v-19c0-0.8-0.7-1.5-1.5-1.5h-19
		c-0.9,0-1.5,0.7-1.5,1.5V22z"/>
	<g>
		<defs>
			<path id="SVGID_6_" d="M0,35.3c0,1.4,1.1,2.5,2.5,2.5H33c1.4,0,2.5-1.1,2.5-2.5V4.1c0-1.4-1.1-2.5-2.5-2.5H2.5
				C1.1,1.5,0,2.7,0,4.1V35.3z"/>
		</defs>
		<clipPath id="SVGID_2_">
			<use xlink:href="#SVGID_6_"  style="overflow:visible;"/>
		</clipPath>
		<g class="st1">
			
				<linearGradient id="SVGID_3_" gradientUnits="userSpaceOnUse" x1="-1978.369" y1="238.2568" x2="-1972.1139" y2="238.2568" gradientTransform="matrix(-0.9921 0.1251 0.1251 0.9921 -1962.8931 16.6137)">
				<stop  offset="0" style="stop-color:#015F9D"/>
				<stop  offset="2.234790e-002" style="stop-color:#0C66A3"/>
				<stop  offset="8.471075e-002" style="stop-color:#1877B3"/>
				<stop  offset="0.151" style="stop-color:#1E88C2"/>
				<stop  offset="0.2215" style="stop-color:#2296CE"/>
				<stop  offset="0.298" style="stop-color:#26A0D8"/>
				<stop  offset="0.385" style="stop-color:#28A6DE"/>
				<stop  offset="0.5055" style="stop-color:#28A8E0"/>
				<stop  offset="0.5878" style="stop-color:#31A9E0"/>
				<stop  offset="0.6611" style="stop-color:#45ADE2"/>
				<stop  offset="0.731" style="stop-color:#5EB3E4"/>
				<stop  offset="0.7988" style="stop-color:#7ABDE8"/>
				<stop  offset="0.8651" style="stop-color:#9CCCED"/>
				<stop  offset="0.9303" style="stop-color:#C6DFF4"/>
				<stop  offset="0.9935" style="stop-color:#F7FAFD"/>
				<stop  offset="1" style="stop-color:#FFFFFF"/>
			</linearGradient>
			<path class="st2" d="M29.2,1.9l-5.8,1.5l0.2,1.2l-0.2,1.4l0.2,1.4l0.2,1.2l0.3,1C24.1,9.8,29.4,7.8,29.2,1.9z"/>
			<path class="st3" d="M22.3,6.1l0,0.1l0.2,1.4l0.2,1.2l0,0.1l0,0.1l0.3,1l0.3,1.1l1.1-0.4c2.1-0.8,6-3.7,5.8-8.9l0-1.3l-1.3,0.3
				l-5.8,1.5l-0.9,0.2l0.1,0.9l0.1,1.1L22.4,6L22.3,6.1z M23.4,6.1l0.2-1.4l-0.2-1.2l5.8-1.5c0.2,5.8-5.1,7.9-5.1,7.9l-0.3-1
				l-0.2-1.2L23.4,6.1z"/>
			<linearGradient id="SVGID_4_" gradientUnits="userSpaceOnUse" x1="4.3997" y1="16.7867" x2="42.7655" y2="16.7867">
				<stop  offset="0" style="stop-color:#28A8E0"/>
				<stop  offset="0.1959" style="stop-color:#28A5DD"/>
				<stop  offset="0.3704" style="stop-color:#259ED7"/>
				<stop  offset="0.5368" style="stop-color:#2193CC"/>
				<stop  offset="0.6982" style="stop-color:#1C83BE"/>
				<stop  offset="0.8545" style="stop-color:#1571AD"/>
				<stop  offset="1" style="stop-color:#015F9D"/>
			</linearGradient>
			<path class="st4" d="M32.4-0.4c0,0-7.4,2.9-11.3,13.6s-8.3,12.2-16.7,8.2c0,0-0.4,6.7,9.3,5.9c0,0-0.5,5.2,2.1,8.2
				c0,0,2-2.3,3.7-10.4c0,0,11.8-4.4,14.8-12.7c3-8.3,8.5-7.9,8.5-7.9S38-5.7,32.4-0.4z"/>
			<radialGradient id="SVGID_5_" cx="31.9888" cy="1.4694" r="8.6955" gradientUnits="userSpaceOnUse">
				<stop  offset="0" style="stop-color:#121212"/>
				<stop  offset="1" style="stop-color:#000000"/>
			</radialGradient>
			<path class="st5" d="M31.4,0.1c-0.7,0.4-1.6,1-2.7,1.9c1.7-0.1,6.6,0.1,7,7.4c0,0,0,0,0,0c0.5-1,1.1-1.7,1.7-2.4
				C37.7,3.1,36.7-2.1,31.4,0.1z"/>
			<path class="st3" d="M32,2.3c0,0,0.1,12,2.7,6.3C34.7,8.6,32.9,10.7,32,2.3z"/>
			<path class="st6" d="M17.2,22.8c0,0,1.4,5.3-1.2,10.4c0,0-1.8-3.5-1.2-7.2c0,0-6.2,0.9-8-1.9C6.8,24.1,14.1,27.2,17.2,22.8z"/>
			<path class="st6" d="M28.3,3.6c0,0-5.1,3.9-8,15C20.3,18.6,25.5,5.6,28.3,3.6z"/>
		</g>
	</g>
	<g>
		<path class="st6" d="M40.6,22.3c0-0.6,0.4-1.1,1.1-1.1c0.3,0,0.5,0.1,0.9,0.3c1.1,0.9,2.3,1.4,3.6,1.4c3.1,0,4.1-1.9,4.1-4.3V17h0
			c-0.9,1.3-2.5,2-4.1,2c-3.6,0-5.9-2.7-5.9-6.1c0-3.4,2.3-6.1,5.9-6.1c1.7,0,3.4,0.7,4.2,2.2h0V8.2c0-1.1,0.8-1.2,1.1-1.2
			c0.3,0,1.1,0.2,1.1,1.2v10.1c0,3.4-1.6,6.6-6.5,6.6c-1.8,0-3.7-0.6-4.9-1.6C40.8,22.9,40.6,22.6,40.6,22.3z M46.5,17.1
			c2.4,0,4-1.8,4-4.1c0-2.2-1.6-4.1-4-4.1c-2.5,0-3.9,1.9-3.9,4.1C42.6,15.1,44.1,17.1,46.5,17.1z"/>
		<path class="st6" d="M56.9,9.2L56.9,9.2c0.6-1.3,2-2.3,3.5-2.3c0.7,0,1.4,0.3,1.4,1c0,0.8-0.6,1.1-1.4,1.1h-0.2
			c-1.8,0-3.2,1.4-3.2,3.9v4.9c0,1.1-0.8,1.3-1.2,1.3c-0.4,0-1.2-0.2-1.2-1.3V8.2c0-1.1,0.7-1.2,1.1-1.2c0.3,0,1.1,0.2,1.1,1.2V9.2z
			"/>
		<path class="st6" d="M69.8,17.3L69.8,17.3c-0.9,1.3-2.3,2-4,2c-1.9,0-4.3-0.9-4.3-3.6c0-3.6,4.2-4,8.2-4v-0.3
			c0-1.7-1.2-2.6-2.9-2.6c-1,0-1.9,0.3-2.8,0.9c-0.2,0.2-0.5,0.2-0.7,0.2c-0.5,0-0.9-0.4-0.9-0.9c0-0.3,0.1-0.6,0.5-0.9
			c1-0.7,2.5-1.2,4.1-1.2c3.4,0,4.9,2,4.9,4.6V18c0,1-0.7,1.2-1,1.2c-0.3,0-1.1-0.2-1.1-1.2V17.3z M69.1,13.4
			c-2.3,0-5.2,0.2-5.2,2.2c0,1.4,1.2,1.8,2.4,1.8c2.2,0,3.4-1.5,3.4-3.5v-0.6H69.1z"/>
		<path class="st6" d="M80.4,19.3c-1.7,0-3.3-0.8-4.1-2.1h-0.1v6.6c0,1.1-0.8,1.3-1.2,1.3c-0.4,0-1.2-0.2-1.2-1.3V8.3
			C73.9,7.2,74.6,7,75,7c0.4,0,1.1,0.2,1.1,1.3V9h0.1c0.8-1.2,2.3-2.2,4.2-2.2c3.5,0,5.9,2.7,5.9,6.2C86.3,16.5,84,19.3,80.4,19.3z
			 M80,8.8c-2.4,0-4,2-4,4.3s1.6,4.2,4,4.2c2.6,0,3.9-2.1,3.9-4.3S82.6,8.8,80,8.8z"/>
		<path class="st6" d="M95.8,12.5c0-1.9-0.5-3.6-2.7-3.6c-1.8,0-3.2,1.5-3.2,3.9v5.1c0,1.1-0.8,1.3-1.2,1.3c-0.4,0-1.2-0.2-1.2-1.3
			V1.3c0-1.1,0.8-1.3,1.2-1.3C89.2,0,90,0.2,90,1.3V9h0c0.5-1.2,2-2.1,3.7-2.1c3,0,4.4,2.2,4.4,4.8v6.2c0,1.1-0.8,1.3-1.2,1.3
			c-0.4,0-1.2-0.2-1.2-1.3V12.5z"/>
		<path class="st6" d="M101.3,4.4c-0.8,0-1.5-0.7-1.5-1.5c0-0.8,0.7-1.5,1.5-1.5c0.8,0,1.6,0.6,1.6,1.5
			C102.9,3.8,102.2,4.4,101.3,4.4z M102.5,17.9c0,1.1-0.8,1.3-1.2,1.3c-0.4,0-1.2-0.2-1.2-1.3V8.3c0-1.1,0.8-1.3,1.2-1.3
			c0.4,0,1.2,0.2,1.2,1.3V17.9z"/>
		<path class="st6" d="M113.2,16.2c0.6,0,1,0.4,1,0.9c0,0.3-0.1,0.6-0.5,1c-0.9,0.8-2.2,1.1-3.5,1.1c-3.7,0-6.3-2.5-6.3-6.2
			c0-3.7,2.7-6.2,6.3-6.2c1.2,0,2.5,0.3,3.5,1.1c0.4,0.3,0.6,0.7,0.6,1c0,0.6-0.4,1-1,1c-0.2,0-0.5-0.1-0.9-0.4
			c-0.4-0.4-1.2-0.7-2.1-0.7c-2.4,0-3.8,2-3.8,4.2c0,2.2,1.4,4.2,3.8,4.2c0.9,0,1.7-0.3,2.3-0.8C112.7,16.3,112.9,16.2,113.2,16.2z"
			/>
		<path class="st6" d="M118.1,9.2L118.1,9.2c0.6-1.3,2-2.3,3.5-2.3c0.7,0,1.4,0.3,1.4,1c0,0.8-0.6,1.1-1.4,1.1h-0.2
			c-1.8,0-3.2,1.4-3.2,3.9v4.9c0,1.1-0.8,1.3-1.2,1.3c-0.4,0-1.2-0.2-1.2-1.3V8.2c0-1.1,0.7-1.2,1.1-1.2c0.3,0,1.1,0.2,1.1,1.2V9.2z
			"/>
		<path class="st6" d="M125.5,4.4c-0.8,0-1.5-0.7-1.5-1.5c0-0.8,0.7-1.5,1.5-1.5S127,2.1,127,3C127,3.8,126.3,4.4,125.5,4.4z
			 M126.6,17.9c0,1.1-0.8,1.3-1.2,1.3c-0.4,0-1.2-0.2-1.2-1.3V8.3c0-1.1,0.8-1.3,1.2-1.3c0.4,0,1.2,0.2,1.2,1.3V17.9z"/>
		<path class="st6" d="M133.9,19.2c-0.5,0-1.3-0.2-1.7-1.3l-3.8-9.1c-0.1-0.3-0.1-0.5-0.1-0.7c0-0.6,0.5-1.1,1.2-1.1
			c0.4,0,0.9,0.1,1.2,0.9l3.4,8.5h0l3.4-8.5c0.3-0.8,0.8-0.9,1.2-0.9c0.6,0,1.1,0.5,1.1,1.1c0,0.1,0,0.3-0.1,0.6l-3.9,9.1
			C135.2,19,134.4,19.2,133.9,19.2z"/>
		<path class="st6" d="M142.3,13.8c0.1,2,1.8,3.6,3.8,3.6c1.4,0,2.3-0.6,3-1.3c0.3-0.3,0.6-0.4,0.8-0.4c0.5,0,1,0.4,1,1
			c0,0.2-0.1,0.5-0.4,0.8c-1.1,1.2-2.6,1.8-4.5,1.8c-3.6,0-6.2-2.5-6.2-6.2c0-3.7,2.6-6.2,6.1-6.2c3,0,5.1,1.7,5.6,4.9
			c0,0.3,0,0.5,0,0.8c0,0.8-0.4,1.2-1.2,1.2H142.3z M149.3,12c0-1.9-1.1-3.3-3.3-3.3c-2,0-3.6,1.5-3.7,3.3H149.3z"/>
		<path class="st6" d="M155.1,9.2L155.1,9.2c0.6-1.3,2-2.3,3.5-2.3c0.7,0,1.4,0.3,1.4,1c0,0.8-0.6,1.1-1.4,1.1h-0.2
			c-1.8,0-3.2,1.4-3.2,3.9v4.9c0,1.1-0.8,1.3-1.2,1.3c-0.4,0-1.2-0.2-1.2-1.3V8.2c0-1.1,0.7-1.2,1.1-1.2c0.3,0,1.1,0.2,1.1,1.2V9.2z
			"/>
	</g>
</g>
</svg>
