<?xml version="1.0" encoding="utf-8"?>
<!-- Generator: Adobe Illustrator 19.0.1, SVG Export Plug-In . SVG Version: 6.00 Build 0)  -->
<svg version="1.1" id="Слой_1" xmlns="http://www.w3.org/2000/svg" xmlns:xlink="http://www.w3.org/1999/xlink" x="0px" y="0px"
	 viewBox="0 0 160.4 30.6" style="enable-background:new 0 0 160.4 30.6;" xml:space="preserve">
<style type="text/css">
	.st0{fill:#FFFFFF;}
	.st1{fill:url(#SVGID_1_);stroke:#060606;}
	.st2{clip-path:url(#SVGID_2_);}
	.st3{fill:#060606;}
	.st4{fill:url(#SVGID_3_);}
	.st5{opacity:0.42;fill:url(#SVGID_4_);}
	.st6{opacity:0.17;fill:#FFFFFF;}
</style>
<g>
	<g>
		<path class="st0" d="M38.9,20.2c-2.3,0-3.6-1.3-3.6-3.9V5.3c0-1.1,0.8-1.4,1.2-1.4c0.4,0,1.2,0.2,1.2,1.4v2.4h2.4
			c1,0,1.1,0.7,1.1,1c0,0.3-0.2,1-1.1,1h-2.4v6.4c0,1.5,0.6,2.1,1.5,2.1c0.2,0,0.3,0,0.5-0.1c0.2-0.1,0.3-0.1,0.4-0.1
			c0.6,0,1,0.4,1,1c0,0.4-0.2,0.7-0.7,1C40.1,20.1,39.5,20.2,38.9,20.2z"/>
		<path class="st0" d="M51.1,13.2c0-2-0.5-3.8-2.8-3.8c-1.9,0-3.3,1.6-3.3,4.1v5.4c0,1.1-0.8,1.4-1.2,1.4c-0.4,0-1.2-0.2-1.2-1.4
			V1.5c0-1.1,0.8-1.4,1.2-1.4c0.4,0,1.2,0.2,1.2,1.4v8.1H45c0.6-1.2,2.1-2.2,3.9-2.2c3.2,0,4.6,2.3,4.6,5v6.5c0,1.1-0.8,1.4-1.2,1.4
			c-0.4,0-1.2-0.2-1.2-1.4V13.2z"/>
		<path class="st0" d="M57.3,14.6c0.1,2.1,1.9,3.8,4,3.8c1.5,0,2.4-0.6,3.2-1.3c0.3-0.3,0.6-0.4,0.9-0.4c0.6,0,1,0.4,1,1
			c0,0.2-0.1,0.5-0.4,0.9c-1.2,1.2-2.7,1.9-4.7,1.9c-3.8,0-6.5-2.6-6.5-6.5c0-3.9,2.8-6.5,6.4-6.5c3.1,0,5.4,1.8,5.9,5.2
			c0.1,0.4,0.1,0.5,0.1,0.8c0,0.9-0.4,1.3-1.3,1.3H57.3z M64.7,12.8c-0.1-2-1.2-3.5-3.5-3.5c-2.1,0-3.7,1.6-3.9,3.5H64.7z"/>
		<path class="st0" d="M68.5,8.8c0-1.1,0.8-1.3,1.2-1.3c0.4,0,1.1,0.2,1.1,1.3v0.9h0.1c0.6-1.3,2.1-2.4,3.9-2.4
			c1.6,0,3.1,0.7,3.8,2.5c0.8-1.6,2.4-2.5,4.2-2.5c3.2,0,4.6,2.3,4.6,5v6.5c0,1.1-0.8,1.4-1.2,1.4c-0.4,0-1.2-0.2-1.2-1.4v-5.7
			c0-2-0.6-3.8-2.7-3.8c-2.2,0-3.1,2-3.1,4v5.5c0,1.1-0.8,1.4-1.2,1.4c-0.4,0-1.2-0.2-1.2-1.4v-6.2c0-1.9-0.7-3.3-2.6-3.3
			c-1.8,0-3.2,1.6-3.2,4.1v5.4c0,1.1-0.8,1.4-1.2,1.4s-1.2-0.2-1.2-1.4V8.8z"/>
		<path class="st0" d="M91.2,14.6c0.1,2.1,1.9,3.8,4,3.8c1.5,0,2.4-0.6,3.2-1.3c0.3-0.3,0.6-0.4,0.9-0.4c0.6,0,1,0.4,1,1
			c0,0.2-0.1,0.5-0.4,0.9c-1.2,1.2-2.7,1.9-4.7,1.9c-3.8,0-6.5-2.6-6.5-6.5c0-3.9,2.8-6.5,6.4-6.5c3.1,0,5.4,1.8,5.9,5.2
			c0.1,0.4,0.1,0.5,0.1,0.8c0,0.9-0.4,1.3-1.3,1.3H91.2z M98.5,12.8c-0.1-2-1.2-3.5-3.5-3.5c-2.1,0-3.7,1.6-3.9,3.5H98.5z"/>
		<path class="st0" d="M106.3,18.9c0,1.1-0.8,1.4-1.2,1.4c-0.4,0-1.2-0.2-1.2-1.4V9.7h-1.5c-1,0-1.1-0.7-1.1-1c0-0.3,0.2-1,1.1-1
			h1.5V5.1c0-2.9,1.3-5.1,4.5-5.1c1.4,0,1.7,0.5,1.7,1.1c0,0.5-0.3,1-1.2,1h-0.4c-1.8,0-2.2,1.2-2.2,3v2.6h2c1,0,1.1,0.7,1.1,1
			c0,0.3-0.2,1-1.1,1h-2V18.9z"/>
		<path class="st0" d="M115.8,20.4c-3.8,0-6.7-2.7-6.7-6.5c0-3.8,2.9-6.5,6.7-6.5c3.8,0,6.7,2.7,6.7,6.5
			C122.4,17.6,119.5,20.4,115.8,20.4z M115.8,9.4c-2.6,0-4.1,2.1-4.1,4.5c0,2.3,1.5,4.5,4.1,4.5c2.7,0,4.1-2.1,4.1-4.5
			C119.9,11.5,118.4,9.4,115.8,9.4z"/>
		<path class="st0" d="M126.1,9.8L126.1,9.8c0.7-1.4,2.1-2.4,3.7-2.4c0.8,0,1.4,0.3,1.4,1.1c0,0.9-0.7,1.2-1.5,1.2h-0.2
			c-1.9,0-3.3,1.4-3.3,4.1v5.2c0,1.1-0.8,1.4-1.2,1.4s-1.2-0.2-1.2-1.4V8.8c0-1.1,0.8-1.3,1.2-1.3c0.4,0,1.1,0.2,1.1,1.3V9.8z"/>
		<path class="st0" d="M132.8,14.6c0.1,2.1,1.9,3.8,4,3.8c1.5,0,2.4-0.6,3.2-1.3c0.3-0.3,0.6-0.4,0.9-0.4c0.6,0,1,0.4,1,1
			c0,0.2-0.1,0.5-0.4,0.9c-1.2,1.2-2.7,1.9-4.7,1.9c-3.8,0-6.5-2.6-6.5-6.5c0-3.9,2.8-6.5,6.4-6.5c3.1,0,5.4,1.8,5.9,5.2
			c0.1,0.4,0.1,0.5,0.1,0.8c0,0.9-0.4,1.3-1.3,1.3H132.8z M140.2,12.8c-0.1-2-1.2-3.5-3.5-3.5c-2.1,0-3.7,1.6-3.9,3.5H140.2z"/>
		<path class="st0" d="M148.3,9.3c-1.1,0-2.3,0.4-2.3,1.6c0,1,0.9,1.4,2.8,1.9c2.3,0.5,4.1,1.5,4.1,3.7c0,2.9-2.4,4-4.9,4
			c-1.5,0-3-0.5-4.1-1.4c-0.4-0.4-0.5-0.8-0.5-1c0-0.6,0.4-1.1,1.1-1.1c0.3,0,0.6,0.1,0.9,0.4c0.8,0.7,1.6,1.1,2.7,1.1
			c1.2,0,2.5-0.4,2.5-1.8c0-1.1-1.1-1.6-3.2-2.1c-1.6-0.4-3.6-1.1-3.6-3.4c0-2.7,2.3-3.8,4.7-3.8c1.3,0,2.7,0.4,3.6,1.2
			c0.5,0.4,0.6,0.8,0.6,1c0,0.6-0.4,1.1-1.1,1.1c-0.2,0-0.5-0.1-0.8-0.4C150,9.5,149.2,9.3,148.3,9.3z"/>
		<path class="st0" d="M158.1,20.2c-2.3,0-3.6-1.3-3.6-3.9V5.3c0-1.1,0.8-1.4,1.2-1.4c0.4,0,1.2,0.2,1.2,1.4v2.4h2.4
			c1,0,1.1,0.7,1.1,1c0,0.3-0.2,1-1.1,1h-2.4v6.4c0,1.5,0.6,2.1,1.5,2.1c0.2,0,0.3,0,0.5-0.1c0.2-0.1,0.3-0.1,0.4-0.1
			c0.6,0,1,0.4,1,1c0,0.4-0.2,0.7-0.7,1C159.3,20.1,158.7,20.2,158.1,20.2z"/>
	</g>
	<radialGradient id="SVGID_1_" cx="8.3171" cy="9.472" r="17.793" gradientUnits="userSpaceOnUse">
		<stop  offset="0" style="stop-color:#373638"/>
		<stop  offset="1" style="stop-color:#060606"/>
	</radialGradient>
	<path class="st1" d="M0.5,22.2c0,0.9,0.7,1.6,1.6,1.6h19.9c0.9,0,1.6-0.7,1.6-1.6V2.3c0-0.9-0.7-1.6-1.6-1.6H2.1
		c-0.9,0-1.6,0.7-1.6,1.6V22.2z"/>
	<g>
		<defs>
			<path id="SVGID_5_" d="M33.8,12.8c-0.8-6-7.9-4.3-3.9-2.5c3.8,1.7-5.3,3.5-6.3,3.7V2.7c0-1.1-0.7-2-1.6-2H2.1
				c-0.9,0-1.6,0.9-1.6,2v25.2c0,1.1,0.7,2,1.6,2H22c0.3,0,0.6-0.1,0.8-0.3c2.5,0.5,6.6,1.2,7.9,0.9c2-0.4,3.6-3.8,3.6-4
				S34.6,18.8,33.8,12.8z"/>
		</defs>
		<clipPath id="SVGID_2_">
			<use xlink:href="#SVGID_5_"  style="overflow:visible;"/>
		</clipPath>
		<g class="st2">
			<path class="st0" d="M29.5,15.2c0,0,1.4,0.1,1.6,0.6c0.2,0.5-1.2,0.9-1.2,0.9L29.5,15.2z"/>
			<path class="st3" d="M31.8,15.6c-0.3-0.8-1.5-1-2.2-1.1l-0.8,0.9l0.4,1.6l1,0.5c0.5-0.2,1.3-0.5,1.6-1.1
				C31.9,16.1,31.9,15.8,31.8,15.6z M29.9,16.8l-0.4-1.6c0,0,1.4,0.1,1.6,0.6C31.3,16.3,29.9,16.8,29.9,16.8z"/>
			<path class="st0" d="M29.1,18.5c0,0,1.1,0.1,1.3,0.5c0.2,0.4-1,0.8-1,0.8L29.1,18.5z"/>
			<path class="st3" d="M30.9,18.8c-0.3-0.7-1.2-0.9-1.8-0.9l-0.7,0.8l0.3,1.3l0.8,0.4c0.4-0.1,1.1-0.4,1.3-0.9
				C31,19.3,31,19,30.9,18.8z M29.4,19.8l-0.3-1.3c0,0,1.1,0.1,1.3,0.5C30.5,19.4,29.4,19.8,29.4,19.8z"/>
			<path class="st0" d="M28.5,21c0,0,0.9,0.1,1.1,0.4c0.1,0.3-0.8,0.6-0.8,0.6L28.5,21z"/>
			<path class="st3" d="M30,21.3c-0.2-0.6-1-0.7-1.5-0.7L28,21.2l0.3,1.1l0.6,0.4c0.3-0.1,0.9-0.3,1.1-0.7
				C30.1,21.7,30.1,21.5,30,21.3z M28.7,22.1L28.5,21c0,0,0.9,0.1,1.1,0.4C29.6,21.8,28.7,22.1,28.7,22.1z"/>
			<path class="st3" d="M29.4,23.1c-0.2-0.6-1-0.7-1.5-0.7L27.3,23l0.3,1.1l0.6,0.4c0.3-0.1,0.9-0.3,1.1-0.7
				C29.4,23.5,29.4,23.3,29.4,23.1z M28.1,23.9l-0.3-1.1c0,0,0.9,0.1,1.1,0.4C29,23.6,28.1,23.9,28.1,23.9z"/>
			<linearGradient id="SVGID_3_" gradientUnits="userSpaceOnUse" x1="9.2961" y1="15.1088" x2="29.658" y2="15.1088">
				<stop  offset="0" style="stop-color:#B68451"/>
				<stop  offset="0.1986" style="stop-color:#A47341"/>
				<stop  offset="0.4948" style="stop-color:#906131"/>
				<stop  offset="0.7695" style="stop-color:#845729"/>
				<stop  offset="1" style="stop-color:#805327"/>
			</linearGradient>
			<path class="st4" d="M21.6,14.9c0,0,6-1.1,7.4,0.4s-0.1,2.2-0.1,2.2s0.9,1.6-0.5,3c0,0,0.6,1.2-0.4,2.1c0,0,0.3,1.3-4,2.1
				S7.6,27.9,9.5,18.4s12-13.6,14.1-13.6v9.7l0.9,0.2L21.6,14.9z"/>
			<radialGradient id="SVGID_4_" cx="22.4399" cy="5.7408" r="7.9781" gradientUnits="userSpaceOnUse">
				<stop  offset="0" style="stop-color:#121212"/>
				<stop  offset="1" style="stop-color:#000000"/>
			</radialGradient>
			<path class="st5" d="M20.9,4.8l2,9.5l1.2-0.2C24.1,14.1,27-0.2,20.9,4.8z"/>
			<path class="st3" d="M29.7,14.5c-0.6-0.6-1.5-0.9-2.9-0.9c-0.5,0-1.1,0-1.8,0.1V4.8l-1.5-1.5C20.6,3.3,10,7.9,8,18.1
				c-0.5,2.6-0.1,4.7,1.1,6.2c1.4,1.7,3.9,2.6,7.3,2.6c2.6,0,5.4-0.5,7.2-0.8l0.7-0.1c2.6-0.4,3.8-1,4.5-2.1c0.1-0.2,0.2-0.8,0.2-1
				c0.6-0.8,0.7-1.6,0.6-2.3c0.4-0.7,0.6-1.3,0.5-1.8c0-0.3-0.2-0.6,0-0.8c0.2-0.3,0.5-0.6,0.5-1.1C30.6,16.2,30.7,15.5,29.7,14.5z
				 M28.9,17.4c0,0,0.9,1.6-0.5,3c0,0,0.6,1.2-0.4,2.1c0,0,0.3,1.3-4,2.1S7.6,27.9,9.5,18.4s12-13.6,14.1-13.6v9.7l-2,0.4
				c2.8-0.5,6.6-0.4,7.2,0.3C30.2,16.7,28.9,17.4,28.9,17.4z"/>
			<path class="st3" d="M23.8,14.6c0,0-4.6,0.5-8.4,1.6c0,0,2.7-1.5,9.3-2.4L23.8,14.6z"/>
			<path class="st3" d="M21,14.6c0,0-3.4-0.6-4.9-0.1l3.4,0.6L21,14.6z"/>
			<polygon class="st3" points="28.4,22.5 26.8,22.5 29,21.9 			"/>
			<polygon class="st3" points="28.6,20.4 26.5,20.7 29,20.9 			"/>
			<polygon class="st3" points="29.3,17.8 26.7,17.6 29.9,17.1 			"/>
			<path class="st6" d="M28.1,22.5c-0.1-0.1-0.2-0.2-0.2-0.2s-3.7,1.9-12.5,2.2c-6.8,0.3-5.8-6.3-5-9.3c-0.4,1-0.7,2-1,3.1
				c-1.9,9.5,10.2,6.9,14.6,6.1C27.7,23.9,28.1,22.8,28.1,22.5z"/>
		</g>
	</g>
</g>
</svg>
