<?xml version="1.0" encoding="utf-8"?>
<!-- Generator: Adobe Illustrator 19.0.1, SVG Export Plug-In . SVG Version: 6.00 Build 0)  -->
<svg version="1.1" id="Слой_1" xmlns="http://www.w3.org/2000/svg" xmlns:xlink="http://www.w3.org/1999/xlink" x="0px" y="0px"
	 viewBox="0 0 160 25.6" style="enable-background:new 0 0 160 25.6;" xml:space="preserve">
<style type="text/css">
	.st0{fill:#FFFFFF;}
	.st1{fill:url(#SVGID_1_);stroke:#060606;}
	.st2{clip-path:url(#SVGID_3_);fill:#FFFFFF;}
	.st3{clip-path:url(#SVGID_3_);fill:#E6E6E6;}
	.st4{clip-path:url(#SVGID_3_);fill:url(#SVGID_4_);}
	.st5{clip-path:url(#SVGID_3_);fill:#060606;}
	.st6{clip-path:url(#SVGID_3_);}
	.st7{fill:url(#SVGID_5_);}
	.st8{opacity:0.8;fill:#FFFFFF;}
	.st9{fill:#1472BC;}
	.st10{clip-path:url(#SVGID_3_);fill:#231F20;}
</style>
<g>
	<g>
		<path class="st0" d="M43.5,16.6c0.6,0,1,0.5,1,1c0,0.3-0.1,0.7-0.6,1c-0.9,0.8-2.3,1.2-3.6,1.2c-3.8,0-6.5-2.5-6.5-6.4
			c0-3.8,2.8-6.4,6.5-6.4c1.3,0,2.6,0.4,3.5,1.1c0.5,0.4,0.6,0.7,0.6,1c0,0.6-0.5,1-1.1,1c-0.3,0-0.5-0.1-0.9-0.5
			c-0.5-0.4-1.2-0.7-2.1-0.7c-2.5,0-4,2-4,4.4c0,2.3,1.4,4.3,3.9,4.3c1,0,1.7-0.3,2.3-0.8C43,16.7,43.2,16.6,43.5,16.6z"/>
		<path class="st0" d="M51.9,19.8c-3.7,0-6.5-2.7-6.5-6.4c0-3.7,2.8-6.4,6.5-6.4s6.5,2.6,6.5,6.4C58.5,17.2,55.6,19.8,51.9,19.8z
			 M51.9,9.1c-2.6,0-4,2.1-4,4.4c0,2.3,1.5,4.4,4,4.4c2.6,0,4-2.1,4-4.4C56,11.1,54.5,9.1,51.9,9.1z"/>
		<path class="st0" d="M71.2,19.7c-0.4,0-1.2-0.2-1.2-1.3v-0.8H70c-0.9,1.5-2.7,2.2-4.4,2.2c-3.7,0-6.1-2.9-6.1-6.4
			c0-3.6,2.5-6.4,6.1-6.4c2,0,3.5,1,4.3,2.1h0.1V1.3c0-1.1,0.8-1.3,1.2-1.3c0.4,0,1.2,0.2,1.2,1.3v17.1
			C72.3,19.5,71.5,19.7,71.2,19.7z M66,17.8c2.5,0,4.1-2,4.1-4.4S68.5,9.1,66,9.1c-2.6,0-4,2.1-4,4.4C62,15.7,63.4,17.8,66,17.8z"/>
		<path class="st0" d="M76.2,14.2c0.1,2.1,1.8,3.7,3.9,3.7c1.5,0,2.4-0.6,3.1-1.3c0.3-0.3,0.6-0.4,0.8-0.4c0.6,0,1,0.4,1,1
			c0,0.2-0.1,0.5-0.4,0.9c-1.2,1.2-2.7,1.8-4.6,1.8c-3.7,0-6.4-2.6-6.4-6.4c0-3.8,2.7-6.4,6.3-6.4c3,0,5.3,1.8,5.7,5.1
			c0.1,0.4,0.1,0.5,0.1,0.8c0,0.8-0.4,1.2-1.3,1.2H76.2z M83.4,12.4C83.4,10.5,82.2,9,80,9c-2.1,0-3.7,1.5-3.8,3.4H83.4z"/>
		<path class="st0" d="M96.5,16.6c0.6,0,1,0.5,1,1c0,0.3-0.1,0.7-0.6,1c-0.9,0.8-2.3,1.2-3.6,1.2c-3.8,0-6.5-2.5-6.5-6.4
			c0-3.8,2.8-6.4,6.5-6.4c1.3,0,2.6,0.4,3.5,1.1c0.5,0.4,0.6,0.7,0.6,1c0,0.6-0.5,1-1.1,1c-0.3,0-0.5-0.1-0.9-0.5
			c-0.5-0.4-1.2-0.7-2.1-0.7c-2.5,0-4,2-4,4.4c0,2.3,1.4,4.3,3.9,4.3c1,0,1.7-0.3,2.3-0.8C96,16.7,96.2,16.6,96.5,16.6z"/>
		<path class="st0" d="M106.9,17.8L106.9,17.8c-0.9,1.3-2.3,2-4.1,2c-1.9,0-4.4-0.9-4.4-3.7c0-3.6,4.3-4.1,8.4-4.1v-0.3
			c0-1.8-1.2-2.7-3-2.7c-1,0-1.9,0.3-2.9,0.9c-0.3,0.2-0.5,0.3-0.7,0.3c-0.5,0-0.9-0.4-0.9-0.9c0-0.3,0.1-0.7,0.5-0.9
			c1-0.8,2.5-1.3,4.2-1.3c3.5,0,5.1,2.1,5.1,4.7v6.7c0,1-0.7,1.2-1.1,1.2c-0.4,0-1.1-0.2-1.1-1.2V17.8z M106.2,13.7
			c-2.4,0-5.4,0.3-5.4,2.3c0,1.4,1.3,1.9,2.5,1.9c2.2,0,3.5-1.5,3.5-3.5v-0.6H106.2z"/>
		<path class="st0" d="M113.3,9.4L113.3,9.4c0.7-1.3,2.3-2.3,4-2.3c3.1,0,4.5,2.2,4.5,4.9v6.4c0,1.1-0.8,1.3-1.2,1.3
			c-0.4,0-1.2-0.2-1.2-1.3v-5.6c0-2-0.5-3.7-2.8-3.7c-1.9,0-3.2,1.6-3.2,4v5.3c0,1.1-0.8,1.3-1.2,1.3s-1.2-0.2-1.2-1.3V8.5
			c0-1.1,0.8-1.3,1.1-1.3c0.4,0,1.1,0.2,1.1,1.3V9.4z"/>
		<path class="st0" d="M129,22.4c-0.9,2.2-1.9,3.3-4.2,3.3c-0.9,0-1.7-0.4-1.7-1.1c0-0.5,0.3-1,1-1c0.2,0,0.4,0,0.6,0
			c0.9,0,1.6-0.4,2.2-2l0.8-2L123,9c-0.1-0.3-0.2-0.5-0.2-0.7c0-0.7,0.5-1.1,1.2-1.1c0.4,0,0.9,0.2,1.2,0.9l3.6,8.7h0.1l3.2-8.7
			c0.3-0.8,0.8-1,1.2-1c0.7,0,1.2,0.5,1.2,1.1c0,0.2,0,0.3-0.2,0.7L129,22.4z"/>
		<path class="st0" d="M141.4,19.8c-3.7,0-6.5-2.7-6.5-6.4c0-3.7,2.8-6.4,6.5-6.4c3.7,0,6.5,2.6,6.5,6.4
			C147.9,17.2,145.1,19.8,141.4,19.8z M141.4,9.1c-2.6,0-4,2.1-4,4.4c0,2.3,1.5,4.4,4,4.4c2.6,0,4-2.1,4-4.4
			C145.4,11.1,144,9.1,141.4,9.1z"/>
		<path class="st0" d="M151.5,9.4L151.5,9.4c0.7-1.3,2.3-2.3,4-2.3c3.1,0,4.5,2.2,4.5,4.9v6.4c0,1.1-0.8,1.3-1.2,1.3
			c-0.4,0-1.2-0.2-1.2-1.3v-5.6c0-2-0.5-3.7-2.8-3.7c-1.9,0-3.2,1.6-3.2,4v5.3c0,1.1-0.8,1.3-1.2,1.3c-0.4,0-1.2-0.2-1.2-1.3V8.5
			c0-1.1,0.8-1.3,1.1-1.3c0.4,0,1.1,0.2,1.1,1.3V9.4z"/>
	</g>
	<radialGradient id="SVGID_1_" cx="10.2295" cy="10.1291" r="17.4046" gradientUnits="userSpaceOnUse">
		<stop  offset="0" style="stop-color:#373638"/>
		<stop  offset="1" style="stop-color:#060606"/>
	</radialGradient>
	<path class="st1" d="M2.6,22.6c0,0.9,0.7,1.6,1.6,1.6h19.5c0.9,0,1.6-0.7,1.6-1.6V3.1c0-0.9-0.7-1.6-1.6-1.6H4.2
		c-0.9,0-1.6,0.7-1.6,1.6V22.6z"/>
	<g>
		<defs>
			<path id="SVGID_2_" d="M3.7,1.9C3.5,1.9,3.2,2,2.9,2.1v4.4c-1.4,1.3-3.7,2.8-2.7,3.7c0.5,0.5,1,1.1,2.7,1.2v11.2
				c0,0-0.1,1.2,1,1.2s19.6,0,19.6,0l0.5-0.4l-0.1-3.9c0,0,1.3-0.8,2.4,0.5l4.5,0.8l1.3-8.1l1.5-10.7"/>
		</defs>
		<clipPath id="SVGID_3_">
			<use xlink:href="#SVGID_2_"  style="overflow:visible;"/>
		</clipPath>
		<path class="st2" d="M25.1,9.3c0-4.1-8.5-6.9-8.5-6.9s-6.2-1.5-7.3-2.3c0,0,0.7,1.8,1.8,2.3c0,0-4.9-0.8-6-0.8l3,2.3
			c0,0-4.2,3.7-5,3.5c0,0,1.5,0.2,2.4-0.4c0,0-3,3.7-3.8,3.8h1.9c-1,2-1.7,3.7-1.7,3.7s-7.3,13.3,1.7,12.3c4.4-0.5,7.3-1,9.2-1.5
			c0.2,0.1,0.3,0.2,0.5,0.3c5.3,3.4,12.3-2.3,12.3-2.3l-2.7-7.1l0.6-1.6c0.5-0.2,4.6,1.4,4.6,1.4c0.5,0.8,0.1,2.3,0.1,2.3
			C33.2,13.7,25.1,9.3,25.1,9.3z"/>
		<path class="st3" d="M22.3,16.5c0,0,2.1,4.9-3.6,9.6s-9.3-1.7-9.3-1.7c1.9-1.4,2.6-4.6,2.6-4.6c-8.4,6.2-8.4,0.7-8.4,0.7l-0.8,0.8
			l2.1-4.3c-0.6,1.1-1.4,1.7-1.4,1.7l0.4-4.2L3,15.8l0.9-3L2.5,13c-0.4,1-0.7,1.6-0.7,1.6S0.5,17-0.3,19.7c0.9,2.6,2.7,5.4,4.3,7.2
			c4.1-0.5,6.9-1,8.7-1.5c0.2,0.1,0.3,0.2,0.5,0.3c5.3,3.4,12.3-2.3,12.3-2.3L23.1,17C22.6,16.7,22.3,16.5,22.3,16.5z"/>
		<linearGradient id="SVGID_4_" gradientUnits="userSpaceOnUse" x1="18.4087" y1="13.8602" x2="29.805" y2="13.8602">
			<stop  offset="0" style="stop-color:#F1802B"/>
			<stop  offset="1" style="stop-color:#F7A927"/>
		</linearGradient>
		<path class="st4" d="M25.1,9.3C25.1,9.3,25.1,9.3,25.1,9.3c-0.5-0.1-1.2,0-1,0.8c0.3,1.4,0.3,2.6-2.1,2.4
			c-2.4-0.2-3.6,0.9-3.6,0.9s3.9-0.2,5,1.5l0,0c0.5-0.2,4.2,1.9,4.2,1.9c0.5,0.8,0.6,1.8,0.6,1.8C33.2,13.7,25.1,9.3,25.1,9.3z"/>
		<path class="st5" d="M-0.7,26.7c-0.7-0.5-0.9-1.3-0.9-2.1l0,0c0-1.5,0.8-3.1,1.7-4.7l0,0c0.8-1.4,1.8-2.7,2.5-3.6l0,0
			c-0.7-0.9-1.2-1.4-1.2-1.4l0,0c-0.1-0.1-0.1-0.3-0.1-0.5l0,0c0,0,0.5-1.3,1.3-3l0,0c0,0,0.3-0.2-1.6-0.5l0,0
			c0-0.3,2.4-1.4,3.4-3.1L1.8,8c1.5-0.7,5.8-4,5.8-4L4.7,1.6c-0.2-0.2,5.4,0.6,5.4,0.6C9.5,1.4,8.4,0,8.4,0c0-0.2,2.2,0.5,2.2,0.5
			c0.6,0.3,2.1,0.6,2.9,0.8l0,0c1.6,0.4,8,2.2,10.6,4.8l0,0c0.8,0.8,1.4,1.8,1.5,2.9l0,0c0.4,0.3,1.3,0.8,2.2,1.6l0,0
			c1.2,1.1,2.3,2.7,2.3,4.7c0,0,0,0.7-1,2.6l-0.5,1c-0.2,0.2-2-2.7-2.7-3l0,0c-0.8-0.3-1.8-0.6-2.2-0.6l0,0l-0.4,1l2.5,7.5
			c0,0-4.2,3.5-8.8,3.5l0,0c-1.4,0-2.8-0.3-4.1-1.1l0,0c-0.1-0.1-0.2-0.1-0.3-0.2l0,0c-1.9,0.5-4.8,1-9.1,1.5l0,0
			c-0.5,0.1-0.9,0.1-1.3,0.1l0,0C0.9,27.5,0,27.3-0.7,26.7L-0.7,26.7z M2.7,16.1c0.2,0.2-0.8,2.8-1.7,4.3l0,0
			c-0.9,1.5-1.6,3.1-1.6,4.2l0,0c0,0.6,0.2,1,0.6,1.3l0,0c0.4,0.3,1.1,0.6,2.3,0.6l0,0c0.4,0,0.8,0,1.2-0.1l0,0
			c4.4-0.5,7.3-1,9.2-1.5l0,0c0.1,0,0.3,0,0.4,0.1l0,0c0.2,0.1,0.3,0.2,0.5,0.3l0,0c1.1,0.7,2.3,1,3.5,1l0,0c3.1,0,6.1-1.8,7.5-2.8
			l0,0c0.2-0.1,0.3-0.2,0.4-0.3l0,0l-2.6-6.7c0-0.1,0-0.2,0-0.4l0,0l0.6-1.6c0-0.1,0.1-0.2,0.3-0.3l0,0c0.1-0.1,0.2-0.1,0.3-0.1l0,0
			c0.6,0,1.7,0.4,2.7,0.7l0,0c1,0.4,2.4,2.6,2.4,3l0.3-0.9c0.2-1,0.3-1.3,0.3-1.9l0,0c0-2.1-2.4-4.2-3.8-5l0,0
			c-0.4-0.3-0.7-0.4-0.7-0.4l0,0l0.2-0.4h0.5h-0.5l-0.2,0.4c-0.2-0.1-0.3-0.3-0.3-0.4l0,0c0,0,0,0,0,0l0,0c0-1.2-1-2.5-2.5-3.5l0,0
			c-1.4-1-3.2-1.9-4.4-2.3l0,0c-0.7-0.3-1.1-0.4-1.3-0.5l0,0C16,2.8,9.5,0.6,9.5,0.6l2,2.1c0,0-6.5-1.1-6.5-1.1c0,0,3.3,2.3,3.3,2.3
			c0,0-3.9,3.3-3.9,3.3c0.1,0,2.1-0.8,1.9-0.2c0,0-1.6,2-4.2,3.7c0,0,1.7,0.2,1.6,0.3l0.1,0.1c-0.7,1.5-1.3,2.8-1.5,3.4l0,0
			C2.6,14.8,2.7,16.1,2.7,16.1z"/>
		<g class="st6">
			<radialGradient id="SVGID_5_" cx="15.4204" cy="9.7144" r="1.4795" gradientUnits="userSpaceOnUse">
				<stop  offset="0" style="stop-color:#121212"/>
				<stop  offset="0.5077" style="stop-color:#0F0F0F"/>
				<stop  offset="0.8627" style="stop-color:#060606"/>
				<stop  offset="1" style="stop-color:#000000"/>
			</radialGradient>
			<ellipse class="st7" cx="15.4" cy="9.7" rx="1.5" ry="1.4"/>
			<ellipse cx="15.4" cy="9.7" rx="0.9" ry="0.8"/>
			<ellipse class="st8" cx="15.2" cy="8.9" rx="0.5" ry="0.4"/>
			<ellipse class="st9" cx="15.6" cy="9.9" rx="0.3" ry="0.3"/>
		</g>
		<path class="st5" d="M23.1,15.1c0,0-2.2-1.8-4.7-1.7c0,0,0.5-0.8,5.5,1L23.1,15.1z"/>
		<path class="st10" d="M27.2,16.3c0,0-1.7-1.6-4.8-3.1c0,0,4.5,1.5,4.9,2.8L27.2,16.3z"/>
		<path class="st2" d="M21.7,9.6c0.1,0,0.2,0.1,0.2,0.1s-6.5,0.3-10.6-2.1C7.5,5.2,20,9,21.7,9.6z"/>
		<path class="st5" d="M25.2,9.5c0,0-1,0.3-0.7,1.1c0,0-0.4,0.9-2.3-0.4c0,0,1.7,0.7,1.6,0.1c-0.1-0.7,0.4-1.9,1.2-1.4l0.2,0.9"/>
		<path class="st10" d="M2.1,21.1c0,0,1.9-1.4,2.4-2.8c0,0-1.4,4-2,4.4L2.1,21.1z"/>
		<polygon class="st10" points="2.4,19 3.6,15.2 2.7,21.4 		"/>
	</g>
</g>
</svg>
