<?xml version="1.0" encoding="utf-8"?>
<!-- Generator: Adobe Illustrator 19.0.1, SVG Export Plug-In . SVG Version: 6.00 Build 0)  -->
<svg version="1.1" id="Слой_1" xmlns="http://www.w3.org/2000/svg" xmlns:xlink="http://www.w3.org/1999/xlink" x="0px" y="0px"
	 viewBox="0 0 160.5 36.7" style="enable-background:new 0 0 160.5 36.7;" xml:space="preserve">
<style type="text/css">
	.st0{fill:#FFFFFF;}
	.st1{fill:url(#SVGID_1_);stroke:#060606;}
	.st2{clip-path:url(#SVGID_2_);}
	.st3{fill:url(#SVGID_3_);}
	.st4{fill:#060606;}
	.st5{fill:url(#SVGID_5_);}
</style>
<g>
	<g>
		<path class="st0" d="M48.9,21.9L48.9,21.9c-1.2,1.6-2.9,2.5-5.1,2.5c-2.4,0-5.4-1.2-5.4-4.6c0-4.5,5.3-5,10.4-5v-0.4
			c0-2.2-1.5-3.3-3.7-3.3c-1.3,0-2.4,0.4-3.5,1.2c-0.3,0.2-0.6,0.3-0.9,0.3c-0.6,0-1.1-0.5-1.1-1.2c0-0.4,0.2-0.8,0.7-1.2
			c1.3-0.9,3.1-1.5,5.2-1.5c4.3,0,6.2,2.5,6.2,5.8v8.2c0,1.3-0.9,1.5-1.3,1.5c-0.4,0-1.4-0.2-1.4-1.5V21.9z M48,16.9
			c-2.9,0-6.6,0.3-6.6,2.8c0,1.8,1.6,2.3,3,2.3c2.8,0,4.3-1.9,4.3-4.4v-0.8H48z"/>
		<path class="st0" d="M64.9,20.5c0.8,0,1.2,0.6,1.2,1.2c0,0.4-0.1,0.8-0.7,1.3c-1.2,1-2.8,1.4-4.5,1.4c-4.6,0-7.9-3.1-7.9-7.9
			c0-4.7,3.4-7.9,7.9-7.9c1.6,0,3.2,0.4,4.4,1.4c0.6,0.4,0.8,0.9,0.8,1.3c0,0.8-0.6,1.3-1.3,1.3c-0.3,0-0.6-0.1-1.2-0.6
			c-0.6-0.5-1.5-0.9-2.6-0.9c-3.1,0-4.9,2.5-4.9,5.4c0,2.8,1.7,5.3,4.8,5.3c1.2,0,2.1-0.3,2.9-1C64.3,20.6,64.6,20.5,64.9,20.5z"/>
		<path class="st0" d="M73.2,24.3c-2.8,0-4.3-1.6-4.3-4.6V6.2c0-1.4,1-1.6,1.5-1.6c0.5,0,1.4,0.3,1.4,1.6v2.9h2.9
			c1.2,0,1.4,0.8,1.4,1.2c0,0.4-0.2,1.2-1.4,1.2h-2.9v7.8c0,1.8,0.7,2.5,1.8,2.5c0.2,0,0.4,0,0.7-0.1c0.2-0.1,0.4-0.1,0.5-0.1
			c0.7,0,1.2,0.5,1.2,1.2c0,0.4-0.3,0.9-0.8,1.2C74.6,24.1,73.9,24.3,73.2,24.3z"/>
		<path class="st0" d="M79.6,5.6c-1.1,0-1.9-0.8-1.9-1.9c0-1.1,0.9-1.9,1.9-1.9c1.1,0,2,0.8,2,1.9C81.5,4.8,80.6,5.6,79.6,5.6z
			 M81,22.6c0,1.4-1,1.6-1.5,1.6c-0.5,0-1.5-0.3-1.5-1.6V10.5c0-1.4,1-1.6,1.5-1.6c0.5,0,1.5,0.3,1.5,1.6V22.6z"/>
		<path class="st0" d="M89.7,24.3c-0.7,0-1.6-0.3-2.2-1.6l-4.9-11.5c-0.2-0.4-0.2-0.6-0.2-0.8c0-0.8,0.7-1.4,1.5-1.4
			c0.5,0,1.1,0.2,1.5,1.2l4.2,10.7h0.1L94,10.1c0.4-1,1-1.2,1.5-1.2c0.8,0,1.4,0.6,1.4,1.4c0,0.2,0,0.4-0.2,0.8l-4.9,11.6
			C91.3,24,90.4,24.3,89.7,24.3z"/>
		<path class="st0" d="M100.2,17.4c0.1,2.5,2.2,4.5,4.8,4.5c1.8,0,2.9-0.8,3.8-1.6c0.4-0.4,0.7-0.5,1-0.5c0.7,0,1.3,0.5,1.3,1.2
			c0,0.3-0.1,0.7-0.5,1.1c-1.4,1.5-3.3,2.2-5.7,2.2c-4.5,0-7.9-3.1-7.9-7.8c0-4.6,3.3-7.9,7.7-7.9c3.7,0,6.5,2.2,7.1,6.3
			c0.1,0.4,0.1,0.7,0.1,1c0,1-0.5,1.5-1.6,1.5H100.2z M109.1,15.2c-0.1-2.4-1.4-4.2-4.2-4.2c-2.5,0-4.5,1.9-4.7,4.2H109.1z"/>
		<path class="st0" d="M127.7,24.3c-0.5,0-1.4-0.2-1.4-1.6v-1h-0.1c-1.1,1.8-3.3,2.8-5.4,2.8c-4.6,0-7.5-3.5-7.5-7.9
			c0-4.4,3-7.8,7.5-7.8c2.4,0,4.3,1.2,5.3,2.6h0.1V1.6c0-1.4,1-1.6,1.5-1.6c0.5,0,1.5,0.3,1.5,1.6v21
			C129.1,24,128.1,24.3,127.7,24.3z M121.3,21.9c3,0,5-2.5,5-5.4s-2-5.4-5-5.4c-3.2,0-4.9,2.6-4.9,5.4S118.1,21.9,121.3,21.9z"/>
		<path class="st0" d="M133.8,17.4c0.1,2.5,2.2,4.5,4.8,4.5c1.8,0,2.9-0.8,3.8-1.6c0.4-0.4,0.7-0.5,1-0.5c0.7,0,1.3,0.5,1.3,1.2
			c0,0.3-0.1,0.7-0.5,1.1c-1.4,1.5-3.3,2.2-5.7,2.2c-4.5,0-7.9-3.1-7.9-7.8c0-4.6,3.3-7.9,7.7-7.9c3.7,0,6.5,2.2,7.1,6.3
			c0.1,0.4,0.1,0.7,0.1,1c0,1-0.5,1.5-1.6,1.5H133.8z M142.6,15.2c-0.1-2.4-1.4-4.2-4.2-4.2c-2.5,0-4.5,1.9-4.7,4.2H142.6z"/>
		<path class="st0" d="M150,11.6L150,11.6c0.8-1.6,2.8-2.9,4.9-2.9c3.8,0,5.6,2.7,5.6,6.1v7.9c0,1.4-1,1.6-1.5,1.6
			c-0.5,0-1.5-0.3-1.5-1.6v-6.9c0-2.4-0.7-4.6-3.4-4.6c-2.3,0-4,1.9-4,4.9v6.5c0,1.4-1,1.6-1.5,1.6c-0.5,0-1.5-0.3-1.5-1.6V10.4
			c0-1.4,0.9-1.6,1.4-1.6c0.4,0,1.4,0.2,1.4,1.6V11.6z"/>
	</g>
	
		<radialGradient id="SVGID_1_" cx="-75.6359" cy="2.7333" r="47.3812" gradientTransform="matrix(0.4521 0 0 0.4521 44.106 10.0422)" gradientUnits="userSpaceOnUse">
		<stop  offset="0" style="stop-color:#373638"/>
		<stop  offset="1" style="stop-color:#060606"/>
	</radialGradient>
	<path class="st1" d="M0.5,26.6c0,1.1,0.9,1.9,1.9,1.9h24c1.1,0,1.9-0.9,1.9-1.9v-24c0-1.1-0.9-1.9-1.9-1.9h-24
		c-1.1,0-1.9,0.9-1.9,1.9V26.6z"/>
	<g>
		<defs>
			<path id="SVGID_4_" d="M36.8,34.2c0,1.4-1.1,2.5-2.5,2.5h-31c-1.4,0-2.5-1.1-2.5-2.5V3.4c0-1.4,1.1-2.5,2.5-2.5h31
				c1.4,0,2.5,1.1,2.5,2.5V34.2z"/>
		</defs>
		<clipPath id="SVGID_2_">
			<use xlink:href="#SVGID_4_"  style="overflow:visible;"/>
		</clipPath>
		<g class="st2">
			<g>
				
					<linearGradient id="SVGID_3_" gradientUnits="userSpaceOnUse" x1="-185.844" y1="187.6876" x2="-201.9441" y2="198.6649" gradientTransform="matrix(5.530000e-002 -0.9985 0.9985 5.530000e-002 -168.6545 -184.7072)">
					<stop  offset="0" style="stop-color:#F1802B"/>
					<stop  offset="1" style="stop-color:#F4952A"/>
				</linearGradient>
				<path class="st3" d="M-6.2,11.6c0.8-1.2,5-6.4,12-0.1c5.4,4.8,0.1,19.1,9.6,22.6c9.8,3.5,16.9-5.5,17.6-10.3
					c-6.7,5.3-12.4,4.6-16.1-3.6c-0.6-1.4-1.2-2.7-1.8-3.9c-0.3-0.6-0.6-1.2-0.9-1.8c-0.4-0.8-0.8-1.5-1.2-2.2
					C10.1,7.7,7.3,5.5,2.6,4.8C-4.3,3.7-8.2,8.6-8.9,10.6"/>
				<path class="st4" d="M-5.4,12.1c0.2-0.2,1.6-2.3,4-2.7c2-0.3,4.2,0.7,6.5,2.7c2,1.8,2.4,5.3,2.7,9c0.5,5.4,1.1,11.5,7.2,13.7
					c5,1.8,9,0.4,11.5-1.1c4.2-2.5,6.9-7,7.3-10c0.1-0.4-0.1-0.8-0.5-1c-0.3-0.2-0.8-0.2-1.1,0.1c-3.3,2.6-6.1,3.6-8.6,3
					c-2.4-0.6-4.4-2.7-6-6.2c-0.7-1.6-1.3-2.8-1.8-3.9c-0.3-0.6-0.6-1.2-0.9-1.8c-0.4-0.8-0.9-1.5-1.3-2.2c-3.1-5-6.1-7.3-11-8
					c-7-1.1-11.6,3.7-12.5,6.5l0,0c-0.2,0.5,0.1,1.1,0.6,1.2c0.5,0.2,1.1-0.1,1.2-0.6l0,0c0.6-1.7,4.1-6.1,10.3-5.2
					c4.3,0.7,6.9,2.6,9.7,7.1c0.4,0.6,0.8,1.3,1.2,2.1c0.3,0.5,0.6,1.1,0.9,1.7c0.5,1.1,1.1,2.3,1.8,3.8c1.9,4.1,4.4,6.6,7.3,7.3
					c3.1,0.7,6.5-0.4,10.3-3.4c-0.3,0.3-0.8,0.3-1.1,0.1c-0.4-0.2-0.5-0.6-0.5-1c-0.4,2.5-2.7,6.4-6.4,8.6c-2.1,1.3-5.6,2.5-9.9,0.9
					c-4.9-1.8-5.4-6.8-5.9-12.1C9.4,16.9,9,13,6.4,10.7C3.6,8.2,0.9,7.1-1.7,7.5c-3.2,0.4-5.1,3-5.4,3.5l0,0
					c-0.3,0.5-0.2,1.1,0.3,1.4C-6.3,12.7-5.7,12.6-5.4,12.1L-5.4,12.1z"/>
			</g>
			
				<linearGradient id="SVGID_5_" gradientUnits="userSpaceOnUse" x1="-191.6463" y1="191.5923" x2="-199.2407" y2="191.5923" gradientTransform="matrix(5.530000e-002 -0.9985 0.9985 5.530000e-002 -168.6548 -184.7072)">
				<stop  offset="0" style="stop-color:#F1802B"/>
				<stop  offset="1" style="stop-color:#F5A928"/>
			</linearGradient>
			<path class="st5" d="M-6.2,11.6c0.8-1.2,5-6.4,12-0.1c5.4,4.8,0.1,19.1,9.6,22.6c9.8,3.5,16.9-5.5,17.6-10.3
				c-6.7,5.3-12.4,4.6-16.1-3.6c-0.6-1.4-1.2-2.7-1.8-3.9c-0.3-0.6-0.6-1.2-0.9-1.8c-0.4-0.8-0.8-1.5-1.2-2.2
				C10.1,7.7,7.3,5.5,2.6,4.8C-4.3,3.7-8.2,8.6-8.9,10.6"/>
			<path class="st0" d="M15.7,33.3c4.4,1.6,7.9,0.4,10.1-0.9c2.9-1.7,5-4.5,5.9-6.8c-0.9,0.6-1.8,1-2.7,1.4c-2,0.8-3.9,1-5.6,0.6
				c-2.2-0.5-4-2-5.6-4.4c-0.1,2.5,1.5,5.3-2.5,4.5c-4.1-0.8-3.2,1.2-3,3.2C13,31.9,14.1,32.8,15.7,33.3z"/>
		</g>
	</g>
</g>
</svg>
